<?xml version="1.0" encoding="utf-8"?>
<!-- Generator: Adobe Illustrator 24.1.3, SVG Export Plug-In . SVG Version: 6.00 Build 0)  -->
<svg version="1.1" id="Layer_1" xmlns="http://www.w3.org/2000/svg" xmlns:xlink="http://www.w3.org/1999/xlink" x="0px" y="0px"
	 viewBox="0 0 1031 227" style="enable-background:new 0 0 1031 227;" xml:space="preserve">
<style type="text/css">
	.st0{fill:#F4838C;}
	.st1{fill:#FEFDFD;}
	.st2{fill:#F2818B;}
	.st3{fill:#F1838C;}
	.st4{fill:#F1818A;}
	.st5{fill:#EF808A;}
	.st6{fill:#F0818A;}
	.st7{fill:#F3828C;}
	.st8{fill:#FDF4F5;}
	.st9{fill:none;}
	.st10{font-family:'MarkerFelt-Wide';}
	.st11{font-size:80.2736px;}
</style>
<g>
	<g>
		<g>
			<path class="st0" d="M1017.5,106.8c-1-1.5-2.1-3.1-3.7-4c-9.8-5.6-10.8-11.4-3-18.4c5.7-5.1,3.3-15-3.6-18.8
				c-9.9-5.5-19.9-4.1-30.3-2.5c-12,1.9-13.3,1.2-13.1-9.3c0.1-6.3-2.8-7.4-8.7-7c-25.8,1.8-51.5,3.5-77.3,5.1
				c-1.5,0.1-3-0.3-4.7-2.4c12.4-1.3,24.8-2.7,37.2-4c15.3-1.6,30.6-2.7,45.8-4.7c3.4-0.4,6.5-3.2,9.7-5c-2.4-3.6-4.2-9.7-7.1-10.1
				c-12.2-1.9-25.1-4.2-37.1-2.5c-43.9,6.1-87.8,10.1-132.3,10.4c-68.4,0.5-136.9,5.6-205.4,5.3c-88.7-0.5-176.5,6.6-264.5,15
				c-29.4,2.8-59,3.7-88.6,5.2c-5.6,0.3-11.1,0.6-16.7,0.9c-1.2,0.1-2.4,0.2-3.6,0.2c-1.4,0.1-2.7,0.2-4.1,0.3
				c-7.1,0.5-14.1,0.9-21.2,1.4c-44.5,3-88.9,6.2-133.3,10c-12.2,1-24.3,5.6-35.9,9.7c-3.4,1.2-6.2,6.2-7.1,9.9
				c-1.2,5.1,0.6,10.8-0.5,16C6,119.7,13.4,126,24.1,129.9c11.9,4.4,24.2,8.2,36.6,11.2c6.3,1.5,8.7,4.4,6.9,9.2
				c-0.7,2.1-5.1,3.9-8.1,4.3c-7.5,1.2-15.3,1.1-22.8,2.4c-10.6,1.7-14.3,6.2-13.5,15.8c0.6,6.6,1.2,13.2,3,19.6
				c0.5,1.8,5.3,3.6,8.3,3.7c28.2,1.7,56.4,2.9,84.6,4.5c4.6,0.3,9.1,2.4,13.6,3.6h16.8c7.1-1,14.1-2.5,21.2-2.9
				c59.6-3.6,119.2-6.7,178.8-10.6c50.1-3.2,100.2-7.2,150.4-10.8c43.5-3.1,87-6.3,130.5-9.5c2-0.2,4-0.5,6-0.8
				c-0.1-0.7-0.1-1.5-0.2-2.2c-23.9,1.2-47.8,2.1-71.8,3.5c-20.9,1.2-41.8,2.8-62.7,4c-2.3,0.1-4.7-1.4-7.1-2.1c2-1,3.8-2.7,5.9-2.9
				c47.8-5.6,95.6-11,144-7.3c1.6,0.1,3.1,1.1,4.6,1.7c2.8,0.8,5.5,1.7,8.3,2.5c17.2-0.7,34.5-1.1,51.6-2.2
				c18.1-1.2,36.1-3.3,54.2-4.6c11.1-0.7,22.3-0.3,33.3-0.8c41.2-2,82.3-4.1,123.5-6.2c21.1-1.1,33-4.9,58.3-18.4V132
				c-46.4,0.8-92.7,1.7-139.1,2.5c-4.1,0.1-8.1,0.2-12.2,0.2c-0.1-0.9-0.1-1.8-0.2-2.7c4.1-0.3,8.3-0.5,12.4-0.8
				c36.5-2.2,73.1-4.5,109.7-6.8c0-11.2,0.2-22.4-0.1-33.7c-0.1-5.6,2.6-7.4,6.9-3.8c4.2,3.6,6.7,8.7,9.9,13.1l14.8,9.5
				c0.6-5.8,1.3-11.6,2-17.3c0.4-3.4,0.8-6.8,1.3-10.2c0.8,0.1,1.5,0.2,2.1,0.3v33.3c0.3,2.4,0.6,4.8,0.8,7.2
				c13.9,2.9,26.2-3.1,36.6-6.7C1021.7,113.6,1019.7,110.2,1017.5,106.8z M77.4,116.1c-0.7,0.4-2,1.4-2.1,1.3
				c-1.3-1.3-2.4-2.6-3.6-4c-7.8-11.3-4.3-22.1,9-26.9c-2.9,9-5.9,17.9-8.8,26.8C73.8,114.2,75.5,115.1,77.4,116.1z M117.9,105.6
				c-1.3,5.6,0.2,13.3-10.2,13.5c-1.2,1.6-2.4,3.1-3.6,4.7c-0.5-0.4-1-0.7-1.4-1.1c1.5-1.3,3.1-2.6,4.6-3.9
				c6.9-8.7,5.2-18.5,4.2-28.1c-0.3-0.2-0.6-0.3-0.9-0.4c-2.5-1.7-5-3.3-7.5-5c0.5-0.4,1.3-1.2,1.4-1.2c2.5,2,4.9,4.1,7.4,6.2
				C119,93.9,119.4,99.7,117.9,105.6z M675.4,85.4L675.4,85.4c0.1-0.1,0.2-0.1,0.3-0.2c2.9,4.1,5.7,8.2,8.6,12.3
				c-1,0.6-2.1,1.3-3.1,1.9c-2.1-2.7-4.2-5.4-6.4-8.2l0,0c-1-1.3-2-2.5-2.9-3.8C673,86.9,674.2,86.2,675.4,85.4z M464.5,99
				c-0.2,0.2-0.3,0.3-0.5,0.5c-0.3,0.3-0.7,0.4-1.1,0.6l0,0c-0.3,0.2-0.6,0.3-0.9,0.4c-0.3,0.2-0.7,0.3-1.1,0.4
				c-0.5,0.2-1,0.4-1.4,0.6c0-0.9,0.1-1.8,0.1-2.7c0,0,0,0,0,0c0-0.6,0-1.3-0.1-1.9c-0.3-3.9-0.9-7.7-1.4-12
				C466.1,89,468.6,94.1,464.5,99z M462,123.4c-0.2-0.1-0.3-0.1-0.5-0.2c-0.2-0.1-0.3-0.1-0.5-0.2c-0.2-0.1-0.3-0.2-0.5-0.2
				c-0.1-0.1-0.1-0.1-0.2-0.1c-0.2-0.1-0.3-0.2-0.5-0.3c-0.1-0.1-0.1-0.1-0.2-0.2c-0.1-0.1-0.1-0.1-0.2-0.2c-2.2-3.5-3.2-8-6.1-10.7
				c-0.2-0.2-0.3-0.3-0.6-0.5l-0.1-0.1c-0.2-0.2-0.4-0.3-0.6-0.7H452c-0.2,0.2-0.3,0.1-0.5,0c-0.3-0.2-0.6-0.4-0.9-0.6
				c-0.2-0.1-0.3-0.2-0.6-0.5H450c-0.2,0-0.5-0.1-0.7-0.2c-0.2-0.1-0.5-0.2-0.7-0.3c-0.6-0.3-1.1-0.5-1.7-0.6
				c-0.2-0.1-0.4-0.2-0.6-0.2c-0.1-0.1-0.2-0.1-0.3-0.1c-0.3-0.1-0.7-0.2-1.1-0.3l0,0c-0.3-0.1-0.6-0.2-0.9-0.2s-0.6-0.2-0.9-0.2
				c-0.3-0.1-0.6-0.1-0.9-0.2c-0.3-0.1-0.6-0.1-0.9-0.2s-0.8,0.5-1.3,1.3c-0.1,0.1-0.1,0.2-0.2,0.3c-0.3,0.4-0.6,0.9-0.8,1.4
				c-0.1,0.2-0.2,0.4-0.3,0.6c-0.1,0.1-0.1,0.2-0.1,0.2c-0.2,0.4-0.3,0.7-0.5,1c-0.1,0.2-0.2,0.4-0.2,0.6c-0.3,0.9-0.7,1.7-0.8,2.5
				c-0.7,3.2-0.2,6.7-0.2,10c-1,0-1.9,0.1-2.6,0.1V82.1c1.3,2.3,2.2,3.1,2.2,3.8c-0.3,9.3-0.2,16.4,14.4,17.6c0.1,0,0.2,0.1,0.3,0.1
				c0.1,0,0.1,0,0.1,0.1c0.1,0,0.1,0,0.2,0.1c0.1,0,0.1,0.1,0.2,0.1c0.1,0,0.1,0.1,0.2,0.1c0.1,0,0.1,0.1,0.2,0.1
				c0.1,0.1,0.3,0.1,0.4,0.2c0.1,0.1,0.3,0.2,0.4,0.2c1.1,0.7,2.3,1.9,3.4,3.3c0.1,0.2,0.2,0.3,0.3,0.4c0.8,1.2,1.6,2.4,2.4,3.8
				c0.1,0.3,0.3,0.5,0.4,0.7c1.1,2,2.4,4.1,3.5,6.1c0.1,0.1,0.1,0.2,0.2,0.3l0,0c0.1,0.2,0.2,0.4,0.3,0.5c0.2,0.3,0.4,0.7,0.6,1
				c0.3,0.4,0.6,0.8,0.9,1.3c0.2,0.3-1.1,2.1-1.4,2c-0.2-0.1-0.5-0.1-0.7-0.2C462.6,123.6,462.3,123.5,462,123.4z M425,102.4
				c0,0.2,0.1,0.4,0.1,0.6c0,0.2,0.1,0.4,0.1,0.5c0,0.1,0,0.2,0,0.3c0.2,4.8-1.9,9.5-5.8,12.6c-0.2,0.1-0.3,0.2-0.5,0.3
				c-0.4,0.3-0.7,0.6-1.2,0.8V90.7c-0.6-0.4-1.2-0.7-1.8-1c-0.3-0.2-0.6-0.4-0.9-0.5c-1.2-0.7-2.4-1.5-3.6-2.1
				c0.6-0.6,1.1-1.1,1.7-1.7c0.7,0.7,1.3,1.3,2,2c0.7,0.8,1.5,1.6,2.3,2.3c0.2,0.3,0.5,0.5,0.7,0.7c0.3,0.3,0.6,0.5,0.9,0.8
				c0.1,0.1,0.2,0.2,0.3,0.3c0.5,0.4,0.9,0.8,1.3,1.3c0.1,0.1,0.2,0.2,0.3,0.3c1,1.1,1.7,2.2,2.3,3.4c0.1,0.1,0.1,0.3,0.2,0.4
				c0.2,0.3,0.3,0.6,0.5,1c0.1,0.2,0.2,0.4,0.2,0.6c0.1,0.2,0.2,0.4,0.2,0.6l0,0c0.1,0.2,0.1,0.4,0.2,0.6c0,0.1,0.1,0.1,0.1,0.2
				c0.1,0.2,0.1,0.4,0.2,0.6c0.1,0.2,0.1,0.4,0.1,0.6c0,0.1,0,0.1,0.1,0.2c0.1,0.2,0.1,0.4,0.1,0.6C425,102,425,102.2,425,102.4z
				 M411.2,122.3c0.3-0.1,0.7-0.3,0.9-0.2c0.2,0.1,0.3,0.5,0.5,0.7c-0.2,0.2-0.4,0.4-0.6,0.6C411.8,123.1,411.5,122.7,411.2,122.3z
				 M381.9,89.4c1.1-1.4,2.2-2.8,3.3-4.2c1.1,0.8,2.2,1.7,3.4,2.6c-2.9,3.5-5.9,6.9-8.7,10.2c-1-0.7-2.1-1.4-3.1-2.1
				c1.4-1.8,2.8-3.6,4.2-5.3C381.2,90.2,381.5,89.8,381.9,89.4z M378.1,114c-0.2-0.2,0.8-1.2,1.5-2.2c1.7,1.4,2.8,2.4,4,3.4
				c-0.7,0.7-1.4,1.4-2.2,2C380.3,116.2,379.1,115.2,378.1,114z M378.5,105.3c0-1.1,0.7-2.2,1.1-3.3c0.9,0.6,2.3,1.2,2.4,1.9
				c0.2,1.3-0.5,2.6-1.2,5.9C379.3,107.1,378.5,106.2,378.5,105.3z M447.2,178.9c-0.1-1-0.2-2-0.3-3c14.7-1.6,29.4-3.2,44.2-4.8
				c0.2,1.5,0.3,3,0.5,4.4C476.8,176.6,462,177.8,447.2,178.9z M634.1,106.9c-0.1-0.2-0.2-0.4-0.2-0.5c-0.1-0.3-0.2-0.6-0.3-0.8
				c-0.1-0.2-0.1-0.4-0.2-0.5c-0.1-0.3-0.2-0.5-0.2-0.8c0-0.1-0.1-0.2-0.1-0.2c-0.1-0.2-0.1-0.3-0.1-0.5c-0.1-0.2-0.1-0.4-0.1-0.5
				c0-0.1-0.1-0.2-0.1-0.3l0,0c0-0.2-0.1-0.3-0.1-0.5c0-0.2,0-0.4,0-0.6c0-0.2,0-0.3,0-0.4c0-0.1,0-0.1,0-0.1c0-0.2,0-0.3,0.1-0.4
				c0-0.1,0.1-0.3,0.1-0.4c0.1-0.2,0.1-0.4,0.1-0.5c0.1-0.2,0.1-0.3,0.1-0.4c0.3-1,0.8-2.1,1.6-3.1c0.1-0.2,0.2-0.3,0.3-0.5
				c0-0.1,0.1-0.1,0.1-0.1c0.1-0.2,0.2-0.3,0.3-0.4c0.3-0.3,0.6-0.7,1-1c0.2-0.2,0.3-0.3,0.5-0.5l0.1-0.1c0.2-0.2,0.3-0.3,0.6-0.4
				c0.2-0.2,0.4-0.3,0.6-0.5s0.5-0.3,0.7-0.5c0.2-0.2,0.5-0.3,0.7-0.5c0.2-0.2,0.5-0.3,0.7-0.5c0.8-0.5,1.6-0.9,2.5-1.3
				c0.9-0.4,1.8-0.9,2.9-1.3c-2.5,8.3-4.9,16.3-7.3,24.3c6.8,0.3,8,4.6,8.3,9.5l0.4,0.4l-0.5-0.4c-5.4-1.3-10.6-2.7-8.5-9.4
				c-1.5-2-2.7-3.8-3.6-5.5c-0.1-0.2-0.2-0.3-0.2-0.4C634.3,107.3,634.2,107.1,634.1,106.9z M672.1,118.1L672.1,118.1
				c3.2-3.2,6.3-6.3,9.4-9.5c1,0.8,2.1,1.7,3.2,2.5c-4.2,4.7-8.5,9.3-12.8,13.9c-0.1-0.1-0.3-0.2-0.4-0.3c-1.1-0.8-2.2-1.7-3.3-2.6
				C669.6,120.7,670.9,119.4,672.1,118.1z M896.4,89.5c0.5-0.9,2.8-1,4.1-1.5c0.1,1.2,0.8,2.6,0.3,3.4c-2.3,3.9-4.9,7.6-7.4,11.3
				c-0.9-0.5-1.8-1-2.7-1.6C892.7,97.3,894.3,93.3,896.4,89.5z M894.2,109.6c-0.9-0.5-1.7-0.9-2.5-1.4c0.3-0.3,0.7-0.7,1.1-1
				c0.5,0.7,1,1.5,1.5,2.2c3.1,4.3,6.3,8.5,9.4,12.8C895.4,120.9,892.5,116.6,894.2,109.6z M923.9,84c-0.2-0.2-0.5-0.3-0.6-0.5
				c0-0.2,0.2-0.5,0.3-0.7c0.3,0.3,0.6,0.5,1,0.8C924.4,83.7,924.2,83.9,923.9,84z M931.8,87.9c0.3,0.1,0.6,0.8,0.9,1.3
				c-0.6,0.3-1.2,0.7-1.8,0.6c-0.3-0.1-0.6-0.8-0.9-1.3C930.6,88.4,931.3,87.9,931.8,87.9z M934.3,115.3c-0.6,1.7-1.3,3.5-2,5.2
				c0,0.1-1.1-0.3-1.7-0.5c1.1-1.6,2.4-3.2,3.5-4.9c-0.1-1.4-0.2-2.8-0.2-4.2c0.9,0.2,1.8,0.3,2.6,0.5
				C935.7,112.7,935,114,934.3,115.3z M935.5,97c-0.5-0.5-1.5-1.2-1.4-1.5c0.3-0.7,1.1-1.3,1.7-1.9c0.6,0.6,1.4,1.1,1.3,1.3
				C936.7,95.7,936,96.4,935.5,97z"/>
			<path class="st1" d="M210.6,58.9v1.3c-1.4,0.1-2.7,0.2-4.1,0.3c-7.1,0.5-14.1,0.9-21.2,1.4v-2.9H210.6z"/>
			<path class="st1" d="M230.7,59c-5.6,0.3-11.1,0.6-16.7,0.9v-1h10.6C226.9,58.8,228.9,58.9,230.7,59z"/>
			<path class="st1" d="M839.3,131.1v3.2c-4.1,0.1-8.1,0.2-12.2,0.2c-0.1-0.9-0.1-1.8-0.2-2.7C831.1,131.7,835.2,131.4,839.3,131.1z
				"/>
			<path class="st2" d="M434.1,82.1c1.5,2.3,2.5,3.1,2.4,3.9c-0.3,9.3-0.2,16.4,14.4,17.6c5.3,0.4,9.5,11.8,14.1,18.2
				c0.2,0.3-1.1,2.1-1.4,2c-1.5-0.4-3.6-0.7-4.2-1.7c-2.2-3.5-3.2-8-6.1-10.7c-2.9-2.7-7.7-4.1-11.9-4.9c-0.9-0.2-3.6,5-4.3,7.9
				c-0.7,3.2-0.2,6.7-0.2,10c-1,0-1.9,0.1-2.9,0.1C434.1,110.9,434.1,97.4,434.1,82.1z"/>
			<path class="st3" d="M986.7,122.7c-1.5,0.1-3,0.2-4.5,0.2c-0.9-1.2-1.5-2.9-2.9-3.5c-8.7-4.1-12.3-11.1-13.5-19.4l0,0l14.8,9.5
				c0.6-5.8,1.3-11.6,2-17.3c0.4-3.4,0.8-6.8,1.3-10.2c0.8,0.1,1.5,0.2,2.4,0.3c0,11.1,0,22.2,0,33.3
				C986.2,118,986.5,120.3,986.7,122.7z"/>
			<path class="st3" d="M965.6,100.1L965.6,100.1c-1.3-0.2-2.9-0.2-4-0.8c-2.1-1.2-4-2.6-6-3.9c-0.9,2.5-2.4,5-2.5,7.5
				c-0.3,7.2-0.1,14.3-0.1,21.5c-1.4,0.1-2.8,0.1-4.2,0.1c0-11.2,0.2-22.4-0.1-33.7c-0.1-5.6,2.6-7.4,6.9-3.8
				C959.9,90.5,962.4,95.6,965.6,100.1z"/>
			<path class="st4" d="M638.2,113.4c-9-11.8-7.1-18.3,7.6-24.5c-2.5,8.3-4.9,16.3-7.3,24.4C638.5,113.2,638.2,113.4,638.2,113.4z"
				/>
			<path class="st5" d="M71.8,113.4c-7.8-11.3-4.3-22.1,8.9-26.9c-2.9,9-5.9,17.9-8.8,26.8L71.8,113.4z"/>
			<path class="st1" d="M491.6,175.5c-14.8,1.2-29.5,2.2-44.3,3.4c-0.1-1-0.2-2-0.3-3c14.7-1.6,29.4-3.2,44.2-4.8
				C491.3,172.6,491.4,174.1,491.6,175.5z"/>
			<path class="st5" d="M107.4,118.9c6.9-8.7,5.2-18.5,4.2-28.1l0.4-0.3c7.1,3.5,7.4,9.3,6,15.2c-1.3,5.6,0.2,13.3-10.2,13.5
				L107.4,118.9z"/>
			<path class="st6" d="M418,90.4c9.9,7.8,9.3,21.4-0.3,27.5c0-8.7,0-17.9,0-27.1L418,90.4z"/>
			<path class="st2" d="M458.1,84.9c8,4.2,10.4,9.2,6.3,14.1c-1,1.3-3.3,1.7-5,2.5c0.1-1.5,0.2-3.1,0.1-4.6
				C459,93,458.5,89.2,458.1,84.9z"/>
			<path class="st4" d="M684.8,111.1c-4.2,4.7-8.5,9.3-12.8,13.9c-1.2-0.9-2.5-1.9-3.7-2.9c4.5-4.5,8.9-9,13.4-13.5
				C682.6,109.4,683.7,110.2,684.8,111.1z"/>
			<path class="st7" d="M890.8,101.2c1.8-3.9,3.5-7.9,5.6-11.7c0.5-0.9,2.7-1,4.1-1.5c0.1,1.2,0.8,2.6,0.3,3.4
				c-2.3,3.9-4.9,7.6-7.4,11.3C892.7,102.2,891.7,101.7,890.8,101.2z"/>
			<path class="st4" d="M681.2,99.5c-3.1-4-6.2-7.9-9.3-11.9c1.3-0.8,2.5-1.5,3.8-2.3c2.9,4.1,5.7,8.2,8.6,12.3
				C683.2,98.2,682.2,98.8,681.2,99.5z"/>
			<path class="st6" d="M388.6,87.8c-2.9,3.4-5.9,6.9-8.8,10.2c-1-0.7-2.1-1.4-3.1-2.1c2.8-3.6,5.6-7.1,8.4-10.7
				C386.3,86.1,387.4,87,388.6,87.8z"/>
			<path class="st7" d="M894.4,109.4c3.1,4.3,6.3,8.5,9.4,12.8c-8.3-1.3-11.2-5.7-9.5-12.7C894.2,109.6,894.4,109.4,894.4,109.4z"/>
			<path class="st4" d="M646.7,122.8c-5.4-1.3-10.6-2.7-8.5-9.4l0.2-0.2C645.2,113.6,646.4,117.9,646.7,122.8L646.7,122.8z"/>
			<path class="st5" d="M111.6,90.7c-0.3-0.2-0.6-0.3-0.9-0.4c-2.5-1.7-5-3.3-7.5-5c0.5-0.4,1.3-1.2,1.4-1.2c2.5,2,4.9,4.1,7.4,6.2
				L111.6,90.7z"/>
			<path class="st6" d="M380.8,109.8c-1.4-2.7-2.3-3.6-2.3-4.5c0-1.1,0.7-2.2,1.1-3.3c0.9,0.6,2.3,1.2,2.4,1.9
				C382.2,105.2,381.5,106.6,380.8,109.8z"/>
			<path class="st8" d="M657.2,166.7c-5.2,5.9-7.4,3.5-8.3-2.5C651.7,165,654.5,165.9,657.2,166.7z"/>
			<path class="st6" d="M379.6,111.8c1.7,1.4,2.9,2.4,4,3.4c-0.7,0.7-1.4,1.4-2.2,2c-1.1-1-2.4-2-3.4-3.2
				C377.9,113.8,378.8,112.8,379.6,111.8z"/>
			<path class="st5" d="M72,113.3c1.8,0.9,3.6,1.9,5.4,2.9c-0.7,0.5-2,1.4-2.1,1.3c-1.3-1.3-2.4-2.6-3.6-4L72,113.3z"/>
			<path class="st5" d="M107.7,119.2c-1.2,1.6-2.4,3.1-3.6,4.7c-0.5-0.4-1-0.7-1.4-1.1c1.5-1.3,3.1-2.6,4.6-3.9
				C107.4,118.9,107.7,119.2,107.7,119.2z"/>
			<path class="st6" d="M417.9,90.7c-2.1-1.3-4.2-2.5-6.4-3.8c0.6-0.6,1.1-1.1,1.7-1.7c1.7,1.7,3.3,3.5,5,5.1
				C418.2,90.4,417.9,90.7,417.9,90.7z"/>
			<path class="st7" d="M934.1,115.1c-0.1-1.4-0.2-2.8-0.2-4.2c0.9,0.2,1.8,0.3,2.6,0.5c-0.7,1.3-1.5,2.6-2.2,3.9
				C934.3,115.3,934.1,115.1,934.1,115.1z"/>
			<path class="st9" d="M934.3,115.3c-0.6,1.7-1.3,3.5-2,5.2c0,0.1-1.1-0.3-1.7-0.5c1.1-1.6,2.3-3.2,3.5-4.9L934.3,115.3z"/>
			<path class="st7" d="M935.8,93.7c0.6,0.6,1.4,1.1,1.3,1.3c-0.3,0.7-1,1.4-1.5,2.1c-0.5-0.5-1.5-1.2-1.4-1.5
				C934.4,94.9,935.2,94.3,935.8,93.7z"/>
			<path class="st7" d="M932.6,89.3c-0.6,0.3-1.2,0.7-1.7,0.6c-0.3-0.1-0.6-0.8-0.9-1.3c0.6-0.3,1.2-0.7,1.7-0.6
				C932.1,88,932.4,88.8,932.6,89.3z"/>
			<path class="st7" d="M894.2,109.6c-0.9-0.5-1.7-0.9-2.5-1.4c0.3-0.3,0.7-0.7,1.1-1c0.5,0.7,1,1.5,1.5,2.2
				C894.4,109.4,894.2,109.6,894.2,109.6z"/>
			<path class="st6" d="M412.6,122.8c-0.2,0.2-0.4,0.4-0.6,0.6c-0.2-0.4-0.5-0.8-0.7-1.2c0.3-0.1,0.7-0.3,0.9-0.2
				C412.4,122.2,412.5,122.6,412.6,122.8z"/>
			<path class="st7" d="M923.9,84c-0.2-0.2-0.5-0.3-0.6-0.5c0-0.2,0.2-0.5,0.3-0.7c0.3,0.3,0.6,0.5,1,0.8
				C924.4,83.7,924.2,83.9,923.9,84z"/>
			<polygon class="st4" points="646.6,122.8 647,123.2 646.6,122.8 			"/>
			<path class="st0" d="M982,122.9c-9.6,0.5-19.3,0.9-28.9,1.4c0-7.2-0.2-14.3,0.1-21.5c0.1-2.5,1.6-5,2.5-7.5c2,1.3,3.9,2.8,6,3.9
				c1.1,0.6,2.6,0.6,3.9,0.8c1.3,8.3,4.9,15.2,13.5,19.4C980.5,120.1,981.1,121.7,982,122.9z"/>
		</g>
	</g>
	<polygon class="st9" points="399.9,-236 432.2,-236 432.2,-236 	"/>
	<text transform="matrix(0.8594 0 0 1 51.8059 135.074)" class="st10 st11">FLOWERS FOR ALL OCCASIONS</text>
</g>
</svg>
