<?xml version="1.0" encoding="utf-8"?>
<!-- Generator: Adobe Illustrator 24.1.3, SVG Export Plug-In . SVG Version: 6.00 Build 0)  -->
<svg version="1.1" id="Layer_1" xmlns="http://www.w3.org/2000/svg" xmlns:xlink="http://www.w3.org/1999/xlink" x="0px" y="0px"
	 viewBox="0 0 614 368" style="enable-background:new 0 0 614 368;" xml:space="preserve">
<style type="text/css">
	.st0{display:none;fill:#FFFFFF;}
	.st1{fill:#A54747;}
	.st2{fill:#FFFFFF;}
	.st3{fill:#F3C4C1;}
	.st4{font-family:'ComicSansMS';}
	.st5{font-size:36.1872px;}
</style>
<g>
	<g>
		<path class="st0" d="M141.1,359.7c-0.2,0-0.4,0-0.7,0c-0.6,0.2-1.2,0.5-1.8,0.7c0.9-0.2,1.8-0.4,2.7-0.5
			C141.2,359.8,141.2,359.7,141.1,359.7z"/>
		<path class="st0" d="M227.9,335.1c-0.4,0-0.9,0.1-1.4,0.1c0.5,0,0.9,0.1,1.4,0.1C227.9,335.2,227.9,335.2,227.9,335.1z"/>
		<path class="st0" d="M397.4,335.7c0.2,0,0.4,0,0.7,0c0,0,0,0,0.1,0c1.7-0.5,3.5-1,5.2-1.5c-2.3,0.2-4.6,0.4-6.9,0.7
			C396.9,335,397.2,335.3,397.4,335.7z"/>
		<path class="st0" d="M622.3-12.8c0-6.4-1-8-7.8-8c-102.1,0.3-204.1,0.2-306.2,0.2s-204.1,0-306.2-0.1c-5.9,0-8.3,0.1-8.3,7.5
			C-5.9,127.3-6,267.7-6.1,408.2c0,5.9,1.1,7.5,7.3,7.5c204.5-0.2,408.9-0.2,613.3,0c6.9,0,7.8-1.7,7.8-8
			C622.1,267.6,622.1,127.4,622.3-12.8z M553,10c7.4-7.3,22.8-4.4,30.2,5.8c5.3,7.4,6.8,15.7,6.2,23c0,11.7-1.7,21.2-7.8,29.7
			c-8.8,12.2-23.2,12.5-32.6,0.3C537.3,53.4,539.3,23.4,553,10z M320.7,170.7c0.1-3.6,1.2-6.6,4.9-6.9c4.6-0.4,4.3,3.6,4.7,6.4
			c-0.3,3.7-0.3,8.4-4.4,8.3C323.1,178.4,320.5,174.8,320.7,170.7z M300.6,128.1c1-4,1.3-10.5,7.5-9.2c5,1.1,6.3,6.5,6.7,11.6
			c1.7,23.1-2.5,45.4-10.1,67.1c-3.7,10.7-5.6,24.4,5.2,27.3c7.8,2.1,9.3-13.6,12.5-21.9c1.3-3.4-1.5-10.3,2.5-9.8
			c6,0.7,1,6.8,1.6,10.5c0.2,1.6-0.2,3.3,0,4.8c1,6.7-3.1,18.9,5.9,18.1c7.7-0.6,11.8-13.1,10.7-22.1c-1.5-12.2-2.3-24.6-0.4-36.4
			c1.8-11.1-2.5-11.7-10.8-11.1c-2.7,0.2-7.8,2.1-7.7-2.6c0-4.1,4.9-3,8-3c7,0,14.6,1.6,16-8.8c0.1-1.1,2.8-2.5,4.4-2.6
			c2.5-0.2,4.2,1.6,4.6,4.1c0.5,4,0.8,7.5,6.5,7.3c4.5-0.2,6.4-2.4,7.4-6.1c0.8-3,2.2-5.4,5.8-5.4c4.2,0,5.5,2.9,5.7,6.4
			c0.2,4.3,2.7,5.1,6.4,5.2c4.4,0.1,5.1-2.4,5.7-6c1.1-6.6,2.3-13.3,4.4-19.6c1-3,2.6-7.3,6.9-7c4.9,0.4,5.1,5,5.9,8.7
			c4.5,22.9-1.5,44.5-7.8,66c-2.5,8.6-6.2,17-2.1,26.1c1.3,2.8,1.6,6.5,5.7,6.8c4.2,0.3,5.6-3.4,6.8-5.9c2.8-6.1,4.6-12.6,6.8-19
			c1.4-4,2.4-8.8,8-7.7c5.5,1.2,7.3,5.9,7.2,11c-0.1,5.2-2.8,9.7-5.4,14.2c-1.2,2-5.9,4.3-1.7,6.8c2.8,1.8,7.3,2.1,9.5-1.7
			c3.4-5.8,6.2-11.9,10.8-20.9c1.6,14.3-3.7,23.8-11.7,29.2c-9.5,6.4-13.6-3.4-17.4-10.4c-5.4,4.2-6.5,17.1-17.3,10
			c-4-2.6-5.4-9-8-13.6c-1.4,2.7-2.7,5.6-4.4,8.3c-5.2,8-10.9,10.3-16.1,0.1c-3.3-6.4-5.6-6.5-9,0c-5.9,11.1-11.9,7.4-16.5-0.9
			c-3.1-5.6-4.7-7-7.2,0c-1.6,4.5-4.3,7.7-9.6,8.2c-5.4,0.5-7.6-2.9-8.9-7.1c-1.6-5.4-3-1.8-4.3,0c-2.6,3.6-4.6,8.1-10.3,6.9
			c-5.6-1.2-7.7-6.1-8.6-10.5C293.5,191.7,292.8,159.8,300.6,128.1z M236,212c1.3-7.2,3.4-14.7,11-18c3.3-1.5,6.8-0.1,9.3,3.1
			c1.2,1.6,3,3.1,1.3,4.9c-2.9,3-5.2-1.3-7.5-1.2c-4.4,0-7.6,3.3-8.5,7.6c-1.2,5.8-4.7,14.1,1.3,16.8c6.8,3,5.5-6.4,7.8-10.2
			c1-1.7,0-5.2,3.1-5.2c3.1,0,2.6,3,2.8,5.1c0.5,4.3-0.7,10.6,4.9,10.9c4.7,0.3,5.9-5.8,7.6-9.8c0.8-1.9,1.7-3.9,3-6.6
			c-0.2-2.1-0.4-4.2-0.4-6.3c0-1.1,0.7-1.7,1.6-1.8c0-0.6,0.1-1.2,0.1-1.8c-0.2-1.4-0.4-2.9-0.7-4.3c-0.2-1,0.3-1.7,1-2.1
			c0.6-1.8,3.7-1.5,3.6,0.6c0,1.9-0.1,3.8-0.2,5.7c0.9,6.8,0.8,13.8-0.1,20.6c0.5,5.2,0.6,10.4-0.7,15.5c-0.4,1.6-2.3,1.6-3.2,0.7
			c-0.3,3.4-0.4,6.7-0.4,10.1c0,2.4-3.7,2.4-3.7,0c0-6.3,0.6-12.5,1.4-18.7c-1.2,1.6-2.7,2.9-4.6,3.9c-0.9,0.5-1.9,0.9-2.9,1.1
			c0.6,0.3,1.3,0.5,1.9,0.7c2.3,0.8,1.3,4.4-1,3.6c-0.5-0.2-1-0.4-1.5-0.6c0.3,1.2-0.6,2.8-2.2,2.4c-3.7-1-6.9-2.8-8.7-6
			c-1.8,1.5-3.7,2.9-5.8,3.9c-0.7,0.4-1.4,0.3-1.9-0.1c-0.4,0.1-0.9,0.2-1.3,0.3c-2.4,0.5-3.4-3.1-1-3.6c2-0.4,3.9-1.1,5.5-2
			c-1.3-0.1-2.6-0.3-3.9-0.3c0,0.3-0.1,0.6-0.2,0.9c-0.5,0.9-1.7,1.1-2.5,0.7c-1.1-0.6-2-1.3-2.5-2.4C235.1,227.1,235,217.6,236,212
			z M45.3,182.2c11,1.4,22,3,32.6,5.9c7.3,1.9,14,5.7,14.8,15.3c1.1,13-3.4,23.9-15.1,28.3c-12.6,4.9-26.4,4.9-39-1.9
			c-2.9-1.5-9.5-2.3-6.7-7.3c2.4-4.3,6.6,0.3,9.9,1.6c12.6,4.7,24.8,6.8,37.4-0.8c7.6-4.5,10.2-11.2,8.8-18.5
			c-1.6-8-9-10.3-16.8-11.5c-9.9-1.6-19.9-2.1-29.9-4.7c-15.9-4.2-24.5-13.5-25.3-28.4c-0.9-16.1,8-28.4,21.5-37.2
			c9.6-6.3,20.2-7.4,29.1-6.7c26,0,39.6,10.1,39.4,27.7c0,2.7,1,7.1-2.5,7.3c-4,0.3-2.9-4.2-2.9-6.8c0.1-12.6-7.7-18.3-18.5-20.7
			c-21.1-4.7-40.5-0.8-54.6,16.3C12.9,158,22.7,179.3,45.3,182.2z M105.3,195c5.1-3.6,8.9-0.7,9.9,4.5c1.4,6.7,1.1,13.3-3.3,19.3
			c-1.3,1.8-6.8,4.7-1.3,7.4c3.4,1.6,7.8,1.3,9.8-3.4c3-7.1,5.7-14.2,8.6-21.3c1.5-3.7,1.8-9.7,7-8.9c4.7,0.7,4.2,6.5,4.6,10.5
			c0.3,3.2,0.1,6.4,0.1,12.2c2.4-4.6,3.9-7,4.9-9.6c1.9-4.8,4.3-11.2,9.6-9.8c5,1.3,4.7,8.2,5,13.4c0.4,5.6-3.6,15,2.7,16.1
			c6.1,1,7.5-8.8,10-14.5c3-7,5.5-14.3,13.6-17.4c3.6-1.4,1.8-4.1,1.5-6.5c-1.8-16.4,0-32.6,3.1-48.7c0.8-4.2,1.4-10.2,7.4-9.3
			c5.3,0.7,5.6,6.4,5.9,10.8c1,18.1-1,35.9-5.3,53.4c-0.4,1.6-0.6,3.1-0.9,4.7c-2.1,9.7-5.8,23.1,3.3,27.1c6.7,3,7.9-12.1,14.3-21.2
			c0.7,13.8-1.9,24-11.7,29c-8.3,4.2-7.6-7.1-12.4-10c-4.3,4.9-6.4,17.4-17.4,6.4c-0.6-0.6-2.4-0.4-3.5,0
			c-14.4,5.5-16.3,4-16.4-13.5c0-3.5,2.2-9.4-1.6-10.1c-3.5-0.6-3.6,5.8-5.3,9.1c-3.1,5.9-2.7,17.5-9.9,16.5
			c-6.1-0.9-1.5-11.7-2.5-18c-0.4-2.5-0.1-5.1-0.1-10.2c-5.2,10.2-7.3,19.3-12.9,26.7c-4.7,6.1-9.8,5.9-15.1,2.9
			C98.7,227.5,97.5,200.5,105.3,195z M178.9,251.6c-2.4,0-2.4-3.7,0-3.7C181.4,247.8,181.4,251.6,178.9,251.6z M523.5,343.3
			c-12.3,1.7-24.5,3.7-36.8,5.7c-0.2,0.2-0.5,0.4-0.8,0.5c-0.5,0.2-1,0.3-1.5,0.5c0,0.7-0.3,1.4-0.9,1.7c2.1,0.1,4.1,0.2,6.2,0.3
			c6.4-1.2,12.8-1.9,19.3-1.1c1.1,0.1,2,1.3,1.9,2.3c0.1,0-0.8,0-0.6,0c2.4,0.2,2.5,3.8,0,3.8c-2.4,0-4.7,0-7.1,0
			c-0.6,0.3-1.3,0.5-2,0.8c1.4,0.2,2.7,0.3,4.1,0.5c2,0.2,2.7,3.1,0.5,3.7c-28.5,8.3-58.2,11.8-87.8,13.5c-2.2,0.1-2.6-3.3-0.5-3.7
			c1.6-0.4,3.2-0.8,4.9-1.1c-0.8-0.1-1.5-0.2-2.3-0.3c-2-0.3-1.6-3.1,0-3.6c2.8-0.9,5.7-1.7,8.6-2.4h-9.7c0,0-1.3-1-1.6-1.6
			c-4.3,0.2-8.5,0.4-12.8,0.4c-0.3,0-0.6,0.1-0.9,0.1c-0.3,0-0.8,0-0.8,0s-0.4,0-0.7,0c-17.5,3.1-35,6.1-52.6,8.7
			c-1.9,0.3-3-2.3-1.9-3.3c-3.6,0.3-7.2,0.5-10.8,0.7c-34.6,1.7-69.2-0.1-103.7-1.1c-1,0-1.6-0.9-1.8-1.7c-3,0-5.9,0-8.8-0.1
			c-0.9,0-1.6-0.7-1.8-1.5c-2.6,0.2-5.2,0.5-7.9,0.7c-1,0.1-1.6-0.7-1.8-1.6c-2.8-0.2-5.6-0.4-8.3-0.6c-0.2,0.9-0.4,1.9-0.6,2.8
			c-0.1,0.6-0.3,1.4-0.3,1.6c-0.1,2.5-3.8,2.6-3.7,0c0-0.8,0.1-1.5,0.1-2.3c-0.7-0.1-1.5-0.6-1.7-1.4c-0.1-0.3-0.1-0.6-0.2-0.9
			c-0.2,0-0.4,0-0.6,0c-1.9,0-2.3-2.6-1.1-3.5c-0.1-0.5-0.1-1-0.2-1.5c0,0-0.1,0-0.1,0s-0.4,1.2-0.6,1.7c-0.9,2.2-4.1,1.4-3.6-0.9
			c-8.1,1.2-16.3,1.6-24.5,1.7c-0.1,0.6-0.5,1.2-1.3,1.3c-9.4,1.9-18.9,3.8-28.5,4.5c-6,0.8-12,1.6-18,2.7c-2.4,0.4-3.4-3.1-1-3.6
			c3.2-0.7,6.4-1.3,9.5-1.9l0,0c1.8-1.7,3.8-3.1,6-4.2c-2.7-0.2-5.4-0.3-8-0.5c-0.2,0.3-0.5,0.5-0.9,0.7c-0.2,0.1-0.4,0.1-0.7,0.2
			c-0.4,0.5-1.1,0.7-1.8,0.6c-0.4,0.1-0.8,0.3-1.2,0.4c0.1,0.8,0.2,1.7,0.2,2.5c0,2.1-3.3,2.6-3.7,0.5c-0.1-0.5-0.1-0.9-0.2-1.4
			c-0.7,0.9-1.4,1.7-1.9,2.7c-1.2,1.9-3.8,0.6-3.4-1.4c0.4-1.8,0.7-3.7,1.2-4.7h-0.4c-1.3-0.9-1.9-2-1.8-3c-1.4,1.3-4-0.4-2.9-2.3
			c1.2-2.1,2.9-3.7,4.8-5.1c0.2-0.9,0.4-1.8,0.6-2.7c-0.3,0-0.6,0.1-0.8,0.1c-2.2,0.4-3.1-2.1-1.5-3.4c1.2-0.9,2.4-1.7,3.7-2.4
			c0.1-0.2,0.1-0.4,0.2-0.6c-1,0-2,0-3,0c-1.6,0-2.5-2.1-1.3-3.2c0.2-0.2,0.4-0.4,0.7-0.6c-0.7-1-0.5-2.8,0.9-3
			c1.6-0.3,3.1-0.5,4.7-0.7c5.3-2.7,11.3-4,16.9-5.7c2-0.6,3.4,2.5,1.5,3.4c-1.7,0.7-3.4,1.4-5,2.1c4.7-0.6,9.4-1.3,14-2.3
			c0.6-0.1,1.2,0,1.6,0.4c0.1,0,0.3,0,0.4-0.1c4.5-1.5,9.3-2.1,13.9-2.7c1.9-0.3,2.9,1.8,2,3c1.1-0.1,2.3-0.3,3.4-0.4
			c3.3-0.7,6.5-1.2,9.8-1.8c0.8-0.1,1.4,0.2,1.8,0.6c16.9-0.7,33.8-0.7,50.8-0.7c1.4,0,1.9,1.2,1.8,2.2c6.4-0.6,12.7-0.6,19.1-0.6
			c0.4,0,0.7,0.1,1,0.3c0.2-0.1,0.4-0.2,0.7-0.2c7.6-0.7,15.1-1.2,22.7,0c3.9-0.1,7.7-0.1,11.5-0.1c3.4-0.4,6.8-0.7,10.2-0.7
			c8.2-0.2,16.3,0.3,24.4,0.8c0.9,0,1.5,0.6,1.7,1.3c2-0.4,4.1-0.7,6.1-1c10.8-1.5,22-2.1,32.7,0.5c0.5,0.1,0.9,0.4,1.1,0.7
			c4-0.6,8-1.1,12-1.6c1-0.1,1.7,0.7,1.8,1.6c3.9-0.3,7.9-0.6,11.8-0.8c1.7-0.1,2.1,1.6,1.5,2.8c0.1,0,0.3-0.1,0.5-0.1
			c0.1-0.3-0.1-0.8-0.1-0.8s0,0.6,0,0.9c10.4-2.4,21.4-2.7,32-2.7c1.1,0,1.7,0.8,1.8,1.6c4-1.1,8.1-1.9,12.1-2.3c0.1,0,0.2,0,0.3,0
			c4.2-0.3,8.4-0.2,12.7,0.8c0.4,0.1,0.8,0.3,1,0.6c0.5,0,0.9,0,1.4,0c1,0,1.7,0.8,1.8,1.7c1.1-0.1,2.1-0.2,3.2-0.3
			c1.3-0.1,2,1.1,1.8,2.3c0.6,0,1.2-0.1,1.8-0.1c0.2-0.4,0.6-0.8,1.1-1c3-1,5.8-2,9-2.1c0.3,0,0.5,0,0.7,0.1c2-0.7,4.1-1.1,6.2-1.3
			c0.2-0.3,0.5-0.6,1-0.7c7.7-2.2,16.1-3,24.1-2.2c2.1,0.2,2.6,3,0.5,3.7c-1.4,0.5-2.9,0.9-4.3,1.3c0,0.7-0.4,1.4-1.4,1.5
			c-1.7,0.3-3.6,0.5-5.4,0.5c0.6,1.1,0.1,2.9-1.6,3.1c-1.6,0.2-3.2,0.3-4.9,0.5c0.8,0.1,1.4,0.7,1.6,1.4c1.4,0.1,1.8,1.7,1.2,2.8
			c12.4-1,24.9-1.8,37.4-2.5C525.1,339.4,525.6,343,523.5,343.3z M524.7,397.9c-2.4,0-2.4-3.7,0-3.7
			C527.1,394.2,527.1,397.9,524.7,397.9z M590.2,222.6c-3.3,5.2-5,12.1-13.6,11.6c-7.9-0.5-9.1-6.5-11.8-12
			c-2.6-5.2-9.7-5.4-14.1-9.5c-2.1-1.9-1.5,5.4-3.5,8.1c-4.9,6.7-6.9,24.9-16.8,2.4c-2.2-5.1-10.1-1.4-13.4,2.5
			c-6.2,7.5-11.7,14-20.1,2.7c-1.8-2.5-4-1.5-5.6,0.6c-9.6,11.9-15.5,3.3-17.3-4.9c-7-32.3-7.6-64.8,0.8-97.1c0.9-3.6,1.6-8.8,6.5-8
			c5.4,0.9,6.8,6.1,7.2,11.1c1.8,22.8-2.3,44.7-9.5,66.2c-1,3-2.7,6-3,9.1c-0.5,7.7-0.7,17.8,6.8,20.1c6.4,2,8.7-7.7,10.4-13.5
			c2.4-8.8,7.7-14.8,16-16.9c10.3-2.5,7.6,7.4,9.9,12.3c1.3,2.7-1.6,7.8,2.3,8.3c4.7,0.6,5.1-4.8,6-8.4c1.1-4.2,1.9-8.4,2.8-12.5
			c0.6,0.1,1.2,0.2,1.8,0.3c0.9,7.9,1.6,15.8,2.7,23.6c0.3,2.4,0.4,6,3.3,5.9c1.5-0.1,3.7-3.6,4.2-5.8c1.7-7.1,2.7-14.4,4.1-21.6
			c0.3-1.4,0.9-3.8,1.6-4c2.8-0.5,2.3,2.4,3,3.9c1.2,3,2.3,6,3.2,9.1c0.8,2.7,2.2,4.7,5.3,4.6c2.7-0.1,3.4-2.2,4.5-4.3
			c2.6-5,1.9-16.2,10.9-11.8c8.2,4,5,13.7,2.4,21.5c-1.1,3.3-8.6,6.5-2.9,9.8c5.9,3.5,9.1-1.8,11.9-7.3c2.1-4.1,3.8-13.6,7-11.4
			C597.9,210.4,593.3,217.7,590.2,222.6z"/>
		<path class="st0" d="M444.8,363.8c-4.5,0.9-8.9,1.8-13.4,2.9c1.4,0,2.8,0,4.2,0c3-0.7,6-1.5,9.1-2.2
			C444.6,364.2,444.7,364,444.8,363.8z"/>
		<path class="st0" d="M401.2,343.4c-1.8,0-3.5-0.1-5.3-0.1c0.4,0.1,0.9,0.2,1.3,0.3C398.5,343.4,399.9,343.4,401.2,343.4z"/>
		<path class="st0" d="M371,364.2c-1.3,0.1-2.5,0.2-3.8,0.3c0,0.1,0,0.2-0.1,0.3C368.4,364.6,369.7,364.4,371,364.2z"/>
		<path class="st0" d="M488.9,361c0,0.2,0.1,0.4,0,0.6c1.9-0.4,3.7-0.9,5.6-1.3c-0.8-0.1-1.7-0.1-2.5-0.2
			C490.9,360.4,489.9,360.7,488.9,361z"/>
		<path class="st0" d="M258.6,336.2c-3.4,0-6.8,0-10.1,0.1c-1.6,0.6-3.2,1.4-4.7,2.2C248.7,338,253.7,337.1,258.6,336.2z"/>
		<path class="st0" d="M223.5,331.4c-0.9,0-1.8,0-2.6,0c0.5,0,1,0.1,1.5,0.1C222.7,331.4,223.1,331.4,223.5,331.4z"/>
		<path class="st0" d="M185.8,341.2c-0.3,0.1-0.7,0.2-1,0.3c0.9-0.1,1.8-0.1,2.7-0.2C186.9,341.3,186.4,341.3,185.8,341.2z"/>
		<path class="st0" d="M190.4,349.7c0.8-0.3,1.5-0.6,2.3-0.9c0-0.5,0-1,0-1.5c-0.2,0-0.4,0.1-0.7,0.1c-1.5,0.2-2-1.2-1.7-2.4
			c-0.2,0-0.5,0-0.7,0c-0.2,0-0.4-0.1-0.6-0.1c-3,0.3-5.9,0.5-8.9,0.7c-0.1,0.3-0.4,0.6-0.7,0.8c-2.1,1-4.2,1.9-6.4,2.6
			c0,0,0,0.1,0,0.1c2.1,0,4.2,0.1,6.2,0.2c1.5,0.1,2,1.3,1.7,2.3C184.1,350.8,187.3,350.2,190.4,349.7z"/>
		<path class="st0" d="M207.4,338.8c0.4-0.1,0.8-0.1,1.2-0.2c0.4-0.1,0.7-0.3,1.1-0.4c-0.7-0.1-1.5-0.1-2.3-0.2
			C207.5,338.3,207.5,338.6,207.4,338.8z"/>
		<path class="st0" d="M237.6,355.9c-0.5,0-1.1,0.1-1.6,0.1c0.5,0,1,0,1.6,0C237.6,356,237.6,356,237.6,355.9z"/>
		<path class="st0" d="M274.2,352.5C274.2,352.6,274.2,352.6,274.2,352.5c-0.1,0.1-0.1,0.1-0.1,0.2c1.3,0,2.6,0,3.9,0
			c0.6-0.1,1.3-0.1,1.9-0.2c-0.2,0-0.3-0.1-0.5-0.1C277.6,352.5,275.9,352.5,274.2,352.5z"/>
		<path class="st0" d="M236.3,346.2c0.7,0,1.5,0.1,2.3,0.1c-0.1-0.1-0.1-0.3-0.2-0.5C237.7,346,237,346.1,236.3,346.2z"/>
		<path class="st0" d="M254.2,344c-0.7,0.1-1.5,0.3-2.2,0.4c3.6,0,7.1,0,10.7-0.2c1-0.1,2.1-0.3,3.1-0.5
			C261.8,343.8,258,343.8,254.2,344z"/>
		<path class="st0" d="M280.9,365.2c-0.3,0-0.6,0-0.9,0c-0.3,0-0.5-0.1-0.7-0.2c0,0.1-0.1,0.1-0.1,0.2
			C279.8,365.2,280.3,365.2,280.9,365.2z"/>
		<path class="st0" d="M313.8,363c-0.1-0.4-0.2-0.7-0.1-1.1c-0.1,0-0.1,0-0.2,0c-2.2,0.3-4.5,0.5-6.8,0.7c-0.9,0.1-1.5-0.4-1.7-1.2
			c-0.5,0.1-1,0.1-1.6,0.2c0.1,0.3,0.1,0.7,0,1C306.9,362.8,310.4,363,313.8,363z"/>
		<path class="st0" d="M268.4,364.3c-2.6,0.1-5.2,0.2-7.8,0.3c0.5,0,1,0,1.6,0c2.8,0.1,5.7,0.2,8.6,0.3
			C270.1,364.8,269.2,364.6,268.4,364.3z"/>
		<path class="st1" d="M449.3,203.3c1.6,14.3-3.7,23.8-11.7,29.2c-9.5,6.4-13.6-3.4-17.4-10.4c-5.4,4.2-6.5,17.1-17.3,10
			c-4-2.6-5.4-9-8-13.6c-1.4,2.7-2.7,5.6-4.4,8.3c-5.2,8-10.9,10.3-16.1,0.1c-3.3-6.4-5.6-6.5-9,0c-5.9,11.1-11.9,7.4-16.5-0.9
			c-3.1-5.6-4.7-7-7.2,0c-1.6,4.5-4.3,7.7-9.6,8.2c-5.4,0.5-7.6-2.9-8.9-7.1c-1.6-5.4-3-1.8-4.3,0c-2.6,3.6-4.6,8.1-10.3,6.9
			c-5.6-1.2-7.7-6.1-8.6-10.5c-6.4-31.8-7.1-63.6,0.7-95.3c1-4,1.3-10.5,7.5-9.2c5,1.1,6.3,6.5,6.7,11.6
			c1.7,23.1-2.5,45.4-10.1,67.1c-3.7,10.7-5.6,24.4,5.2,27.3c7.8,2.1,9.3-13.6,12.5-21.9c1.3-3.4-1.5-10.3,2.5-9.8
			c6,0.7,1,6.8,1.6,10.5c0.2,1.6-0.2,3.3,0,4.8c1,6.7-3.1,18.9,5.9,18.1c7.7-0.6,11.8-13.1,10.7-22.1c-1.5-12.2-2.3-24.6-0.4-36.4
			c1.8-11.1-2.5-11.7-10.8-11.1c-2.7,0.2-7.8,2.1-7.7-2.6c0-4.1,4.9-3,8-3c7,0,14.6,1.6,16-8.8c0.1-1.1,2.8-2.5,4.4-2.6
			c2.5-0.2,4.2,1.6,4.6,4.1c0.5,4,0.8,7.5,6.5,7.3c4.5-0.2,6.4-2.4,7.4-6.1c0.8-3,2.2-5.4,5.8-5.4c4.2,0,5.5,2.9,5.7,6.4
			c0.2,4.3,2.7,5.1,6.4,5.2c4.4,0.1,5.1-2.4,5.7-6c1.1-6.6,2.3-13.3,4.4-19.6c1-3,2.6-7.3,6.9-7c4.9,0.4,5.1,5,5.9,8.7
			c4.5,22.9-1.5,44.5-7.8,66c-2.5,8.6-6.2,17-2.1,26.1c1.3,2.8,1.6,6.5,5.7,6.8c4.2,0.3,5.6-3.4,6.8-5.9c2.8-6.1,4.6-12.6,6.8-19
			c1.4-4,2.4-8.8,8-7.7c5.5,1.2,7.3,5.9,7.2,11c-0.1,5.2-2.8,9.7-5.4,14.2c-1.2,2-5.9,4.3-1.7,6.8c2.8,1.8,7.3,2.1,9.5-1.7
			C441.9,218.4,444.7,212.4,449.3,203.3z M394.2,168.2c-1.6-4.2,3-10.8-5.6-11.1c-8.3-0.3-5.5,6-6.1,10.2c-0.4,2.5-0.7,5-1.1,7.6
			c-2.2,13.5-4.7,27-6.4,40.6c-0.6,4.5,1.9,9.4,6.7,10.5c5.1,1.2,5.2-4.4,7.2-7.4C399.5,202.6,390,184.6,394.2,168.2z M367.3,180.9
			c0-5.5-0.1-10.6,0-15.7c0.1-3.1,3.5-7.3-2.9-7.9c-5.7-0.6-6.7,2.9-7.2,7.7c-1.1,10.8-2.4,21.6-4.4,32.3
			c-1.2,6.8-5.5,13.2-2.1,20.5c1.5,3.3,1.5,8.3,6.5,8.4c4.6,0,5.7-4.5,7.4-7.8C371.2,206.1,364.8,193.1,367.3,180.9z M299.8,193.6
			c8.9-22.3,12.3-41.4,10.7-61.3c-0.2-2.4-0.1-6.4-3.7-6.6c-1,0-2.7,4-3.1,6.4C300.4,151.1,298.6,170.1,299.8,193.6z M349.6,196.2
			c1.3-11.3,2.7-22.6,3.9-34c0.2-1.8,0.1-4.3-2.4-4.4c-1-0.1-3,1.5-3.1,2.5C346.7,172.2,344.4,184.1,349.6,196.2z M370.4,196.8
			c5.8-10.4,7.6-21.6,8.1-33c0.1-2.3,1-5.9-2.7-6.1c-3.7-0.2-3.3,3.5-3.4,5.8C371.5,174.6,371,185.7,370.4,196.8z M397.9,191
			c0.6,0.2,1.3,0.4,1.9,0.6c2.1-9.2,4.1-18.4,6.3-27.5c0.7-3.1,2.5-6.5-3-6.9c-4.5-0.3-5.3,2.4-5.3,6
			C397.9,172.4,397.9,181.7,397.9,191z M404.9,125.1c-5,7-4.4,14.8-5.9,22.1c-0.5,2.4,0.4,3.7,2.7,3.9c2.5,0.1,5.7,0.3,5.7-3.3
			C407.5,140.4,409.6,132.7,404.9,125.1z M431,205.5c-1-1.5,0.3-5.8-2.4-4.8c-4.6,1.7-4.2,7.3-5.1,11.4c-0.3,1,1.5,3.6,1.8,3.6
			C430.2,214.1,430,209.7,431,205.5z M378.5,149c-0.7-1.1-1.1-1.8-1.6-2.5c-0.7,0.5-1.8,1-1.8,1.6c-0.1,0.7,0.6,1.5,1,2.3
			C376.9,149.9,377.6,149.5,378.5,149z M353.6,148.9c-0.6-0.9-1.1-1.5-1.5-2.1c-0.6,0.6-1.5,1.1-1.7,1.8c-0.1,0.5,0.7,1.3,1.2,1.9
			C352.1,150,352.7,149.5,353.6,148.9z"/>
		<path class="st1" d="M532.3,195c0.9,7.9,1.6,15.8,2.7,23.6c0.3,2.4,0.4,6,3.3,5.9c1.5-0.1,3.7-3.6,4.2-5.8
			c1.7-7.1,2.7-14.4,4.1-21.6c0.3-1.4,0.9-3.8,1.6-4c2.8-0.5,2.3,2.4,3,3.9c1.2,3,2.3,6,3.2,9.1c0.8,2.7,2.2,4.7,5.3,4.6
			c2.7-0.1,3.4-2.2,4.5-4.3c2.6-5,1.9-16.2,10.9-11.8c8.2,4,5,13.7,2.4,21.5c-1.1,3.3-8.6,6.5-2.9,9.8c5.9,3.5,9.1-1.8,11.9-7.3
			c2.1-4.1,3.8-13.6,7-11.4c4.6,3.1-0.1,10.5-3.2,15.3c-3.3,5.2-5,12.1-13.6,11.6c-7.9-0.5-9.1-6.5-11.8-12
			c-2.6-5.2-9.7-5.4-14.1-9.5c-2.1-1.9-1.5,5.4-3.5,8.1c-4.9,6.7-6.9,24.9-16.8,2.4c-2.2-5.1-10.1-1.4-13.4,2.5
			c-6.2,7.5-11.7,14-20.1,2.7c-1.8-2.5-4-1.5-5.6,0.6c-9.6,11.9-15.5,3.3-17.3-4.9c-7-32.3-7.6-64.8,0.8-97.1c0.9-3.6,1.6-8.8,6.5-8
			c5.4,0.9,6.8,6.1,7.2,11.1c1.8,22.8-2.3,44.7-9.5,66.2c-1,3-2.7,6-3,9.1c-0.5,7.7-0.7,17.8,6.8,20.1c6.4,2,8.7-7.7,10.4-13.5
			c2.4-8.8,7.7-14.8,16-16.9c10.3-2.5,7.6,7.4,9.9,12.3c1.3,2.7-1.6,7.8,2.3,8.3c4.7,0.6,5.1-4.8,6-8.4c1.1-4.2,1.9-8.4,2.8-12.5
			C531.1,194.8,531.7,194.9,532.3,195z M512,214.9c-5.3-0.1-4-5-5.4-7.7c-1.1-2.2-2.3-5-4.3-2.1c-3.7,5.3-5.2,11.5-2.4,18.1
			c1.4,3.3,3.3,5.6,7.2,4.5C514.6,225.7,510.9,219.4,512,214.9c7.6-4.7,0.1-9.4,1.3-17C508.1,205.5,513,210.2,512,214.9z
			 M473.9,193.8c8.7-23.1,12.9-42.7,10.1-63.3c-0.2-1.7-0.1-5.2-3.2-4.9c-1,0.1-2.3,2.9-2.6,4.6
			C474.2,149.8,472.6,169.6,473.9,193.8z M575.7,206.5c-0.4-2.6,0.7-6.8-2.7-6.3c-4.6,0.6-4.3,5.7-4.7,9.3c-0.3,2.2-1.4,6.6,2.1,6.1
			C574.6,215,574.9,210,575.7,206.5z"/>
		<path class="st1" d="M215.9,203.6c0.7,13.8-1.9,24-11.7,29c-8.3,4.2-7.6-7.1-12.4-10c-4.3,4.9-6.4,17.4-17.4,6.4
			c-0.6-0.6-2.4-0.4-3.5,0c-14.4,5.5-16.3,4-16.4-13.5c0-3.5,2.2-9.4-1.6-10.1c-3.5-0.6-3.6,5.8-5.3,9.1c-3.1,5.9-2.7,17.5-9.9,16.5
			c-6.1-0.9-1.5-11.7-2.5-18c-0.4-2.5-0.1-5.1-0.1-10.2c-5.2,10.2-7.3,19.3-12.9,26.7c-4.7,6.1-9.8,5.9-15.1,2.9
			c-8.4-4.8-9.6-31.7-1.8-37.3c5.1-3.6,8.9-0.7,9.9,4.5c1.4,6.7,1.1,13.3-3.3,19.3c-1.3,1.8-6.8,4.7-1.3,7.4
			c3.4,1.6,7.8,1.3,9.8-3.4c3-7.1,5.7-14.2,8.6-21.3c1.5-3.7,1.8-9.7,7-8.9c4.7,0.7,4.2,6.5,4.6,10.5c0.3,3.2,0.1,6.4,0.1,12.2
			c2.4-4.6,3.9-7,4.9-9.6c1.9-4.8,4.3-11.2,9.6-9.8c5,1.3,4.7,8.2,5,13.4c0.4,5.6-3.6,15,2.7,16.1c6.1,1,7.5-8.8,10-14.5
			c3-7,5.5-14.3,13.6-17.4c3.6-1.4,1.8-4.1,1.5-6.5c-1.8-16.4,0-32.6,3.1-48.7c0.8-4.2,1.4-10.2,7.4-9.3c5.3,0.7,5.6,6.4,5.9,10.8
			c1,18.1-1,35.9-5.3,53.4c-0.4,1.6-0.6,3.1-0.9,4.7c-2.1,9.7-5.8,23.1,3.3,27.1C208.3,227.8,209.5,212.7,215.9,203.6z M199.2,131.1
			c-9.1,22.5-5.3,41.6-5.2,60.3C198.6,173.1,202.6,154.8,199.2,131.1z M177.6,217.4c0.6,3.1,0.6,9.6,4.8,8.1
			c6.8-2.5,6.2-11.1,8-17.3c0.7-2.4-0.4-8.5-3.4-7.4C180.1,203.1,177.9,209.9,177.6,217.4z M112,205.3c-1.1-1.5,0.7-6.1-3.2-5
			c-4.2,1.1-4.1,6-4.3,9.7c-0.1,2-1.6,6.5,2.5,5.5C110.9,214.4,111.4,209.6,112,205.3z"/>
		<path class="st1" d="M589.4,38.7c0,11.7-1.7,21.2-7.8,29.7c-8.8,12.2-23.2,12.5-32.6,0.3c-11.8-15.3-9.7-45.3,4-58.7
			c7.4-7.3,22.8-4.4,30.2,5.8C588.5,23.1,590,31.5,589.4,38.7z M581.6,39.3c0-5.8-1.6-10.7-7.3-13.3c-2.5-1.2-4.9,4.3-7.9-0.4
			c-7.2-11.2-12-3.3-13.9,3.3c-3.6,12.2,5,22.4,8.4,33.4c0.1,0.4,2,0.9,2.2,0.6C569.6,55.4,581.8,52.2,581.6,39.3z"/>
		<path class="st1" d="M66.5,116.4c26,0,39.6,10.1,39.4,27.7c0,2.7,1,7.1-2.5,7.3c-4,0.3-2.9-4.2-2.9-6.8
			c0.1-12.6-7.7-18.3-18.5-20.7c-21.1-4.7-40.5-0.8-54.6,16.3c-14.6,17.8-4.8,39.1,17.8,42c11,1.4,22,3,32.6,5.9
			c7.3,1.9,14,5.7,14.8,15.3c1.1,13-3.4,23.9-15.1,28.3c-12.6,4.9-26.4,4.9-39-1.9c-2.9-1.5-9.5-2.3-6.7-7.3
			c2.4-4.3,6.6,0.3,9.9,1.6c12.6,4.7,24.8,6.8,37.4-0.8c7.6-4.5,10.2-11.2,8.8-18.5c-1.6-8-9-10.3-16.8-11.5
			c-9.9-1.6-19.9-2.1-29.9-4.7c-15.9-4.2-24.5-13.5-25.3-28.4c-0.9-16.1,8-28.4,21.5-37.2C47,116.8,57.7,115.7,66.5,116.4z"/>
		<path class="st1" d="M272.3,209.3c-1.3,2.7-2.2,4.7-3,6.6c-1.7,4-3,10.1-7.6,9.8c-5.7-0.3-4.5-6.6-4.9-10.9
			c-0.3-2.1,0.3-5.2-2.8-5.1c-3.1,0-2,3.4-3.1,5.2c-1.8,3-1.4,9.2-4.3,10.5c-0.4,0.4-1.2,0.6-1.8,0.5c-1.6-0.3-3.4-1-4.2-2.4
			c-0.3-0.5-0.5-1.1-0.5-1.6c-0.1-0.2-0.1-0.5-0.1-0.7c-0.8-3.7,1.1-8.8,1.9-12.8c0.9-4.3,4-7.6,8.5-7.6c2.3,0,4.6,4.2,7.5,1.2
			c1.7-1.8-0.1-3.3-1.3-4.9c-2.5-3.3-6-4.6-9.3-3.1c-7.6,3.3-9.7,10.9-11,18c-1,5.6-0.9,15,1.6,18c-0.3-0.6-0.5-1.3-0.5-2.1
			c0-1,0.9-1.8,1.9-1.9s1.9,0.9,1.9,1.9c0,0.2,0,0.4,0,0.1c0,0,0,0.1,0,0.3c0,0,0,0.1,0.1,0.1c0.1,0.1,0.2,0.2,0.3,0.3l0,0
			c0.3,0.2,0.6,0.3,0.8,0.5c0.6,0.3,0.9,1,0.9,1.6c1.3,0,2.6,0.1,3.9,0.3c1.7-1,3.2-2.4,4.4-4.2c0,0,0-0.1,0.1-0.1
			c-0.2-1.8,2.4-3.1,3.4-1.2c1.8,3.4,4.8,5.4,8.2,6.8c1-0.2,2-0.6,2.9-1.1c1.8-1,3.3-2.3,4.6-3.9c0.7-5.3,1.4-10.7,2.1-16.1
			C272.4,210.7,272.3,210,272.3,209.3z"/>
		<path class="st1" d="M330.3,170.1c-0.3,3.7-0.3,8.4-4.4,8.3c-2.8,0-5.5-3.6-5.3-7.8c0.1-3.6,1.2-6.6,4.9-6.9
			C330.2,163.4,329.9,167.4,330.3,170.1z M325.6,169.9c-0.3,0.5-0.8,1-0.8,1.5c0,0.5,0.4,1,0.6,1.5c0.3-0.4,0.8-0.9,0.8-1.4
			C326.3,171,325.8,170.5,325.6,169.9z"/>
		<path class="st0" d="M394.2,168.2c-4.2,16.4,5.3,34.3-5.4,50.4c-2,3-2.1,8.6-7.2,7.4c-4.8-1.1-7.3-6-6.7-10.5
			c1.7-13.6,4.2-27.1,6.4-40.6c0.4-2.5,0.7-5,1.1-7.6c0.6-4.2-2.2-10.5,6.1-10.2C397.2,157.4,392.5,164.1,394.2,168.2z"/>
		<path class="st0" d="M367.3,180.9c-2.5,12.2,3.9,25.2-2.5,37.5c-1.7,3.3-2.8,7.9-7.4,7.8c-5,0-4.9-5-6.5-8.4
			c-3.4-7.3,0.8-13.7,2.1-20.5c1.9-10.7,3.3-21.5,4.4-32.3c0.5-4.9,1.5-8.3,7.2-7.7c6.4,0.6,3,4.7,2.9,7.9
			C367.2,170.2,367.3,175.4,367.3,180.9z"/>
		<path class="st0" d="M299.8,193.6c-1.2-23.5,0.6-42.6,3.8-61.5c0.4-2.4,2.1-6.4,3.1-6.4c3.6,0.1,3.6,4.2,3.7,6.6
			C312.1,152.2,308.8,171.4,299.8,193.6z"/>
		<path class="st0" d="M349.6,196.2c-5.2-12.2-2.8-24-1.6-35.9c0.1-1,2.1-2.6,3.1-2.5c2.5,0.2,2.6,2.6,2.4,4.4
			C352.2,173.6,350.9,184.9,349.6,196.2z"/>
		<path class="st0" d="M370.4,196.8c0.6-11.1,1.1-22.2,1.9-33.3c0.1-2.2-0.2-6,3.4-5.8c3.7,0.2,2.8,3.7,2.7,6.1
			C378,175.2,376.2,186.4,370.4,196.8z"/>
		<path class="st0" d="M397.9,191c0-9.3,0-18.6,0-27.8c0-3.7,0.8-6.4,5.3-6c5.5,0.4,3.7,3.7,3,6.9c-2.2,9.2-4.2,18.4-6.3,27.5
			C399.2,191.4,398.6,191.2,397.9,191z"/>
		<path class="st0" d="M404.9,125.1c4.6,7.6,2.5,15.3,2.5,22.7c0,3.6-3.2,3.4-5.7,3.3c-2.4-0.1-3.2-1.5-2.7-3.9
			C400.5,139.9,399.9,132.1,404.9,125.1z"/>
		<path class="st0" d="M431,205.5c-1,4.3-0.9,8.7-5.8,10.2c-0.2,0.1-2-2.5-1.8-3.6c1-4.2,0.5-9.8,5.1-11.4
			C431.3,199.7,430,204,431,205.5z"/>
		<path class="st0" d="M378.5,149c-1,0.5-1.7,0.9-2.4,1.3c-0.4-0.8-1.1-1.6-1-2.3c0.1-0.6,1.2-1,1.8-1.6
			C377.5,147.2,377.9,147.9,378.5,149z"/>
		<path class="st0" d="M353.6,148.9c-0.9,0.6-1.5,1.1-2.1,1.6c-0.4-0.6-1.3-1.4-1.2-1.9c0.2-0.7,1.1-1.2,1.7-1.8
			C352.5,147.4,352.9,148,353.6,148.9z"/>
		<path class="st0" d="M473.9,193.8c-1.3-24.2,0.3-44,4.3-63.6c0.3-1.7,1.6-4.5,2.6-4.6c3.1-0.3,3,3.2,3.2,4.9
			C486.7,151.1,482.6,170.7,473.9,193.8z"/>
		<path class="st0" d="M511.9,214.9c-1,4.5,2.7,10.8-4.8,12.8c-3.9,1-5.8-1.3-7.2-4.5c-2.9-6.5-1.4-12.7,2.4-18.1
			c0.6-0.9,1.2-1.3,1.7-1.3c1,0,1.5,1.4,2.6,3.3C508.9,211.4,511.9,214.9,511.9,214.9L511.9,214.9z"/>
		<path class="st0" d="M575.7,206.5c-0.8,3.6-1.2,8.5-5.3,9.1c-3.5,0.5-2.4-3.9-2.1-6.1c0.5-3.6,0.2-8.7,4.7-9.3
			C576.4,199.7,575.3,203.9,575.7,206.5z"/>
		<path class="st0" d="M512,214.9c1-4.7-3.8-9.4,1.3-17C512.1,205.5,519.5,210.2,512,214.9C511.9,214.9,512,214.9,512,214.9z"/>
		<path class="st0" d="M199.2,131.1c3.4,23.7-0.6,42-5.2,60.3C193.8,172.6,190.1,153.6,199.2,131.1z"/>
		<path class="st0" d="M177.6,217.4c0.3-7.6,2.4-14.3,9.4-16.7c3-1,4.1,5.1,3.4,7.4c-1.8,6.2-1.2,14.8-8,17.3
			C178.2,227.1,178.3,220.6,177.6,217.4z"/>
		<path class="st0" d="M112,205.3c-0.6,4.4-1,9.2-5,10.2c-4.2,1-2.7-3.5-2.5-5.5c0.2-3.7,0.2-8.6,4.3-9.7
			C112.8,199.2,110.9,203.8,112,205.3z"/>
		<path class="st0" d="M581.6,39.3c0.3,12.9-11.9,16-18.5,23.6c-0.2,0.3-2.1-0.2-2.2-0.6c-3.3-11-11.9-21.2-8.4-33.4
			c1.9-6.7,6.7-14.5,13.9-3.3c3,4.7,5.4-0.7,7.9,0.4C580,28.7,581.6,33.5,581.6,39.3z"/>
		<path class="st0" d="M325.6,169.9c0.3,0.6,0.7,1.1,0.7,1.6c0,0.5-0.5,0.9-0.8,1.4c-0.2-0.5-0.7-1-0.6-1.5
			C324.8,170.9,325.3,170.4,325.6,169.9z"/>
	</g>
	<g>
		<g>
			<path class="st1" d="M245.8,227.5c-0.5-0.1-1,0.1-1.2,0.7c0,0,0,0.1,0,0.1c0,0,0,0.1,0,0.1c0,0,0,0.1-0.1,0.1l0,0
				c0,0-0.1,0.1-0.1,0.1l0,0c-0.1,0.1-0.2,0.1-0.3,0.2c0,0,0,0,0,0c-0.1,0-0.1,0-0.2,0.1c-0.1,0-0.1,0-0.2,0c0,0-0.1,0-0.1,0
				c-0.1,0-0.3,0-0.4,0c-0.1,0-0.1,0-0.2,0c0,0,0,0,0,0c0,0,0,0,0,0c0.1,0,0,0-0.1,0c-0.1,0-0.3-0.1-0.4-0.1c0,0-0.1,0-0.1-0.1
				c0,0,0,0-0.1,0c-0.1,0-0.1-0.1-0.2-0.1c0,0,0,0-0.1,0l0,0c-0.1-0.1-0.3-0.3-0.3-0.3c0,0,0-0.1-0.1-0.1c0-0.1-0.1-0.1-0.1-0.2
				c0-0.1-0.1-0.1-0.1-0.2c0,0,0-0.1,0-0.1c0,0,0-0.1,0-0.1l0,0c0,0,0-0.1,0-0.1c0-0.1,0-0.2-0.1-0.3c0-0.1-0.1-0.3-0.1-0.5
				c0,0,0-0.1,0-0.1c0-0.1,0-0.2,0-0.3c0-0.2,0-0.4,0-0.6c0-0.1,0-0.2,0-0.3c0,0,0-0.1,0-0.1c0-0.2,0.1-0.4,0.1-0.6
				c-0.4-0.3-0.8-0.7-1.1-1.2c-0.3,0.1-0.6,0.3-0.7,0.6c-0.5,1.9-0.4,3.9,0.8,5.5c1,1.3,2.9,1.8,4.4,1.2c0.9-0.4,1.6-1,1.9-2
				C246.6,228.1,246.3,227.6,245.8,227.5z"/>
			<path class="st1" d="M241.2,225.3L241.2,225.3L241.2,225.3z"/>
			<path class="st1" d="M241.2,225.4L241.2,225.4L241.2,225.4z"/>
			<path class="st1" d="M242.1,228.7L242.1,228.7L242.1,228.7z"/>
			<path class="st1" d="M242.2,228.7C242.2,228.7,242.2,228.7,242.2,228.7C242.2,228.7,242.2,228.7,242.2,228.7z"/>
			<path class="st1" d="M242.5,228.9L242.5,228.9L242.5,228.9z"/>
			<path class="st1" d="M242.5,228.9C242.6,228.9,242.6,229,242.5,228.9L242.5,228.9z"/>
		</g>
	</g>
	<g>
		<g>
			<path class="st2" d="M240.5,223.6c-0.1-0.1-0.1-0.1-0.2-0.3c-0.3-0.5-0.5-1.1-0.5-1.6c-0.1-0.1-0.1-0.3-0.1-0.5
				c-0.4,0-0.7,0.3-0.8,0.7c-0.4,2.3-0.3,4.7,0.5,6.9c0.1,0.5,0.6,0.8,1.2,0.7c0.4-0.1,0.8-0.7,0.7-1.2
				C240.6,226.8,240.4,225.2,240.5,223.6z"/>
		</g>
	</g>
	<g>
		<g>
			<path class="st1" d="M246.1,227.3c-0.4-0.5-0.8-1-1.3-1.5c-1.6-0.3-3.3-1-4.2-2.4c-0.3-0.5-0.5-1.1-0.5-1.6
				c-0.1-0.3-0.1-0.6-0.1-0.9c0-0.1,0-0.2,0-0.3c-0.2,0-0.4,0.1-0.6,0.3c-0.4,0.4-0.3,0.9,0,1.3c1.8,2.2,3.6,4.4,5.3,6.6
				c0.3,0.4,1,0.3,1.3,0C246.5,228.3,246.4,227.8,246.1,227.3z"/>
		</g>
	</g>
	<g>
		<g>
			<path class="st1" d="M239,220.8L239,220.8c-0.1,0-0.1,0-0.2-0.1c-0.3,0-0.6,0.1-0.7,0.4s-0.3,0.6-0.3,0.9c0,0.2,0.1,0.4,0.1,0.6
				c-0.1,0.3-0.1,0.6-0.1,0.9c0.1,0.3,0.2,0.6,0.5,0.7c0.1-0.1,0.1-0.3,0.2-0.4c0.1,0.1,0.1,0.3,0.2,0.5c0.1,0,0.3,0,0.4,0
				c0.1,0,0.1-0.1,0.2-0.1c-0.1-0.4-0.1-0.9-0.1-1.4C239,222.2,239,221.6,239,220.8z"/>
			<path class="st1" d="M246.1,231.4c0.3-0.3,0.6-0.6,1-0.7c-0.4,0.1,0,0,0.1-0.1c0,0,0.2-0.1,0.2-0.1c0.1-0.1,0.3-0.2,0.4-0.3
				c0.1-0.1,0.3-0.2,0.4-0.3c-1.2-0.1-2.4-0.3-3.5-0.9c-2.8-1.5-4.5-5.1-5.4-6.7c-0.1,0-0.2,0-0.3-0.1l0,0c-2.5,3-3,6.5-1.2,8.3
				c1.1,1.1,3.2,1.8,5.7,1.9c0.7-0.1,1.4-0.4,2.1-0.6C245.8,231.5,246,231.4,246.1,231.4z"/>
		</g>
	</g>
	<path class="st2" d="M166.7,390.1"/>
	<path class="st3" d="M145.2,385.3"/>
	<text transform="matrix(0.8966 0 0 1 85.5532 311.8418)" class="st1 st4 st5">BETTER LATE THAN NEVER</text>
	<path class="st3" d="M245.7,230.9c-0.4-0.7-0.9-1.5-1.3-2.2"/>
	<g>
		<g>
			<path class="st1" d="M243.2,229.6C243.2,229.6,243.3,229.6,243.2,229.6c-0.1,0-0.2-0.1-0.3-0.1c0.2,0.1,0.3,0.2,0.5,0.3
				c-0.1-0.1-0.2-0.2-0.3-0.2c0.2,0.1,0.3,0.3,0.4,0.4C243.4,229.8,243.3,229.7,243.2,229.6c0.2,0.2,0.3,0.3,0.3,0.5
				c-0.1-0.1-0.1-0.2-0.2-0.4c0,0.1,0.1,0.2,0.1,0.3c0,0.2,0.1,0.4,0.3,0.5c0.1,0.2,0.2,0.3,0.4,0.4c0.2,0.1,0.4,0.2,0.6,0.2
				c0.2,0,0.4,0,0.6,0c0.1-0.1,0.2-0.1,0.4-0.2c0.2-0.1,0.4-0.3,0.5-0.5c0.1-0.1,0.1-0.2,0.2-0.4c0.1-0.3,0.1-0.5,0-0.8
				c-0.2-0.6-0.5-1.1-0.9-1.6c-0.2-0.2-0.4-0.4-0.7-0.6c-0.2-0.2-0.5-0.3-0.8-0.4c-0.2-0.1-0.4-0.1-0.6,0c-0.2,0-0.4,0.1-0.6,0.2
				c-0.2,0.1-0.3,0.2-0.4,0.4c-0.1,0.1-0.2,0.3-0.3,0.5c0,0.1,0,0.3-0.1,0.4c0,0.3,0.1,0.5,0.2,0.8c0.1,0.1,0.2,0.2,0.2,0.3
				C242.8,229.4,243,229.6,243.2,229.6L243.2,229.6z"/>
		</g>
	</g>
	<g>
		<g>
			<path class="st1" d="M242.1,225.6c-0.4-0.6-0.9-1.3-1.3-1.8c-0.2-0.3-0.4-0.5-0.6-0.7c-0.3-0.3-0.6-0.5-0.9-0.8
				c0.1,0.1,0.2,0.2,0.3,0.2c-0.1-0.1-0.2-0.1-0.2-0.2c0.1,0.1,0.2,0.2,0.2,0.3c0-0.1-0.1-0.1-0.1-0.2c0.1,0.1,0.1,0.2,0.2,0.4
				c0-0.1,0-0.1-0.1-0.2c0,0.1,0,0.3,0.1,0.4c0,0,0-0.1,0-0.1c0-0.4-0.2-0.8-0.4-1.1c-0.3-0.3-0.7-0.5-1.1-0.4
				c-0.4,0-0.8,0.1-1.1,0.4c-0.3,0.3-0.4,0.6-0.4,1.1c0,0.6,0.2,1.1,0.6,1.5c0.2,0.3,0.5,0.5,0.8,0.7c-0.1-0.1-0.2-0.2-0.3-0.2
				c0.4,0.3,0.8,0.8,1.1,1.2c-0.1-0.1-0.2-0.2-0.2-0.3c0.3,0.4,0.7,0.9,1,1.4c0.2,0.3,0.5,0.6,0.9,0.7c0.4,0.1,0.8,0.1,1.2-0.2
				c0.3-0.2,0.6-0.5,0.7-0.9C242.4,226.3,242.4,225.9,242.1,225.6L242.1,225.6z"/>
		</g>
	</g>
	<g>
		<g>
			<path class="st1" d="M240.3,224.2c0-0.3-0.1-0.6-0.1-1c0-0.2-0.1-0.4-0.2-0.6c-0.1-0.3-0.2-0.6-0.4-0.9c-0.2-0.3-0.4-0.5-0.6-0.8
				c-0.1-0.1-0.3-0.2-0.5-0.3c-0.2-0.1-0.4-0.1-0.6-0.1c-0.4,0-0.8,0.2-1.1,0.4c-0.3,0.3-0.5,0.7-0.4,1.1c0,0.1,0,0.3,0.1,0.4
				c0.1,0.3,0.2,0.5,0.4,0.7c0,0,0,0,0,0c-0.1-0.1-0.2-0.2-0.2-0.3c0.2,0.3,0.4,0.5,0.5,0.8c-0.1-0.1-0.1-0.2-0.2-0.4
				c0.1,0.3,0.2,0.6,0.3,0.9c0-0.1,0-0.3-0.1-0.4c0,0.1,0,0.2,0,0.4c0,0.4,0.2,0.8,0.4,1.1c0.1,0.1,0.3,0.2,0.5,0.3
				c0.2,0.1,0.4,0.1,0.6,0.1c0.4,0,0.8-0.1,1.1-0.4C240.1,224.9,240.3,224.6,240.3,224.2L240.3,224.2z"/>
		</g>
	</g>
</g>
</svg>
