<?xml version="1.0" encoding="utf-8"?>
<!-- Generator: Adobe Illustrator 24.1.3, SVG Export Plug-In . SVG Version: 6.00 Build 0)  -->
<svg version="1.1" id="Layer_1" xmlns="http://www.w3.org/2000/svg" xmlns:xlink="http://www.w3.org/1999/xlink" x="0px" y="0px"
	 viewBox="0 0 1031 227" style="enable-background:new 0 0 1031 227;" xml:space="preserve">
<style type="text/css">
	.st0{fill:#F4838C;}
	.st1{fill:#FEFDFD;}
	.st2{fill:#F2818B;}
	.st3{fill:#F1838C;}
	.st4{fill:#F1818A;}
	.st5{fill:#EF808A;}
	.st6{fill:#F0818A;}
	.st7{fill:#F3828C;}
	.st8{fill:#FDF4F5;}
	.st9{fill:none;}
	.st10{font-family:'MarkerFelt-Wide';}
	.st11{font-size:80.2736px;}
</style>
<g>
	<g>
		<g>
			<path class="st0" d="M1017,105.3c-1-1.5-2.1-3.1-3.6-4c-9.6-5.6-10.6-11.4-2.9-18.4c5.6-5.1,3.2-14.9-3.5-18.7
				c-9.7-5.5-19.5-4.1-29.7-2.5c-11.8,1.9-13,1.1-12.9-9.3c0.1-6.3-2.7-7.4-8.5-7c-25.2,1.8-50.5,3.4-75.8,5.1
				c-1.5,0.1-3-0.3-4.6-2.4c12.1-1.3,24.3-2.7,36.5-4c15-1.6,30-2.7,44.9-4.6c3.4-0.4,6.4-3.2,9.5-5c-2.3-3.5-4.1-9.7-7-10.1
				c-11.9-1.9-24.6-4.2-36.3-2.5c-43.1,6.1-86,10.1-129.7,10.4c-67.1,0.5-134.2,5.6-201.3,5.3c-86.9-0.5-173,6.6-259.2,15
				c-28.8,2.8-57.9,3.7-86.9,5.2c-5.5,0.3-10.9,0.6-16.4,0.9c-1.2,0.1-2.4,0.2-3.5,0.2c-1.3,0.1-2.6,0.2-4,0.3
				c-6.9,0.5-13.8,0.9-20.7,1.4c-43.6,3-87.1,6.2-130.6,10c-12,1-23.8,5.6-35.2,9.6c-3.3,1.1-6.1,6.2-6.9,9.9
				c-1.2,5.1,0.6,10.8-0.5,16c-2.4,12.1,4.8,18.4,15.3,22.3c11.7,4.4,23.7,8.2,35.9,11.2c6.2,1.5,8.5,4.4,6.8,9.1
				c-0.7,2.1-5,3.9-8,4.3c-7.4,1.2-15,1.1-22.4,2.3c-10.4,1.7-14.1,6.2-13.2,15.8c0.6,6.6,1.2,13.2,3,19.5c0.5,1.8,5.2,3.5,8.1,3.7
				c27.6,1.7,55.3,2.9,82.9,4.5c4.5,0.3,8.9,2.3,13.3,3.6h16.5c6.9-1,13.8-2.5,20.7-2.9c58.4-3.6,116.8-6.7,175.2-10.5
				c49.1-3.2,98.2-7.2,147.4-10.8c42.6-3.1,85.2-6.3,127.9-9.5c2-0.2,3.9-0.5,5.8-0.8c-0.1-0.7-0.1-1.5-0.2-2.2
				c-23.4,1.1-46.9,2.1-70.3,3.5c-20.5,1.1-40.9,2.8-61.5,4c-2.2,0.1-4.6-1.4-7-2.1c1.9-1,3.7-2.7,5.7-2.9
				c46.8-5.6,93.7-11,141.1-7.2c1.6,0.1,3,1.1,4.6,1.7c2.7,0.8,5.4,1.7,8.2,2.5c16.9-0.7,33.8-1.1,50.6-2.2
				c17.7-1.2,35.4-3.3,53.1-4.6c10.9-0.7,21.8-0.3,32.7-0.8c40.4-2,80.7-4.1,121-6.2c20.7-1.1,32.4-4.9,57.1-18.4v-2.5
				c-45.4,0.8-90.9,1.7-136.3,2.5c-4,0.1-8,0.2-12,0.2c-0.1-0.9-0.1-1.8-0.2-2.7c4-0.3,8.1-0.5,12.1-0.8
				c35.8-2.2,71.7-4.5,107.5-6.8c0-11.2,0.2-22.4-0.1-33.6c-0.1-5.6,2.6-7.4,6.8-3.8c4.1,3.5,6.6,8.7,9.7,13.1l14.5,9.5
				c0.6-5.7,1.2-11.5,1.9-17.3c0.4-3.4,0.8-6.8,1.2-10.2c0.8,0.1,1.5,0.2,2,0.3v33.2c0.3,2.4,0.6,4.7,0.8,7.1
				c13.7,2.9,25.6-3.1,35.9-6.7C1021.1,112.1,1019.1,108.7,1017,105.3z M95.6,114.6c-0.7,0.4-2,1.4-2,1.3c-1.2-1.3-2.4-2.6-3.5-4
				c-7.6-11.3-4.2-22,8.8-26.9c-2.9,9-5.7,17.8-8.6,26.7C92.1,112.7,93.8,113.6,95.6,114.6z M135.4,104.1c-1.3,5.6,0.2,13.3-10,13.5
				c-1.2,1.6-2.4,3.1-3.5,4.7c-0.4-0.4-1-0.7-1.4-1.1c1.5-1.3,3-2.6,4.6-3.9c6.7-8.7,5.1-18.4,4.1-28.1c-0.3-0.2-0.6-0.3-0.9-0.4
				c-2.4-1.7-4.9-3.3-7.3-5c0.4-0.4,1.3-1.1,1.3-1.1c2.5,2,4.8,4.1,7.3,6.2C136.4,92.4,136.8,98.2,135.4,104.1z M681.7,84L681.7,84
				c0.1-0.1,0.2-0.1,0.3-0.2c2.8,4.1,5.6,8.2,8.4,12.3c-1,0.6-2,1.3-3,1.9c-2.1-2.7-4.2-5.4-6.2-8.1l0,0c-1-1.3-1.9-2.5-2.9-3.8
				C679.4,85.4,680.5,84.7,681.7,84z M475,97.5c-0.2,0.2-0.3,0.3-0.5,0.5c-0.3,0.3-0.7,0.4-1.1,0.6l0,0c-0.3,0.2-0.6,0.3-0.9,0.4
				c-0.3,0.2-0.7,0.3-1.1,0.4c-0.4,0.2-1,0.4-1.3,0.6c0-0.9,0.1-1.8,0.1-2.7c0,0,0,0,0,0c0-0.6,0-1.3-0.1-1.9
				c-0.3-3.9-0.8-7.7-1.3-11.9C476.6,87.6,479,92.6,475,97.5z M472.5,121.9c-0.2-0.1-0.3-0.1-0.5-0.2c-0.2-0.1-0.3-0.1-0.4-0.2
				c-0.2-0.1-0.3-0.2-0.5-0.2c-0.1-0.1-0.1-0.1-0.2-0.1c-0.2-0.1-0.3-0.2-0.4-0.3c-0.1-0.1-0.1-0.1-0.2-0.2
				c-0.1-0.1-0.1-0.1-0.2-0.2c-2.2-3.5-3.1-8-6-10.7c-0.2-0.2-0.3-0.3-0.6-0.5l-0.1-0.1c-0.2-0.2-0.4-0.3-0.6-0.7h-0.1
				c-0.2,0.2-0.3,0.1-0.4,0c-0.3-0.2-0.6-0.4-0.9-0.6c-0.2-0.1-0.3-0.2-0.6-0.5h-0.1c-0.2,0-0.4-0.1-0.7-0.2
				c-0.2-0.1-0.5-0.2-0.7-0.3c-0.6-0.3-1.1-0.5-1.6-0.6c-0.2-0.1-0.4-0.2-0.6-0.2c-0.1-0.1-0.2-0.1-0.3-0.1
				c-0.3-0.1-0.7-0.2-1.1-0.3l0,0c-0.3-0.1-0.6-0.2-0.8-0.2c-0.3-0.1-0.6-0.2-0.8-0.2c-0.3-0.1-0.6-0.1-0.8-0.2
				c-0.3-0.1-0.6-0.1-0.8-0.2c-0.3-0.1-0.8,0.5-1.3,1.3c-0.1,0.1-0.1,0.2-0.2,0.3c-0.3,0.4-0.6,0.9-0.8,1.4
				c-0.1,0.2-0.2,0.4-0.3,0.6c-0.1,0.1-0.1,0.2-0.1,0.2c-0.2,0.4-0.3,0.7-0.5,1c-0.1,0.2-0.2,0.4-0.2,0.6c-0.3,0.9-0.7,1.7-0.8,2.5
				c-0.7,3.2-0.2,6.7-0.2,10c-1,0-1.9,0.1-2.5,0.1V80.7c1.2,2.3,2.2,3.1,2.1,3.8c-0.3,9.2-0.2,16.3,14.1,17.5c0.1,0,0.2,0.1,0.3,0.1
				c0.1,0,0.1,0,0.1,0.1c0.1,0,0.1,0,0.2,0.1c0.1,0,0.1,0.1,0.2,0.1c0.1,0,0.1,0.1,0.2,0.1c0.1,0,0.1,0.1,0.2,0.1
				c0.1,0.1,0.3,0.1,0.4,0.2c0.1,0.1,0.3,0.2,0.4,0.2c1.1,0.7,2.2,1.9,3.3,3.3c0.1,0.2,0.2,0.3,0.3,0.4c0.8,1.1,1.6,2.4,2.4,3.8
				c0.1,0.3,0.3,0.5,0.4,0.7c1.1,2,2.3,4.1,3.4,6.1c0.1,0.1,0.1,0.2,0.2,0.3l0,0c0.1,0.2,0.2,0.4,0.3,0.5c0.2,0.3,0.4,0.7,0.6,1
				c0.3,0.4,0.6,0.8,0.8,1.3c0.2,0.3-1.1,2.1-1.3,2c-0.2-0.1-0.4-0.1-0.7-0.2C473.2,122.1,472.9,122,472.5,121.9z M436.3,101
				c0,0.2,0.1,0.4,0.1,0.6c0,0.2,0.1,0.4,0.1,0.5c0,0.1,0,0.2,0,0.3c0.2,4.8-1.8,9.4-5.7,12.6c-0.2,0.1-0.3,0.2-0.5,0.3
				c-0.4,0.3-0.7,0.6-1.2,0.8V89.3c-0.6-0.4-1.2-0.7-1.7-1c-0.3-0.2-0.6-0.4-0.9-0.5c-1.2-0.7-2.4-1.4-3.6-2.1
				c0.6-0.6,1.1-1.1,1.7-1.7c0.7,0.7,1.3,1.3,2,2c0.7,0.8,1.5,1.6,2.2,2.3c0.2,0.3,0.5,0.5,0.7,0.7c0.3,0.3,0.6,0.5,0.9,0.8
				c0.1,0.1,0.2,0.2,0.3,0.3c0.4,0.4,0.8,0.8,1.2,1.3c0.1,0.1,0.2,0.2,0.3,0.3c0.9,1.1,1.7,2.2,2.3,3.4c0.1,0.1,0.1,0.3,0.2,0.4
				c0.2,0.3,0.3,0.6,0.4,1c0.1,0.2,0.2,0.4,0.2,0.6c0.1,0.2,0.2,0.4,0.2,0.6l0,0c0.1,0.2,0.1,0.4,0.2,0.6c0,0.1,0.1,0.1,0.1,0.2
				c0.1,0.2,0.1,0.4,0.2,0.6c0.1,0.2,0.1,0.4,0.1,0.6c0,0.1,0,0.1,0.1,0.2c0.1,0.2,0.1,0.4,0.1,0.6
				C436.3,100.5,436.3,100.7,436.3,101z M422.8,120.8c0.3-0.1,0.7-0.3,0.9-0.2c0.2,0.1,0.3,0.5,0.4,0.7c-0.2,0.2-0.4,0.4-0.6,0.6
				C423.3,121.6,423,121.1,422.8,120.8z M394,88c1.1-1.4,2.2-2.8,3.3-4.2c1.1,0.8,2.2,1.7,3.3,2.6c-2.9,3.4-5.7,6.8-8.5,10.2
				c-1-0.7-2-1.4-3-2.1c1.3-1.8,2.8-3.5,4.2-5.3C393.4,88.8,393.7,88.4,394,88z M390.3,112.5c-0.2-0.2,0.8-1.2,1.5-2.2
				c1.6,1.4,2.8,2.4,3.9,3.4c-0.7,0.7-1.4,1.4-2.1,2C392.5,114.7,391.3,113.7,390.3,112.5z M390.7,103.8c0-1.1,0.7-2.2,1.1-3.3
				c0.8,0.6,2.2,1.2,2.4,1.9c0.2,1.3-0.4,2.6-1.2,5.9C391.6,105.6,390.7,104.7,390.7,103.8z M458.1,177.3c-0.1-1-0.2-2-0.3-3
				c14.4-1.6,28.8-3.2,43.3-4.8c0.2,1.5,0.3,3,0.4,4.4C487.1,175,472.6,176.1,458.1,177.3z M641.3,105.4c-0.1-0.2-0.2-0.4-0.2-0.5
				c-0.1-0.3-0.2-0.6-0.3-0.8c-0.1-0.2-0.1-0.4-0.2-0.5c-0.1-0.3-0.2-0.5-0.2-0.8c0-0.1-0.1-0.2-0.1-0.2c-0.1-0.2-0.1-0.3-0.1-0.5
				c-0.1-0.2-0.1-0.4-0.1-0.5c0-0.1-0.1-0.2-0.1-0.3l0,0c0-0.2-0.1-0.3-0.1-0.5c0-0.2,0-0.4,0-0.6c0-0.2,0-0.3,0-0.4
				c0-0.1,0-0.1,0-0.1c0-0.2,0-0.3,0.1-0.4c0-0.1,0.1-0.3,0.1-0.4c0.1-0.2,0.1-0.4,0.1-0.5s0.1-0.3,0.1-0.4c0.3-1,0.8-2.1,1.6-3.1
				c0.1-0.2,0.2-0.3,0.3-0.5c0-0.1,0.1-0.1,0.1-0.1c0.1-0.2,0.2-0.3,0.3-0.4c0.3-0.3,0.6-0.7,1-1c0.2-0.2,0.3-0.3,0.5-0.5l0.1-0.1
				c0.2-0.2,0.3-0.3,0.6-0.4c0.2-0.2,0.4-0.3,0.6-0.5c0.2-0.2,0.4-0.3,0.7-0.5c0.2-0.2,0.4-0.3,0.7-0.5c0.2-0.2,0.5-0.3,0.7-0.5
				c0.8-0.5,1.6-0.9,2.5-1.3c0.9-0.4,1.8-0.9,2.8-1.3c-2.5,8.2-4.8,16.3-7.2,24.3c6.6,0.3,7.8,4.6,8.2,9.5l0.4,0.4l-0.4-0.4
				c-5.3-1.3-10.3-2.7-8.3-9.4c-1.5-2-2.6-3.8-3.5-5.5c-0.1-0.2-0.2-0.3-0.2-0.4C641.4,105.8,641.3,105.6,641.3,105.4z M678.5,116.6
				L678.5,116.6c3.1-3.2,6.2-6.3,9.2-9.5c1,0.8,2.1,1.7,3.1,2.5c-4.2,4.6-8.4,9.2-12.5,13.9c-0.1-0.1-0.3-0.2-0.4-0.3
				c-1.1-0.8-2.1-1.7-3.2-2.6C676,119.2,677.3,117.9,678.5,116.6z M898.4,88.1c0.5-0.9,2.7-1,4-1.5c0.1,1.1,0.8,2.6,0.3,3.4
				c-2.2,3.9-4.8,7.6-7.3,11.3c-0.9-0.5-1.7-1-2.6-1.6C894.6,95.8,896.3,91.8,898.4,88.1z M896.2,108.1c-0.8-0.5-1.6-0.9-2.5-1.4
				c0.3-0.3,0.7-0.7,1.1-1c0.5,0.7,1,1.5,1.5,2.2c3,4.3,6.1,8.5,9.2,12.8C897.3,119.4,894.5,115,896.2,108.1z M925.3,82.6
				c-0.2-0.2-0.5-0.3-0.6-0.5c0-0.2,0.2-0.5,0.3-0.7c0.3,0.3,0.6,0.5,1,0.8C925.8,82.3,925.5,82.4,925.3,82.6z M933,86.5
				c0.3,0.1,0.6,0.8,0.8,1.3c-0.6,0.3-1.2,0.7-1.7,0.6c-0.3-0.1-0.6-0.8-0.8-1.3C931.9,86.9,932.5,86.5,933,86.5z M935.4,113.8
				c-0.6,1.7-1.2,3.4-1.9,5.2c0,0.1-1.1-0.3-1.7-0.5c1.1-1.6,2.3-3.2,3.4-4.9c-0.1-1.4-0.2-2.8-0.2-4.2c0.8,0.2,1.7,0.3,2.6,0.5
				C936.9,111.2,936.1,112.5,935.4,113.8z M936.6,95.6c-0.5-0.5-1.5-1.1-1.4-1.5c0.3-0.7,1.1-1.3,1.7-1.9c0.6,0.6,1.3,1.1,1.2,1.3
				C937.8,94.3,937.1,94.9,936.6,95.6z"/>
			<path class="st1" d="M226.2,57.5v1.3c-1.3,0.1-2.6,0.2-4,0.3c-6.9,0.5-13.8,0.9-20.7,1.4v-2.9H226.2z"/>
			<path class="st1" d="M245.9,57.6c-5.5,0.3-10.9,0.6-16.4,0.9v-1h10.3C242.1,57.5,244.1,57.5,245.9,57.6z"/>
			<path class="st1" d="M842.4,129.6v3.2c-4,0.1-8,0.2-12,0.2c-0.1-0.9-0.1-1.8-0.2-2.7C834.3,130.1,838.3,129.9,842.4,129.6z"/>
			<path class="st2" d="M445.3,80.7c1.5,2.3,2.4,3.1,2.4,3.9c-0.3,9.2-0.2,16.3,14.1,17.5c5.2,0.4,9.3,11.7,13.8,18.2
				c0.2,0.3-1.1,2.1-1.3,2c-1.5-0.4-3.5-0.7-4.2-1.7c-2.2-3.5-3.1-8-6-10.7c-2.9-2.7-7.5-4.1-11.6-4.9c-0.8-0.2-3.5,5-4.2,7.9
				c-0.7,3.2-0.2,6.7-0.2,10c-1,0-1.9,0.1-2.8,0.1C445.3,109.4,445.3,95.9,445.3,80.7z"/>
			<path class="st3" d="M986.8,121.2c-1.5,0.1-2.9,0.2-4.4,0.2c-0.9-1.2-1.5-2.9-2.8-3.5c-8.5-4.1-12-11.1-13.3-19.4l0,0l14.5,9.5
				c0.6-5.7,1.2-11.5,1.9-17.3c0.4-3.4,0.8-6.8,1.2-10.2c0.8,0.1,1.5,0.2,2.3,0.3c0,11.1,0,22.1,0,33.2
				C986.3,116.5,986.6,118.8,986.8,121.2z"/>
			<path class="st3" d="M966.2,98.6L966.2,98.6c-1.3-0.2-2.8-0.2-3.9-0.8c-2.1-1.1-3.9-2.6-5.9-3.9c-0.8,2.5-2.3,5-2.5,7.5
				c-0.3,7.1-0.1,14.3-0.1,21.4c-1.4,0.1-2.8,0.1-4.2,0.1c0-11.2,0.2-22.4-0.1-33.6c-0.1-5.6,2.6-7.4,6.8-3.8
				C960.5,89,963,94.2,966.2,98.6z"/>
			<path class="st4" d="M645.2,111.9c-8.8-11.8-7-18.2,7.4-24.5c-2.5,8.2-4.8,16.3-7.2,24.3C645.5,111.7,645.2,111.9,645.2,111.9z"
				/>
			<path class="st5" d="M90.1,111.9c-7.6-11.3-4.2-22,8.8-26.9c-2.9,9-5.7,17.8-8.6,26.7L90.1,111.9z"/>
			<path class="st1" d="M501.5,173.9c-14.5,1.1-29,2.2-43.5,3.4c-0.1-1-0.2-2-0.3-3c14.4-1.6,28.8-3.2,43.3-4.8
				C501.3,170.9,501.4,172.4,501.5,173.9z"/>
			<path class="st5" d="M125,117.3c6.7-8.7,5.1-18.4,4.1-28.1l0.4-0.3c7,3.4,7.3,9.2,5.9,15.2c-1.3,5.6,0.2,13.3-10,13.5L125,117.3z
				"/>
			<path class="st6" d="M429.5,89c9.7,7.8,9.1,21.4-0.3,27.4c0-8.7,0-17.9,0-27.1L429.5,89z"/>
			<path class="st2" d="M468.7,83.4c7.8,4.2,10.2,9.2,6.2,14.1c-1,1.3-3.3,1.7-4.9,2.5c0.1-1.5,0.2-3.1,0.1-4.6
				C469.7,91.5,469.2,87.7,468.7,83.4z"/>
			<path class="st4" d="M690.9,109.6c-4.2,4.6-8.4,9.2-12.5,13.9c-1.2-0.9-2.4-1.9-3.6-2.9c4.4-4.5,8.7-9,13.1-13.5
				C688.8,108,689.8,108.7,690.9,109.6z"/>
			<path class="st7" d="M892.8,99.7c1.8-3.9,3.4-7.9,5.5-11.7c0.5-0.9,2.6-1,4-1.5c0.1,1.1,0.8,2.6,0.3,3.4
				c-2.2,3.9-4.8,7.6-7.3,11.3C894.6,100.8,893.7,100.2,892.8,99.7z"/>
			<path class="st4" d="M687.4,98c-3-4-6.1-7.9-9.1-11.9c1.2-0.8,2.5-1.5,3.7-2.3c2.8,4.1,5.6,8.2,8.4,12.3
				C689.4,96.7,688.4,97.4,687.4,98z"/>
			<path class="st6" d="M400.6,86.4c-2.9,3.4-5.7,6.8-8.6,10.2c-1-0.7-2-1.4-3-2.1c2.8-3.5,5.5-7.1,8.3-10.6
				C398.4,84.6,399.5,85.5,400.6,86.4z"/>
			<path class="st7" d="M896.3,108c3,4.3,6.1,8.5,9.2,12.8c-8.2-1.3-11-5.7-9.3-12.6C896.2,108.1,896.3,108,896.3,108z"/>
			<path class="st4" d="M653.6,121.3c-5.3-1.3-10.3-2.7-8.4-9.4l0.2-0.2C652.2,112.1,653.3,116.3,653.6,121.3L653.6,121.3z"/>
			<path class="st5" d="M129.1,89.3c-0.3-0.2-0.6-0.3-0.9-0.4c-2.4-1.7-4.9-3.3-7.3-5c0.4-0.4,1.3-1.1,1.3-1.1
				c2.5,2,4.8,4.1,7.3,6.2L129.1,89.3z"/>
			<path class="st6" d="M393,108.3c-1.4-2.7-2.2-3.6-2.2-4.5c0-1.1,0.7-2.2,1.1-3.3c0.8,0.6,2.2,1.2,2.4,1.9
				C394.3,103.7,393.7,105.1,393,108.3z"/>
			<path class="st8" d="M663.9,165.1c-5.1,5.9-7.3,3.5-8.2-2.5C658.5,163.4,661.2,164.2,663.9,165.1z"/>
			<path class="st6" d="M391.8,110.3c1.6,1.4,2.8,2.3,3.9,3.4c-0.7,0.7-1.4,1.4-2.1,2c-1.1-1-2.4-2-3.3-3.2
				C390.2,112.3,391.1,111.3,391.8,110.3z"/>
			<path class="st5" d="M90.3,111.8c1.7,0.9,3.5,1.9,5.3,2.9c-0.7,0.5-2,1.4-2,1.3c-1.2-1.3-2.4-2.6-3.5-4L90.3,111.8z"/>
			<path class="st5" d="M125.4,117.7c-1.2,1.6-2.4,3.1-3.5,4.7c-0.4-0.4-1-0.7-1.4-1.1c1.5-1.3,3-2.6,4.6-3.9
				C125,117.3,125.4,117.7,125.4,117.7z"/>
			<path class="st6" d="M429.3,89.2c-2.1-1.3-4.2-2.5-6.2-3.8c0.6-0.6,1.1-1.1,1.7-1.7c1.6,1.7,3.3,3.4,4.9,5.1
				C429.7,89,429.3,89.2,429.3,89.2z"/>
			<path class="st7" d="M935.2,113.6c-0.1-1.4-0.2-2.8-0.2-4.2c0.8,0.2,1.7,0.3,2.6,0.5c-0.7,1.3-1.5,2.6-2.1,3.9
				C935.4,113.8,935.2,113.6,935.2,113.6z"/>
			<path class="st9" d="M935.4,113.8c-0.6,1.7-1.2,3.4-1.9,5.2c0,0.1-1.1-0.3-1.7-0.5c1.1-1.6,2.2-3.2,3.4-4.9L935.4,113.8z"/>
			<path class="st7" d="M936.9,92.3c0.6,0.6,1.3,1.1,1.2,1.3c-0.3,0.7-1,1.4-1.5,2.1c-0.5-0.5-1.5-1.1-1.4-1.5
				C935.5,93.4,936.3,92.9,936.9,92.3z"/>
			<path class="st7" d="M933.8,87.8c-0.6,0.3-1.2,0.7-1.7,0.6c-0.3-0.1-0.6-0.8-0.8-1.3c0.6-0.3,1.2-0.7,1.7-0.6
				C933.3,86.6,933.5,87.4,933.8,87.8z"/>
			<path class="st7" d="M896.2,108.1c-0.8-0.5-1.6-0.9-2.5-1.4c0.3-0.3,0.7-0.7,1.1-1c0.5,0.7,1,1.5,1.5,2.2
				C896.3,108,896.2,108.1,896.2,108.1z"/>
			<path class="st6" d="M424.2,121.3c-0.2,0.2-0.4,0.4-0.6,0.6c-0.2-0.4-0.5-0.8-0.7-1.2c0.3-0.1,0.7-0.3,0.9-0.2
				C423.9,120.7,424,121.1,424.2,121.3z"/>
			<path class="st7" d="M925.3,82.6c-0.2-0.2-0.5-0.3-0.6-0.5c0-0.2,0.2-0.5,0.3-0.7c0.3,0.3,0.6,0.5,1,0.8
				C925.8,82.3,925.5,82.4,925.3,82.6z"/>
			<polygon class="st4" points="653.5,121.3 653.9,121.7 653.5,121.3 			"/>
			<path class="st0" d="M982.2,121.4c-9.4,0.5-18.9,0.9-28.3,1.4c0-7.1-0.2-14.3,0.1-21.4c0.1-2.5,1.6-5,2.5-7.5
				c2,1.3,3.8,2.8,5.9,3.9c1.1,0.6,2.5,0.6,3.8,0.8c1.2,8.3,4.8,15.2,13.3,19.4C980.7,118.5,981.3,120.2,982.2,121.4z"/>
		</g>
	</g>
	<polygon class="st9" points="399.9,-236 432.2,-236 432.2,-236 	"/>
	<text transform="matrix(0.8594 0 0 1 138.0032 133.4658)" class="st10 st11">FRESHNESS GUARANTEE</text>
</g>
</svg>
