<?xml version="1.0" encoding="utf-8"?>
<!-- Generator: Adobe Illustrator 24.1.3, SVG Export Plug-In . SVG Version: 6.00 Build 0)  -->
<svg version="1.1" id="Layer_1" xmlns="http://www.w3.org/2000/svg" xmlns:xlink="http://www.w3.org/1999/xlink" x="0px" y="0px"
	 viewBox="0 0 108.18 20.68" style="enable-background:new 0 0 108.18 20.68;" xml:space="preserve">
<style type="text/css">
	.st0{fill:#D3A39B;}
</style>
<path class="st0" d="M36.74,14.22v-1.17c0-3.77,2.18-6.26,6.62-6.26c4.19,0,6.02,2.52,6.02,6.21v2.12h-8.57
	c0.08,1.81,0.91,2.62,3.17,2.62c1.48,0.01,2.95-0.27,4.33-0.81l0.74,2.77c-1.66,0.67-3.45,1.01-5.24,0.98
	C38.66,20.68,36.74,18.13,36.74,14.22z M40.82,12.49h4.92v-0.34c0-1.46-0.59-2.6-2.38-2.6C41.52,9.56,40.82,10.71,40.82,12.49
	L40.82,12.49z M54.94,18.37v2.01H51.1V0.39l4.08-0.36v8.89c0.75-1.38,2.22-2.21,3.79-2.12c3.74,0,5.55,2.8,5.54,6.52v0.84
	c0,3.72-1.8,6.51-5.53,6.51C57.29,20.77,55.7,19.87,54.94,18.37z M55.17,13.02v1.4c0,1.91,0.91,3.08,2.57,3.08
	c1.95,0,2.69-1.4,2.69-3.27v-1.01c0-1.87-0.74-3.27-2.69-3.27C56.07,9.95,55.17,11.12,55.17,13.02z M10.48,14.15v-0.85
	c0-3.72,1.8-6.51,5.54-6.51c1.65-0.1,3.19,0.83,3.88,2.33V7.07h3.91v13.31H19.9v-2.01c-0.69,1.5-2.24,2.41-3.88,2.29
	C12.27,20.66,10.48,17.86,10.48,14.15z M14.58,13.25v0.95c0,1.99,0.72,3.3,2.62,3.3c1.67,0,2.52-1.2,2.52-3.1v-1.34
	c0-1.9-0.85-3.1-2.52-3.1C15.32,9.95,14.59,11.26,14.58,13.25L14.58,13.25z M80.65,14.05v-0.67c0-3.83,2.2-6.6,6.7-6.6
	s6.71,2.77,6.7,6.6v0.67c0,3.83-2.21,6.6-6.7,6.6S80.65,17.89,80.65,14.05L80.65,14.05z M84.73,13.11v1.23
	c0,1.76,0.74,3.16,2.62,3.16s2.62-1.41,2.62-3.16v-1.23c0-1.76-0.74-3.16-2.62-3.16S84.73,11.36,84.73,13.11L84.73,13.11z
	 M65.87,14.05v-0.67c0-3.83,2.2-6.6,6.7-6.6s6.71,2.77,6.7,6.6v0.67c0,3.83-2.21,6.6-6.7,6.6S65.87,17.89,65.87,14.05L65.87,14.05z
	 M69.95,13.11v1.23c0,1.76,0.74,3.16,2.62,3.16s2.62-1.41,2.62-3.16v-1.23c0-1.76-0.74-3.16-2.62-3.16S69.95,11.36,69.95,13.11
	L69.95,13.11z M25.33,14.03v-0.61c0-4.08,2.18-6.62,6.96-6.62c1.36-0.06,2.71,0.25,3.91,0.9l-0.91,2.85
	c-0.85-0.4-1.78-0.61-2.71-0.61c-2.21,0-3.17,1.26-3.17,3.41v0.78c0,2.15,0.96,3.41,3.17,3.41c0.94-0.01,1.87-0.22,2.71-0.61
	l0.91,2.85c-1.2,0.65-2.55,0.95-3.91,0.89C27.51,20.65,25.33,18.11,25.33,14.03L25.33,14.03z M103.85,20.37l-4.19-6.51v6.51h-4.08
	V0.39l4.08-0.36v13.39l4.02-6.35h4.33l-4.22,6.57l4.39,6.73L103.85,20.37z M2.75,20.36V10.35H0V7.07h2.75V5.09
	C2.75,1.76,4.11,0,7.9,0c0.79,0,1.59,0.04,2.38,0.14v3.1H8.46c-1.27,0-1.64,0.56-1.64,1.79v2.04h3.4l-0.34,3.3H6.83v10.01
	L2.75,20.36z"/>
</svg>
