<?xml version="1.0" encoding="utf-8"?>
<!-- Generator: Adobe Illustrator 24.1.3, SVG Export Plug-In . SVG Version: 6.00 Build 0)  -->
<svg version="1.1" id="Layer_1" xmlns="http://www.w3.org/2000/svg" xmlns:xlink="http://www.w3.org/1999/xlink" x="0px" y="0px"
	 viewBox="0 0 94.22 31.01" style="enable-background:new 0 0 94.22 31.01;" xml:space="preserve">
<style type="text/css">
	.st0{fill:#D3A39B;}
</style>
<path class="st0" d="M58.93,26.45l2.96-1.23c0.62,1.62,2.16,2.71,3.9,2.75c2.55,0,4.14-1.58,4.14-4.54v-1.11h-0.12
	c-1.03,1.16-2.53,1.8-4.08,1.76c-4.16-0.13-7.45-3.56-7.43-7.72c-0.04-4.18,3.25-7.63,7.43-7.78c1.55-0.04,3.03,0.59,4.08,1.73h0.12
	V9.04h3.23v13.91c0,5.72-3.37,8.06-7.37,8.06C62.79,31.03,60.08,29.23,58.93,26.45z M61.72,16.35c-0.12,2.45,1.77,4.54,4.22,4.66
	c0.03,0,0.06,0,0.09,0c2.32,0,4.14-1.97,4.14-4.67c0-2.73-1.82-4.73-4.14-4.73c-2.47,0.09-4.41,2.16-4.32,4.64
	C61.72,16.29,61.72,16.32,61.72,16.35L61.72,16.35z M41.54,16.32c-0.06-4.22,3.3-7.69,7.52-7.75c0.08,0,0.17,0,0.25,0
	c4.22-0.08,7.7,3.28,7.78,7.49c0,0.09,0,0.17,0,0.26c0.05,4.23-3.33,7.7-7.56,7.75c-0.07,0-0.14,0-0.22,0
	c-4.23,0.07-7.71-3.31-7.78-7.54C41.54,16.46,41.54,16.39,41.54,16.32L41.54,16.32z M44.95,16.32c-0.12,2.47,1.78,4.57,4.25,4.7
	c0.04,0,0.08,0,0.12,0c2.48-0.06,4.43-2.11,4.38-4.59c0-0.04,0-0.08,0-0.11c0.13-2.46-1.76-4.56-4.22-4.69c-0.05,0-0.1,0-0.15-0.01
	c-2.46,0.05-4.42,2.09-4.37,4.55C44.94,16.22,44.95,16.27,44.95,16.32L44.95,16.32z M24.77,16.32c-0.06-4.22,3.3-7.69,7.52-7.75
	c0.09,0,0.17,0,0.26,0c4.22-0.08,7.7,3.28,7.78,7.49c0,0.09,0,0.17,0,0.26c0.05,4.23-3.33,7.7-7.56,7.75c-0.07,0-0.14,0-0.21,0
	c-4.23,0.06-7.71-3.31-7.77-7.54C24.77,16.46,24.77,16.39,24.77,16.32L24.77,16.32z M28.17,16.32c-0.12,2.47,1.78,4.57,4.26,4.7
	c0.04,0,0.08,0,0.12,0c2.47-0.06,4.43-2.11,4.38-4.59c0-0.04,0-0.08,0-0.11c0.13-2.46-1.76-4.56-4.22-4.69c-0.05,0-0.1,0-0.15-0.01
	c-2.47,0.05-4.42,2.09-4.37,4.56C28.17,16.23,28.17,16.27,28.17,16.32L28.17,16.32z M79.92,16.32c0-4.61,3.32-7.75,7.31-7.75
	c3.03,0.08,5.68,2.06,6.63,4.93l0.35,0.88l-10.36,4.29c0.65,1.48,2.14,2.41,3.76,2.35c1.56,0.01,3.01-0.81,3.82-2.15l2.64,1.76
	c-1.44,2.16-3.86,3.45-6.46,3.43c-4.19,0.06-7.63-3.29-7.69-7.47C79.92,16.5,79.93,16.41,79.92,16.32L79.92,16.32z M83.3,16.09
	l6.93-2.88c-0.54-1.07-1.68-1.72-2.88-1.64c-2.34,0.11-4.16,2.1-4.05,4.44C83.3,16.04,83.3,16.06,83.3,16.09L83.3,16.09z M0,12.04
	C0.09,5.36,5.53,0,12.21,0c3.08-0.05,6.05,1.15,8.25,3.32l-2.32,2.32c-1.59-1.53-3.72-2.38-5.93-2.35c-4.77,0-8.63,3.86-8.63,8.63
	c0,0.04,0,0.08,0,0.11c-0.06,4.77,3.75,8.68,8.52,8.74c0.04,0,0.08,0,0.11,0c2.28,0.09,4.48-0.78,6.08-2.41
	c1.03-1.12,1.66-2.55,1.78-4.07H12.2v-3.29h11.08c0.11,0.65,0.17,1.32,0.17,1.98c0.09,2.84-0.93,5.6-2.85,7.69
	c-2.18,2.28-5.24,3.5-8.39,3.37C5.53,24.07,0.09,18.71,0,12.04L0,12.04z M75.17,23.6V0.89h3.32v22.7L75.17,23.6z M73.17,9.04
	L73.17,9.04z"/>
</svg>
