<?xml version="1.0" encoding="utf-8"?>
<!-- Generator: Adobe Illustrator 24.1.3, SVG Export Plug-In . SVG Version: 6.00 Build 0)  -->
<svg version="1.1" id="Layer_1" xmlns="http://www.w3.org/2000/svg" xmlns:xlink="http://www.w3.org/1999/xlink" x="0px" y="0px"
	 viewBox="0 0 96.52 22.4" style="enable-background:new 0 0 96.52 22.4;" xml:space="preserve">
<style type="text/css">
	.st0{fill:#D3A39B;}
</style>
<path class="st0" d="M90.52,21.04c-0.06-0.75,0.5-1.4,1.25-1.46c0.05,0,0.09,0,0.14,0c0.77-0.08,1.46,0.47,1.54,1.24
	c0,0.05,0.01,0.09,0.01,0.14c0.08,0.71-0.43,1.36-1.15,1.44c-0.06,0.01-0.13,0.01-0.19,0.01C91.24,22.4,90.52,21.94,90.52,21.04z
	 M10.26,22.33c-0.47-0.08-0.94-0.13-1.41-0.14c-0.47,0.02-0.95,0.06-1.42,0.14l0.01-0.01l-0.01,0.01l0.18-9.49
	C6.29,10.57,2.42,3.64,0,0l0.01,0.01L0.01,0c0.96,0.27,1.98,0.27,2.95,0L2.94,0.01L2.96,0c1.54,2.72,3.9,6.53,5.89,9.84
	C10.81,6.61,13.9,1.57,14.74,0l0,0l0,0l0,0c0.97,0.24,1.99,0.24,2.96,0l0,0l-0.01,0.01c-1.12,1.52-5.16,8.53-7.62,12.84h0.01
	L10.26,22.33z M67.99,11.16c0-6.57,4.76-10.1,10.98-10.1c7,0,11.06,4.15,11.06,10.2c0,6.42-4.35,10.08-11.01,10.08
	C71.16,21.34,67.99,16.57,67.99,11.16z M70.94,11.12c0,6.68,3.84,9.15,8.05,9.15c3.94,0,8.11-2.21,8.11-9.01
	c0-6.26-3.44-9.1-8.12-9.1C75.19,2.15,70.94,4.2,70.94,11.12L70.94,11.12z M47.87,11.22c0-5.14,3.28-9.1,9.53-9.1
	c5.8,0,9.55,3.44,9.55,9.16c0,5.13-3.13,8.99-9.56,8.99C51.45,20.27,47.87,16.84,47.87,11.22L47.87,11.22z M50.8,11.25
	c0,5.03,2.45,8.02,6.61,8.02c3.82,0,6.62-2.6,6.62-8.04s-2.81-8.04-6.63-8.04h-0.17C53.82,3.26,50.8,5.55,50.8,11.25L50.8,11.25z
	 M27.71,20.04L27.71,20.04c-0.67-1.73-1.36-3.46-2.05-5.19c-2.41-0.08-4.83-0.07-7.24,0l0,0c-0.71,1.81-1.43,3.6-2.06,5.18
	l-0.02-0.01l0.02,0.01c-0.95-0.24-1.95-0.24-2.9,0l0.02-0.01l-0.04,0.01c2.46-5.01,5.19-11.73,7.56-17.68l0,0
	c0.66,0.25,1.39,0.25,2.05,0l-0.01,0.01l0.02-0.01c2.26,5.72,5.82,14.37,7.59,17.68h-0.01h0.01C29.69,19.79,28.68,19.79,27.71,20.04
	L27.71,20.04z M25.17,13.62c-1.09-2.75-2.16-5.49-3.14-8.21c-0.64,1.85-1.85,4.97-3.13,8.21C20.99,13.69,23.08,13.69,25.17,13.62
	L25.17,13.62z M13.44,20.04c0,0,0.01,0,0.01,0H13.44z M44.08,20.04L44.08,20.04L44.08,20.04c0.14-2.74,0.22-5.48,0.22-8.22
	c-3.29-0.04-6.59-0.04-9.88,0l0,0c0.01,2.74,0.09,5.48,0.23,8.22h-0.01h0.01c-0.97-0.24-1.98-0.24-2.94,0
	c0.24-5.88,0.26-11.77,0-17.68c0.97,0.24,1.98,0.24,2.95,0l0,0l0,0c-0.14,2.75-0.22,5.5-0.23,8.25l0,0c3.29,0.08,6.58,0.08,9.88,0
	c-0.01-2.75-0.08-5.5-0.23-8.25c0.97,0.24,1.98,0.24,2.95,0c-0.26,5.9-0.23,11.79,0,17.68C46.05,19.8,45.04,19.8,44.08,20.04
	L44.08,20.04z M92.03,17.44L92,17.44l0,0h-0.01L92,17.44c0.72-5.08,1.15-10.41,1.58-15.73c-0.08-0.74,0.46-1.39,1.19-1.47
	c0.07-0.01,0.14-0.01,0.21,0c0.1,0,0.2,0.01,0.3,0.03l0,0c0.71,0.05,1.25,0.65,1.23,1.36c-0.03,0.31-0.09,0.63-0.18,0.93
	c-0.5,2.19-2.43,9.91-3.25,15.07l0,0v0.01C92.76,17.46,92.4,17.4,92.03,17.44L92.03,17.44z"/>
</svg>
