<?xml version="1.0" encoding="utf-8"?>
<!-- Generator: Adobe Illustrator 24.1.3, SVG Export Plug-In . SVG Version: 6.00 Build 0)  -->
<svg version="1.1" id="Layer_1" xmlns="http://www.w3.org/2000/svg" xmlns:xlink="http://www.w3.org/1999/xlink" x="0px" y="0px"
	 viewBox="0 0 700 414" style="enable-background:new 0 0 700 414;" xml:space="preserve">
<style type="text/css">
	.st0{display:none;fill:#FFFEFE;}
	.st1{fill:#CFA09F;}
</style>
<g>
	<g>
		<g>
			<path class="st0" d="M-6.4,395.8c0-140.1,0.1-280.2-0.3-420.4c0-9.2,2.3-11,13.8-11c218.3,0.4,436.7,0.4,655,0
				c11.6,0,13.9,1.8,13.8,11c-0.5,137-0.4,274-0.1,411c0,8-2,9.6-12.1,9.6C440.4,395.7,217,395.8-6.4,395.8z M480.1,313l-0.5-0.6
				c-2.1-4.7,3.4-13.4-3.5-13.9c-13.4-1-6.1-7.9-5.1-10.1c3-6,7.4,0.1,11.3,0.7c3-8.4-3.4-8.6-10.9-8.8c-8-0.2-8.7,3-8.6,8.3
				c0.3,13.9,1.3,27.8-1.5,41.6C485.6,332.8,487.7,330.8,480.1,313z M476.3,219.2c-0.3,5.6,1.4,11.2,3.5,16.8
				c1.6,4.2,2.1,9.2,9.3,9.7c6.8,0.5,10.2-4.1,12.5-7.7c3.4-5.4,6.2-11,11.2-15.7c5.5,2.5,4.3,6.6,6,9.7c3.6,6.5,5.8,13.6,17.2,14.1
				c11,0.4,17.4-3.7,21.5-11.7c2.7-5.2,7.6-9.8,11.8-15c4.3,9.1-6.5,17.9,1.5,26.4c10.5-3.2,11.3-10.5,12.7-16.6
				c2.4-10.5,3.5-21.2,4.3-31.8c1.3-18.7,12.2-34.2,24.9-53c4,15,2.1,26.6,0.6,38.4c-2.3,17.7-7.7,35.2-4.4,53.1
				c0.9,4.8,2.6,9.6,10.7,10.3c7.5,0.7,11.7-2.5,14.5-7.2c6.1-10.4,13.3-20.7,17.6-31.6c4.9-12.6,13.9-24.8,10.2-40.7
				c-15.1,19.9-14.2,43.6-35.3,59.3c-5.6-4.5-3.1-8.8-2.8-13.2c1.5-20.9,8.2-41.4,7.9-62.4c-0.1-9,0.7-20-10.5-23.7
				c-11.7-3.9-14.3,8.8-21.9,13.3c-2.8-3.2,0.6-10-8.7-9.1c-7.5,0.7-8.3,5.6-9,9.8c-1.7,10.6-3.2,21.2-3.9,31.9
				c-1.3,19.2-8.5,36.5-25.6,50.5c-8.9,7.2-16.8,5.6-21.4-3.7c-6.1-12.4,0.6-22.5,9.4-31.9c15.1-16.2,24.4-33.9,23.5-54.3
				c-0.2-5.2-1.1-11-9.4-12.7c-7.8-1.6-12.4,1.9-16.6,6.6c-17.3,19.2-21.8,41.5-24.2,64.1c-1.5,13.9-5,26.7-22.9,36.7
				c-1.4-17.8-3.2-33.6,2.7-49.2c15.3-40.7,24-82.3,25.9-124.7c0.3-6.5,1.8-17.4-7.8-17.9c-8.7-0.4-10.1,10-11.3,17.1
				c-4.6,28.7-9.3,57.3-14.1,86.8c-5.3-5.5-2.8-14.7-14.8-14.8c-11.9-0.2-15.6,7.2-20.6,13.5c-0.9,1.1-1.8,2.4-2.1,3.6
				c-4.7,16.4-12.9,32.4-12.5,49.5c0.2,9.8-3.1,18.4-9.4,26.5c-3.1,4-4.8,10.7-12.6,8.6c-8.5-2.3-5.4-9.1-3.9-13.9
				c3.9-12.5,9.1-24.8,13.4-37.2c6.2-17.7-2-33-19.1-36.4c-0.2-12.7,5.9-26.2-7.7-40c-10.5,14.3-16.6,27.6-13.9,41.8
				c1.6,8.4,0.1,15.7-2.1,23.5c-3.3,11.3-6,22.6-9.9,33.7c-3.3,9.4-4.2,19.9-14.4,27.5c-6.1-6.6-4.3-13.2-3.6-19.9
				c2.5-24.7,10.2-49.3,1.8-74.1c-1.6-4.7-1.9-9.9-9.2-11.5c-7.6-1.7-11.4,3-15.2,6.5c-3.6,3.3-6.2,7.4-8.6,11.4
				c-11.2,18.7-16,38.8-19.7,59.1c-1.4,7.6-4.6,14-14.7,20.9c-1.4-27.2,6.2-51,8-75.2c0.3-4.1,5.8-9.2-1.4-11.8
				c-9-3.2-8.8,4.9-12.5,10.4c-2.3-5.5-3.4-8.9-5.2-12.1c-6.3-11-13.3-11.5-22.8-1.8c-4.8,5-8.5,10.2-10.7,16.4
				c-10.6,29.9-17,59.9-5.7,90.6c1.8,4.8,2.7,9.9,10.3,10.7c8.1,0.9,12.1-3.9,15.2-8.5c2-2.8,3-5.9,7.4-8
				c1.7,12.1-6.6,20.1-13.6,28.5c-29.3,35.4-33.8,73.6-19.5,113.7c1.8,5.2,4.9,10.7,12.6,11.1c9.1,0.4,9.2-6.5,11.1-11.3
				c1.3-3.4,2.1-6.9,3-10.4c7.5-28.8,11-58,13.8-87.3c1.7-18.1,7.1-35,22.4-49.5c4.1,3.7,4.4,7.8,5.2,11.7c0.9,4.5,2.4,9.1,9,10.1
				c7.5,1.1,10.6-3.5,13.9-7.8c3.7-4.9,7.7-9.7,12.7-16c2,6.5,3.1,10.9,4.6,15.2c1.7,5,4.4,9.1,12.5,8.6c7.3-0.4,9.5-4.6,10.1-9
				c1-7.3,6.1-13.3,8.8-20.1c6.1-15.1,16.3-29.3,16.7-45.6c0.1-5.3-0.1-10.5,8.6-10.4c11.4,0.1,8.1,7.3,7,11.9
				c-2.9,12.2-6.1,24.5-10.7,36.3c-4.2,10.8-2.3,21.2,1.1,31.6c3.8,11.4,11.6,12.5,22.1,4.5c6.3-4.8,6.7-12.9,14.3-17
				c6.6,3.9,1.4,13.6,13.6,13.7C468.4,241.3,463.7,225.2,476.3,219.2z M81,239.3c-11.7-9.9-22.4-9-32.3,0.2
				c-12.8,11.9-15,25.3-11.4,39.9c1.3,5.2,2,11.2,10.5,12c7.6,0.7,14.8,1.2,21.7-4.2c6.9-5.3,7.3-12.9,13.4-18.2
				c21.3,26.1,22.3,26.5,38.1,19.1c-24.3-15-30.5-31.8-20.6-56.2c18-44.1,24.8-89.6,23.7-135.5c-0.6-23.6-0.5-48.3-19.2-69.3
				c-6.4-7.2-15.6-8.7-22.4-2.4C73.4,33,63.7,41.1,58.9,51.8C39,95.9,30.4,141.4,35,188.2c1,10,3.7,20.2,11.4,29
				c3.4,3.9,7.5,6.1,12.4,3.4c4.6-2.6,7.9-6.5,2.5-11.2c-4.6-4-6.7-8.7-8-14.2c-5.4-22.7-2.3-45.3,1-67.8
				c3.6-24.8,10.3-49.1,22.4-72.2c3.4-6.4,7.6-15.5,16.9-14.4c8.9,1.1,10.4,10.4,11.6,17.5C115.8,120,101.2,179.5,81,239.3z
				 M158.8,159.7c5.8,21.2,12.1,40,11.1,59.7c-0.2,2.9,0.1,6.9-5.2,7.4c-6.2,0.5-6.4-4.1-8-7.2c-2.3-4.3,0.9-10-5-13.5
				c-13.4,9.1-12.1,35.9,1.8,43c8.4,4.3,12.7-2.6,14.4-5.4c8.6-14.6,20.9-28.7,15.2-46.4c-3.4-10.8-6.9-21.6-8.8-32.5
				c-1.9-10.8-6.7-22-1-32.7c4.8-9.1,2.7-16.8-3.6-25.3c-8.4,9-16.7,16.7-18.1,27.4c-1.3,9.5,1,18.9-3.9,28.6
				c-4.3,8.4-12.7,17.6-5.7,30.2C147.8,181.3,152.7,171.7,158.8,159.7z M152.4,20.4c-8.3,6.1-12,12.7-13.1,20
				c-2.8,18.1-5.3,36.2-7.1,54.4c-0.4,3.8-7.1,11,3.5,11.8c9.5,0.7,8.4-7,9.4-11.9c2.5-13.2,5.7-26.4,6.3-39.7
				C151.9,44,159.8,32.9,152.4,20.4z M385.5,302c10.6,9.5,9.4,20.7,18.5,30.5c4.5-17.7-1-33.7,3.8-49.2c0.5-1.7-2.1-2.9-4.7-2.4
				c-2.8,0.5-3.4,2.4-2.7,4.1c3.1,6.7,1.7,13.4,1.5,20.9c-11.5-6.9-6.5-20.4-21.3-26.2c0.6,16.7,3.6,31.9-0.9,47
				c-0.8,2.7,0.3,4.5,3.7,4.5c4.6,0,5.1-2,3.6-5.3C383.7,319,385.8,311.8,385.5,302z M578.9,322.2c-1.1,3.9-2.1,8.1,4.9,9.2
				c4.5,0.7,8.8,0.2,10.5-4.4c4.8-13.5,5.4-27.1,1.8-40.8c-1.8-6.5-8.9-7.5-14.3-4.8c-6.6,3.3-6.2,10.2-5.9,15.7
				c0.3,5.5,1.8,11.6,9.4,14.3c6,2.2,6.7,4.4,4.8,9.6C587,329.1,582.4,319.7,578.9,322.2z M544.3,322.9c-0.5,4.4-0.7,8.2,6.7,8.6
				c6.7,0.4,8.5-2.8,10-7.1c3.2-9.2,3.2-18.5,2.9-27.8c-0.2-5.7,0.1-12-6.7-15.6c-3-1.6-8.3-1.8-11,0.7c-6,5.5-6,12.2-4,18.9
				c1.2,4.1,4.1,6.1,9.9,7.6c9,2.3,4.4,8.5,3.1,13.4C553,329.4,547.8,321.7,544.3,322.9z M322.2,281.6c-5.9,9.6-6.5,18.3,3.4,26.4
				c6,5,11.2,10.9,3.1,17.8c-7.2-2-5.5-7.9-10.4-11.4c-0.2,2.8-0.6,4.8-0.5,6.9c0.2,4.6-2,9.9,8,10.4c9.4,0.5,13.5-3.1,14.8-9.6
				c1.3-6.7,1.6-14.1-5-18.9C327.2,297.2,322.5,290.6,322.2,281.6z M613.5,314.6c-4,5.1-5.6,10.1-1,15c2.8,3,7.4,2.6,10.9,1.5
				c7.6-2.3,8.3-8,8.1-13.4c-0.2-9.6-4.5-18.7-1.7-28.8c1.9-7-9.2-11.4-15.9-7.5c-2.7,1.5-2.5,3.9-2.5,6c0,1.1,0.4,2.9,2.8,1.9
				c12.5-5.1,8.2,3.2,6.5,6c-3.5,5.7-2,10,1.7,14.9c3.4,4.6,2.8,9.5-1,13.9c-0.7,0.8-2.8,0.8-5,1.4
				C615.5,321.8,614.6,318.4,613.5,314.6z M431.4,280.4c-13.8,11.9-16,36.9-5.5,47.5c5.1,5.2,10.4,4.7,15.8,1.7
				C419.6,315.6,430.3,298.3,431.4,280.4z M525.7,274.7c-2.4,6.5-12.3,10.3-9.3,15.3c7.2,12.2,3.7,24.1,2.1,36.1
				c-0.5,3.6,0.4,5,4.5,5.2c3.5,0.1,7.5-0.3,6.3-4.1C523.9,310.3,529.8,293,525.7,274.7z M354.8,308.3c-0.6,4.7,1.6,11.5-1.5,17.9
				c-1.7,3.5,0.5,5,4.6,5.1c4.6,0.1,6.9-0.6,5.5-5.5c-3.5-12.6-1.9-25.5-0.8-38.3c0.3-3,3.2-6.6-3.3-6.7c-5.9,0-4.5,3.9-4.5,7
				C354.9,294.1,354.8,300.3,354.8,308.3z M335.9,294.2c0.9-4.5,5.4-9.6-5-15.1C333.2,285.9,334.6,290,335.9,294.2z M438.7,278.6
				c2.4,7,3.7,10.9,5.1,14.8C445.4,289,448.6,284.3,438.7,278.6z"/>
			<path class="st1" d="M476.3,219.2c-12.6,6-8,22.2-27.2,22c-12.3-0.1-7-9.8-13.6-13.7c-7.6,4.1-8,12.2-14.3,17
				c-10.5,8-18.4,6.9-22.1-4.5c-3.4-10.3-5.2-20.7-1.1-31.6c4.6-11.9,7.8-24.1,10.7-36.3c1.1-4.6,4.4-11.7-7-11.9
				c-8.7-0.1-8.5,5.1-8.6,10.4c-0.4,16.4-10.5,30.6-16.7,45.6c-2.7,6.7-7.8,12.7-8.8,20.1c-0.6,4.4-2.8,8.6-10.1,9
				c-8.1,0.5-10.7-3.7-12.5-8.6c-1.5-4.3-2.6-8.6-4.6-15.2c-5,6.2-9,11-12.7,16c-3.2,4.3-6.3,8.9-13.9,7.8c-6.6-1-8.1-5.6-9-10.1
				c-0.8-3.9-1-8-5.2-11.7c-15.2,14.5-20.7,31.4-22.4,49.5c-2.8,29.3-6.3,58.5-13.8,87.3c-0.9,3.5-1.7,7-3,10.4
				c-1.9,4.9-2,11.7-11.1,11.3c-7.7-0.3-10.7-5.9-12.6-11.1c-14.3-40.1-9.8-78.3,19.5-113.7c7-8.5,15.4-16.5,13.6-28.5
				c-4.5,2.2-5.5,5.2-7.4,8c-3.2,4.6-7.2,9.4-15.2,8.5c-7.5-0.9-8.5-5.9-10.3-10.7c-11.3-30.8-4.9-60.7,5.7-90.6
				c2.2-6.2,5.8-11.5,10.7-16.4c9.5-9.7,16.5-9.2,22.8,1.8c1.8,3.2,2.9,6.6,5.2,12.1c3.7-5.5,3.5-13.6,12.5-10.4
				c7.1,2.6,1.7,7.7,1.4,11.8c-1.8,24.2-9.4,48-8,75.2c10.1-7,13.3-13.4,14.7-20.9c3.7-20.3,8.5-40.4,19.7-59.1
				c2.4-4,5.1-8.1,8.6-11.4c3.8-3.5,7.6-8.2,15.2-6.5c7.3,1.7,7.6,6.8,9.2,11.5c8.4,24.9,0.7,49.5-1.8,74.1
				c-0.7,6.7-2.5,13.3,3.6,19.9c10.2-7.5,11.1-18,14.4-27.5c3.9-11.1,6.6-22.5,9.9-33.7c2.2-7.7,3.7-15.1,2.1-23.5
				c-2.7-14.2,3.4-27.5,13.9-41.8c13.6,13.8,7.5,27.3,7.7,40c17.1,3.4,25.3,18.8,19.1,36.4c-4.4,12.4-9.5,24.7-13.4,37.2
				c-1.5,4.7-4.6,11.6,3.9,13.9c7.8,2.1,9.5-4.6,12.6-8.6c6.3-8.1,9.6-16.7,9.4-26.5c-0.4-17.1,7.7-33.1,12.5-49.5
				c0.4-1.3,1.2-2.5,2.1-3.6c5-6.3,8.7-13.7,20.6-13.5c12,0.2,9.5,9.3,14.8,14.8c4.8-29.5,9.5-58.1,14.1-86.8
				c1.1-7.1,2.6-17.5,11.3-17.1c9.6,0.5,8.1,11.4,7.8,17.9c-1.9,42.4-10.6,84-25.9,124.7c-5.9,15.6-4.1,31.4-2.7,49.2
				c17.8-10,21.4-22.8,22.9-36.7c2.4-22.7,6.9-44.9,24.2-64.1c4.2-4.7,8.8-8.2,16.6-6.6c8.3,1.7,9.2,7.5,9.4,12.7
				c0.9,20.4-8.4,38.1-23.5,54.3c-8.8,9.4-15.5,19.5-9.4,31.9c4.6,9.3,12.5,10.9,21.4,3.7c17.2-14,24.3-31.2,25.6-50.5
				c0.7-10.7,2.2-21.3,3.9-31.9c0.7-4.2,1.4-9.1,9-9.8c9.3-0.8,5.8,5.9,8.7,9.1c7.6-4.5,10.2-17.2,21.9-13.3
				c11.1,3.7,10.3,14.8,10.5,23.7c0.3,21-6.4,41.5-7.9,62.4c-0.3,4.4-2.8,8.7,2.8,13.2c21-15.7,20.2-39.4,35.3-59.3
				c3.7,15.9-5.3,28.1-10.2,40.7c-4.2,10.9-11.4,21.2-17.6,31.6c-2.8,4.7-7,7.8-14.5,7.2c-8.1-0.7-9.8-5.4-10.7-10.3
				c-3.4-17.9,2.1-35.5,4.4-53.1c1.5-11.7,3.5-23.3-0.6-38.4c-12.7,18.7-23.6,34.3-24.9,53c-0.7,10.7-1.9,21.4-4.3,31.8
				c-1.4,6.1-2.1,13.5-12.7,16.6c-8.1-8.5,2.8-17.2-1.5-26.4c-4.2,5.2-9.1,9.7-11.8,15c-4.2,8-10.5,12.1-21.5,11.7
				c-11.5-0.4-13.6-7.6-17.2-14.1c-1.7-3.1-0.4-7.3-6-9.7c-5,4.7-7.8,10.3-11.2,15.7c-2.2,3.6-5.7,8.2-12.5,7.7
				c-7.2-0.5-7.7-5.5-9.3-9.7C477.8,230.4,476,224.8,476.3,219.2z M268.8,136.6c-5.3,0-7.2,0.6-8.3,2.4
				c-14.9,24.6-19.5,50.3-13.5,77.3c0.8,3.6,3.1,5.3,7.8,5.6c5.4,0.2,8-2.2,10.3-5.5C284.3,189.9,275,163.3,268.8,136.6z
				 M446.4,206.5c3.2,4.8-0.3,12.9,8.1,14.8c9.6,2.1,10.7-6.2,14.2-10.8c16.8-21.6,14.8-44.8,7.9-68.2c-0.7-2.5-0.7-5.6-5.2-5.9
				c-4.3-0.3-5.6,2.5-7,4.9c-1.9,3.2-3.3,6.6-5.1,9.8c-8.3,14.7-1.9,31.4-10.1,46.1C447.6,199.9,447.3,203.2,446.4,206.5z
				 M339.6,136.2c-17.8,18.6-27.5,72.3-15.2,85.9C348.8,195.7,347.8,167.1,339.6,136.2z M248.4,355.2c10.5-28.2,13.1-57.1,15.4-86.1
				C244.9,296.2,232.5,324.1,248.4,355.2z M545.8,136.6c-8.1,11.7-17.9,23.1-10.4,38.8C545,163,554.3,151.7,545.8,136.6z"/>
			<path class="st1" d="M81,239.3c20.2-59.7,34.8-119.2,24.4-181c-1.2-7.1-2.8-16.4-11.6-17.5c-9.3-1.1-13.5,8-16.9,14.4
				c-12.2,23.1-18.8,47.4-22.4,72.2c-3.3,22.5-6.4,45.1-1,67.8c1.3,5.5,3.3,10.2,8,14.2c5.4,4.7,2.2,8.6-2.5,11.2
				c-4.9,2.7-9,0.5-12.4-3.4c-7.6-8.8-10.4-19-11.4-29c-4.7-46.8,4-92.3,23.9-136.5C63.7,41.2,73.4,33,82.4,24.7
				c6.8-6.2,16-4.7,22.4,2.4c18.7,21,18.7,45.7,19.2,69.3c1.1,46-5.8,91.5-23.7,135.5c-9.9,24.3-3.7,41.2,20.6,56.2
				c-15.8,7.5-16.7,7-38.1-19.1c-6.1,5.3-6.5,12.9-13.4,18.2c-6.9,5.3-14.1,4.8-21.7,4.2c-8.6-0.8-9.3-6.8-10.5-12
				c-3.6-14.6-1.3-27.9,11.4-39.9C58.6,230.2,69.3,229.4,81,239.3z M57.5,272.2c5-4,12.1-7.6,13.4-14.8c0.6-3.7-1.2-6.6-6.3-5.9
				c-10.2,1.4-11.6,8.4-13.3,14.8C50.7,268.8,51.1,271.8,57.5,272.2z"/>
			<path class="st1" d="M158.8,159.7c-6.1,12-11,21.6-17,33.4c-6.9-12.7,1.5-21.9,5.7-30.2c5-9.7,2.7-19.1,3.9-28.6
				c1.4-10.6,9.7-18.3,18.1-27.4c6.3,8.5,8.5,16.1,3.6,25.3c-5.7,10.8-0.9,21.9,1,32.7c2,11,5.4,21.8,8.8,32.5
				c5.7,17.7-6.6,31.8-15.2,46.4c-1.6,2.8-5.9,9.7-14.4,5.4c-13.9-7.1-15.2-33.9-1.8-43c5.9,3.5,2.7,9.2,5,13.5
				c1.7,3.1,1.8,7.7,8,7.2c5.2-0.5,5-4.5,5.2-7.4C170.9,199.7,164.6,180.9,158.8,159.7z"/>
			<path class="st1" d="M152.4,20.4c7.4,12.6-0.6,23.6-1,34.7c-0.6,13.3-3.7,26.5-6.3,39.7c-0.9,4.9,0.1,12.6-9.4,11.9
				c-10.6-0.8-3.9-7.9-3.5-11.8c1.8-18.2,4.3-36.3,7.1-54.4C140.5,33.1,144.1,26.4,152.4,20.4z"/>
			<path class="st1" d="M385.5,302c0.4,9.8-1.7,17,1.5,23.8c1.5,3.3,1,5.3-3.6,5.3c-3.5,0-4.5-1.8-3.7-4.5c4.5-15.1,1.4-30.3,0.9-47
				c14.8,5.8,9.8,19.3,21.3,26.2c0.2-7.5,1.6-14.2-1.5-20.9c-0.8-1.7-0.2-3.6,2.7-4.1c2.6-0.5,5.2,0.7,4.7,2.4
				c-4.8,15.4,0.7,31.5-3.8,49.2C394.9,322.7,396,311.5,385.5,302z"/>
			<path class="st1" d="M578.9,322.2c3.5-2.4,8.2,7,11.1-1.1c1.9-5.3,1.2-7.4-4.8-9.6c-7.6-2.8-9.1-8.8-9.4-14.3
				c-0.3-5.5-0.6-12.4,5.9-15.7c5.4-2.7,12.5-1.7,14.3,4.8c3.7,13.7,3,27.3-1.8,40.8c-1.6,4.6-5.9,5.1-10.5,4.4
				C576.8,330.3,577.7,326.1,578.9,322.2z M588.6,304.1c3-8.1,4.9-13.1-2.1-18.2C583.4,291.8,583,296.6,588.6,304.1z"/>
			<path class="st1" d="M480.1,313c7.6,17.8,5.5,19.9-18.8,17.3c2.8-13.8,1.7-27.7,1.5-41.6c-0.1-5.3,0.6-8.5,8.6-8.3
				c7.5,0.2,13.9,0.4,10.9,8.8c-3.9-0.6-8.3-6.8-11.3-0.7c-1.1,2.1-8.3,9.1,5.1,10.1c7,0.5,1.5,9.2,3.5,13.9
				c-2.1-1.4-5.3-4.2-6.2-3.8c-7.2,3-2.4,8.5-3.3,12.9c-0.5,2.3,1.3,4.6,4.8,4.1c6.2-0.9,4.7-5.3,5.3-8.6
				C480.4,315.7,480.1,314.3,480.1,313z"/>
			<path class="st1" d="M544.3,322.9c3.5-1.2,8.7,6.5,10.8-1.2c1.3-4.9,5.9-11.1-3.1-13.4c-5.8-1.5-8.6-3.5-9.9-7.6
				c-2-6.7-2-13.4,4-18.9c2.7-2.5,8-2.3,11-0.7c6.8,3.6,6.5,9.9,6.7,15.6c0.3,9.3,0.3,18.7-2.9,27.8c-1.5,4.2-3.3,7.4-10,7.1
				C543.6,331.1,543.7,327.3,544.3,322.9z M550.9,284.3c-3.8,7.7-3.4,12.7,4.5,19.4C557,296,559.4,290.8,550.9,284.3z"/>
			<path class="st1" d="M322.2,281.6c0.3,9.1,5,15.7,13.4,21.7c6.6,4.7,6.3,12.1,5,18.9c-1.3,6.5-5.3,10-14.8,9.6
				c-10-0.5-7.8-5.9-8-10.4c-0.1-2,0.3-4.1,0.5-6.9c5,3.5,3.2,9.4,10.4,11.4c8.1-6.8,2.9-12.8-3.1-17.8
				C315.7,299.8,316.2,291.2,322.2,281.6z"/>
			<path class="st1" d="M613.5,314.6c1,3.8,2,7.2,3,10.9c2.2-0.5,4.3-0.6,5-1.4c3.8-4.4,4.4-9.4,1-13.9c-3.7-4.9-5.3-9.2-1.7-14.9
				c1.7-2.7,6-11.1-6.5-6c-2.4,1-2.8-0.8-2.8-1.9c0-2.2-0.2-4.5,2.5-6c6.7-3.9,17.8,0.6,15.9,7.5c-2.8,10.1,1.5,19.2,1.7,28.8
				c0.1,5.4-0.6,11.1-8.1,13.4c-3.4,1-8.1,1.4-10.9-1.5C608,324.7,609.6,319.7,613.5,314.6z"/>
			<path class="st1" d="M431.4,280.4c-1.1,17.9-11.8,35.2,10.4,49.3c-5.5,2.9-10.7,3.4-15.8-1.7
				C415.4,317.4,417.6,292.3,431.4,280.4z"/>
			<path class="st1" d="M525.7,274.7c4.1,18.4-1.8,35.7,3.6,52.6c1.2,3.8-2.8,4.2-6.3,4.1c-4.2-0.2-5-1.6-4.5-5.2
				c1.6-12,5.2-23.9-2.1-36.1C513.4,284.9,523.3,281.1,525.7,274.7z"/>
			<path class="st1" d="M354.8,308.3c0-8,0.1-14.3,0-20.5c-0.1-3-1.4-7,4.5-7c6.5,0,3.6,3.6,3.3,6.7c-1.1,12.8-2.7,25.7,0.8,38.3
				c1.3,4.8-0.9,5.5-5.5,5.5c-4.1-0.1-6.3-1.5-4.6-5.1C356.4,319.8,354.2,313.1,354.8,308.3z"/>
			<path class="st1" d="M335.9,294.2c-1.4-4.1-2.8-8.3-5-15.1C341.4,284.6,336.9,289.7,335.9,294.2z"/>
			<path class="st1" d="M438.7,278.6c9.9,5.7,6.7,10.4,5.1,14.8C442.5,289.5,441.1,285.6,438.7,278.6z"/>
			<path class="st0" d="M268.8,136.6c6.2,26.6,15.4,53.3-3.8,79.8c-2.3,3.2-4.9,5.7-10.3,5.5c-4.7-0.2-7-2-7.8-5.6
				c-6-26.9-1.4-52.7,13.5-77.3C261.6,137.2,263.5,136.6,268.8,136.6z"/>
			<path class="st0" d="M446.4,206.5c0.9-3.3,1.2-6.5,2.8-9.3c8.3-14.7,1.8-31.5,10.1-46.1c1.8-3.2,3.2-6.6,5.1-9.8
				c1.4-2.3,2.7-5.2,7-4.9c4.5,0.3,4.5,3.4,5.2,5.9c6.8,23.4,8.9,46.6-7.9,68.2c-3.5,4.5-4.6,12.9-14.2,10.8
				C446,219.4,449.5,211.3,446.4,206.5z"/>
			<path class="st0" d="M339.6,136.2c8.2,31,9.2,59.5-15.2,85.9C312.1,208.5,321.7,154.7,339.6,136.2z"/>
			<path class="st0" d="M248.4,355.2c-15.8-31.1-3.4-59,15.4-86.1C261.5,298,258.9,327,248.4,355.2z"/>
			<path class="st0" d="M545.8,136.6c8.4,15.1-0.9,26.4-10.4,38.8C527.9,159.7,537.7,148.2,545.8,136.6z"/>
			<path class="st0" d="M57.5,272.2c-6.4-0.4-6.8-3.4-6.2-5.9c1.6-6.4,3.1-13.4,13.3-14.8c5.1-0.7,6.9,2.1,6.3,5.9
				C69.7,264.6,62.5,268.2,57.5,272.2z"/>
			<path class="st0" d="M588.6,304.1c-5.6-7.5-5.1-12.3-2.1-18.2C593.5,291,591.5,296,588.6,304.1z"/>
			<path class="st0" d="M480.1,313c0,1.3,0.3,2.7,0.1,4c-0.6,3.3,0.9,7.7-5.3,8.6c-3.6,0.5-5.3-1.8-4.8-4.1
				c0.9-4.4-3.8-9.9,3.3-12.9c0.9-0.4,4.1,2.5,6.2,3.8L480.1,313z"/>
			<path class="st0" d="M550.9,284.3c8.5,6.5,6,11.6,4.5,19.4C547.5,297,547.1,292.1,550.9,284.3z"/>
		</g>
	</g>
</g>
</svg>
