<?xml version="1.0" encoding="utf-8"?>
<!-- Generator: Adobe Illustrator 24.1.3, SVG Export Plug-In . SVG Version: 6.00 Build 0)  -->
<svg version="1.1" id="Layer_1" xmlns="http://www.w3.org/2000/svg" xmlns:xlink="http://www.w3.org/1999/xlink" x="0px" y="0px"
	 viewBox="0 0 1246.65 637.83" style="enable-background:new 0 0 1246.65 637.83;" xml:space="preserve">
<style type="text/css">
	.st0{display:none;fill:#FFFEFE;}
	.st1{fill:#CFA09F;}
</style>
<g>
	<g>
		<path class="st0" d="M20.79,629.4c0-201.83,0.26-403.66-0.59-605.49C20.15,10.7,24.28,8.08,45,8.11
			c391.27,0.51,782.55,0.51,1173.83,0c20.72-0.03,24.85,2.59,24.79,15.8c-0.85,197.33-0.79,394.66-0.09,592
			c0.04,11.5-3.63,13.83-21.68,13.82C821.5,629.3,421.15,629.4,20.79,629.4z M892.55,510.13l-0.96-0.83
			c-3.72-6.76,6.13-19.24-6.36-19.98c-23.94-1.42-11.02-11.43-9.1-14.5c5.46-8.71,13.25,0.16,20.28,1.05
			c5.44-12.09-6.04-12.37-19.48-12.61c-14.37-0.25-15.59,4.3-15.41,11.93c0.46,20.01,2.37,40.07-2.62,59.94
			C902.41,538.74,906.22,535.76,892.55,510.13z M885.79,375.04c-0.54,8.08,2.58,16.15,6.33,24.14c2.83,6.01,3.76,13.23,16.68,13.99
			c12.2,0.72,18.36-5.92,22.35-11.04c6.11-7.84,11.11-15.86,20.02-22.68c9.92,3.53,7.62,9.57,10.7,13.99
			c6.47,9.31,10.33,19.66,30.87,20.27c19.75,0.58,31.11-5.4,38.55-16.87c4.89-7.55,13.64-14.08,21.18-21.59
			c7.73,13.17-11.73,25.78,2.73,37.98c18.88-4.58,20.19-15.18,22.71-23.96c4.32-15.08,6.36-30.51,7.68-45.85
			c2.3-26.89,21.79-49.27,44.63-76.27c7.25,21.63,3.79,38.34,1.06,55.25c-4.1,25.44-13.83,50.73-7.82,76.54
			c1.63,6.98,4.69,13.77,19.21,14.79c13.46,0.95,20.98-3.54,25.93-10.3c11.02-15.03,23.88-29.77,31.45-45.51
			c8.7-18.09,24.91-35.78,18.27-58.61c-26.97,28.65-25.51,62.81-63.22,85.38c-9.97-6.49-5.62-12.69-5.04-19.05
			c2.73-30.1,14.69-59.6,14.12-89.89c-0.24-12.93,1.19-28.83-18.75-34.19c-21.04-5.66-25.59,12.61-39.29,19.11
			c-5.05-4.61,1.09-14.39-15.51-13.17c-13.51,0.99-14.82,8.03-16.04,14.13c-3.04,15.26-5.68,30.58-6.97,45.93
			c-2.32,27.67-15.15,52.55-45.91,72.67c-15.95,10.43-30.1,8.02-38.29-5.34c-10.94-17.86,1.13-32.34,16.9-45.94
			c27.03-23.32,43.72-48.82,42.1-78.21c-0.42-7.51-2.05-15.83-16.9-18.28c-14.01-2.31-22.31,2.8-29.81,9.51
			c-30.95,27.68-39.04,59.75-43.32,92.39c-2.63,20.05-8.99,38.4-40.97,52.84c-2.58-25.71-5.76-48.45,4.77-70.9
			c27.48-58.63,43-118.54,46.46-179.63c0.53-9.35,3.19-25.06-14.06-25.73c-15.59-0.61-18.14,14.37-20.17,24.59
			c-8.19,41.28-16.61,82.54-25.18,124.98c-9.41-7.92-4.95-21.11-26.51-21.35c-21.4-0.24-28.02,10.4-36.98,19.45
			c-1.6,1.61-3.14,3.39-3.8,5.22c-8.46,23.66-23.06,46.66-22.35,71.35c0.41,14.12-5.56,26.51-16.8,38.24
			c-5.5,5.74-8.61,15.36-22.5,12.37c-15.3-3.29-9.7-13.14-7.05-19.95c7-18,16.22-35.65,24.03-53.53
			c11.11-25.44-3.52-47.56-34.24-52.45c-0.42-18.29,10.52-37.71-13.79-57.57c-18.86,20.62-29.74,39.74-24.96,60.21
			c2.81,12.03,0.21,22.67-3.82,33.81c-5.87,16.21-10.74,32.59-17.73,48.59c-5.95,13.59-7.45,28.7-25.8,39.57
			c-10.91-9.53-7.65-19-6.44-28.66c4.45-35.53,18.35-70.97,3.22-106.78c-2.87-6.78-3.43-14.23-16.52-16.61
			c-13.6-2.48-20.36,4.29-27.17,9.38c-6.41,4.79-11.19,10.64-15.48,16.39c-20.05,26.93-28.71,55.87-35.26,85.07
			c-2.45,10.94-8.19,20.1-26.27,30.17c-2.51-39.19,11.08-73.52,14.31-108.31c0.55-5.9,10.36-13.27-2.44-16.98
			c-16.05-4.65-15.78,7.03-22.35,14.93c-4.21-7.91-6.16-12.85-9.4-17.42c-11.21-15.81-23.86-16.55-40.8-2.62
			c-8.67,7.13-15.16,14.72-19.09,23.65c-18.91,43.08-30.43,86.22-10.15,130.55c3.17,6.95,4.92,14.23,18.38,15.46
			c14.46,1.32,21.6-5.67,27.31-12.25c3.51-4.05,5.34-8.46,13.32-11.59c3.13,17.4-11.89,28.88-24.46,41.11
			c-52.48,50.99-60.56,105.94-34.97,163.71c3.31,7.47,8.85,15.44,22.57,15.92c16.38,0.58,16.49-9.31,19.9-16.31
			c2.37-4.86,3.79-9.92,5.4-14.93c13.4-41.52,19.73-83.61,24.67-125.8c3.05-26.04,12.78-50.48,40.09-71.3
			c7.4,5.35,7.84,11.22,9.28,16.9c1.65,6.48,4.32,13.06,16.09,14.5c13.52,1.65,19.06-5.03,24.84-11.18
			c6.64-7.09,13.77-13.99,22.69-22.99c3.54,9.43,5.59,15.69,8.27,21.83c3.11,7.14,7.81,13.14,22.32,12.44
			c13.08-0.63,16.97-6.68,18.08-13.03c1.85-10.54,10.94-19.2,15.85-28.89c11.02-21.72,29.25-42.2,29.92-65.74
			c0.21-7.58-0.13-15.06,15.46-14.94c20.46,0.15,14.55,10.5,12.63,17.08c-5.16,17.6-11.01,35.22-19.18,52.32
			c-7.47,15.62-4.2,30.58,1.91,45.47c6.72,16.38,20.77,18.05,39.62,6.47c11.33-6.96,11.95-18.54,25.64-24.51
			c11.82,5.62,2.43,19.62,24.39,19.77C871.52,406.97,863.25,383.7,885.79,375.04z M177.36,403.97c-20.96-14.19-40.18-13-57.97,0.36
			c-22.87,17.18-26.87,36.41-20.49,57.42c2.27,7.48,3.51,16.19,18.89,17.31c13.62,0.99,26.6,1.69,38.94-5.98
			c12.3-7.64,13.16-18.55,24.01-26.16c38.24,37.57,39.9,38.23,68.26,27.49c-43.58-21.57-54.72-45.87-36.95-80.89
			c32.22-63.48,44.51-129.03,42.55-195.24c-1.01-34.03-0.94-69.61-34.49-99.88c-11.42-10.3-28.01-12.47-40.18-3.47
			c-16.24,12-33.54,23.68-42.12,38.98c-35.64,63.61-51.16,129.14-42.8,196.54c1.79,14.43,6.7,29.09,20.41,41.76
			c6.12,5.66,13.38,8.84,22.25,4.9c8.33-3.7,14.1-9.38,4.45-16.14c-8.25-5.77-11.92-12.58-14.25-20.5
			c-9.63-32.74-4.06-65.23,1.88-97.71c6.53-35.68,18.37-70.66,40.16-103.94c6.01-9.18,13.54-22.32,30.24-20.72
			c15.87,1.52,18.7,14.91,20.85,25.17C239.67,232.21,213.55,317.94,177.36,403.97z M316.8,289.43c10.42,30.5,21.71,57.6,19.83,86.03
			c-0.28,4.2,0.12,9.96-9.28,10.61c-11.15,0.78-11.4-5.95-14.39-10.35c-4.19-6.18,1.64-14.35-8.96-19.43
			c-23.99,13.16-21.64,51.78,3.27,61.96c15.1,6.18,22.8-3.72,25.73-7.72c15.42-21.05,37.43-41.32,27.26-66.87
			c-6.17-15.49-12.33-31.08-15.84-46.87c-3.46-15.57-12.06-31.63-1.81-47.15c8.67-13.14,4.81-24.17-6.52-36.39
			c-15.08,13.02-29.92,24.12-32.46,39.45c-2.26,13.69,1.84,27.22-7.07,41.26c-7.66,12.07-22.69,25.31-10.28,43.55
			C297.04,320.55,305.87,306.65,316.8,289.43z M305.39,88.66c-14.91,8.72-21.43,18.31-23.44,28.87
			c-4.97,26.07-9.57,52.19-12.72,78.37c-0.66,5.51-12.67,15.8,6.31,16.93c16.95,1.01,15.12-10.04,16.79-17.1
			c4.49-19,10.17-38.04,11.2-57.15C304.37,122.69,318.61,106.77,305.39,88.66z M722.96,494.35c18.93,13.66,16.92,29.83,33.09,43.9
			c8.01-25.51-1.85-48.58,6.8-70.82c0.94-2.41-3.76-4.18-8.45-3.49c-5.1,0.74-6.18,3.46-4.82,5.87c5.47,9.7,2.96,19.3,2.61,30.12
			c-20.53-9.93-11.69-29.38-38.18-37.79c1.05,24.01,6.51,46.01-1.54,67.7c-1.45,3.9,0.46,6.55,6.7,6.5
			c8.25-0.07,9.15-2.91,6.41-7.64C719.86,518.8,723.62,508.47,722.96,494.35z M1069.53,523.36c-2.03,5.66-3.73,11.68,8.87,13.27
			c8.14,1.03,15.78,0.34,18.74-6.35c8.58-19.45,9.76-39.04,3.17-58.72c-3.15-9.41-15.92-10.84-25.57-6.97
			c-11.75,4.71-11.11,14.7-10.6,22.63c0.5,7.93,3.17,16.65,16.82,20.65c10.74,3.15,12.01,6.29,8.55,13.86
			C1084.18,533.37,1075.81,519.88,1069.53,523.36z M1007.57,524.47c-0.98,6.32-1.27,11.81,12.09,12.44
			c11.99,0.57,15.19-4.06,17.85-10.16c5.76-13.18,5.77-26.6,5.14-40.06c-0.38-8.23,0.14-17.22-12.06-22.43
			c-5.43-2.32-14.9-2.59-19.77,0.99c-10.74,7.87-10.71,17.55-7.1,27.22c2.22,5.94,7.35,8.8,17.72,10.91
			c16.09,3.27,7.88,12.22,5.52,19.29C1023.25,533.87,1013.84,522.68,1007.57,524.47z M609.58,464.89
			c-10.66,13.83-11.65,26.32,6.03,38.05c10.84,7.19,20.08,15.77,5.6,25.62c-12.91-2.9-9.79-11.41-18.71-16.45
			c-0.36,4.02-1,6.96-0.81,9.88c0.43,6.6-3.58,14.31,14.42,15.04c16.91,0.69,24.12-4.41,26.44-13.77c2.4-9.72,2.9-20.37-8.96-27.16
			C618.49,487.47,610.17,477.97,609.58,464.89z M1131.71,512.5c-7.1,7.37-10.02,14.48-1.79,21.6c4.94,4.27,13.35,3.7,19.48,2.22
			c13.54-3.27,14.8-11.52,14.6-19.23c-0.36-13.77-8.03-26.91-3.02-41.45c3.45-10.04-16.41-16.43-28.43-10.87
			c-4.82,2.23-4.46,5.56-4.47,8.68c-0.01,1.65,0.71,4.15,5.02,2.74c22.38-7.3,14.67,4.68,11.6,8.62
			c-6.35,8.16-3.57,14.39,3.09,21.47c6.18,6.56,5.01,13.68-1.74,20.03c-1.22,1.14-5.05,1.16-8.93,1.95
			C1135.24,522.8,1133.58,517.95,1131.71,512.5z M805.32,463.23c-24.68,17.15-28.64,53.21-9.83,68.46
			c9.22,7.48,18.57,6.73,28.38,2.51C784.1,513.99,803.28,488.95,805.32,463.23z M974.23,454.96c-4.25,9.33-22.06,14.79-16.66,22.1
			c12.97,17.54,6.66,34.7,3.7,52.04c-0.87,5.12,0.64,7.25,8.12,7.5c6.33,0.21,13.51-0.5,11.35-5.91
			C971.01,506.35,981.55,481.39,974.23,454.96z M668.08,503.46c-1.12,6.83,2.87,16.53-2.7,25.84c-3.03,5.06,0.97,7.17,8.26,7.28
			c8.24,0.12,12.28-0.93,9.88-7.86c-6.29-18.21-3.46-36.78-1.52-55.19c0.46-4.35,5.67-9.54-5.99-9.59
			c-10.53-0.04-8.06,5.66-7.98,10.04C668.2,482.93,668.08,491.87,668.08,503.46z M634.25,483.07c1.69-6.5,9.66-13.78-9.03-21.72
			C629.31,471.18,631.78,477.12,634.25,483.07z M818.45,460.67c4.29,10.08,6.69,15.69,9.08,21.31
			C830.36,475.64,836.14,468.88,818.45,460.67z"/>
		<path class="st1" d="M885.79,375.04c-22.54,8.67-14.27,31.94-48.67,31.71c-21.97-0.15-12.58-14.14-24.39-19.77
			c-13.68,5.97-14.3,17.55-25.64,24.51c-18.85,11.58-32.9,9.91-39.62-6.47c-6.1-14.89-9.38-29.84-1.91-45.47
			c8.18-17.1,14.02-34.73,19.18-52.32c1.93-6.58,7.84-16.92-12.63-17.08c-15.59-0.12-15.25,7.37-15.46,14.94
			c-0.67,23.55-18.9,44.02-29.92,65.74c-4.91,9.68-14,18.34-15.85,28.89c-1.11,6.35-5,12.39-18.08,13.03
			c-14.5,0.7-19.2-5.3-22.32-12.44c-2.69-6.15-4.73-12.4-8.27-21.83c-8.92,9-16.05,15.91-22.69,22.99
			c-5.77,6.16-11.32,12.83-24.84,11.18c-11.76-1.43-14.44-8.01-16.09-14.5c-1.44-5.68-1.88-11.54-9.28-16.9
			c-27.3,20.83-37.03,45.26-40.09,71.3c-4.94,42.2-11.27,84.28-24.67,125.8c-1.61,5-3.03,10.06-5.4,14.93
			c-3.41,7-3.52,16.89-19.9,16.31c-13.71-0.49-19.26-8.45-22.57-15.92c-25.59-57.76-17.52-112.72,34.97-163.71
			c12.58-12.22,27.59-23.7,24.46-41.11c-7.98,3.13-9.81,7.54-13.32,11.59c-5.71,6.58-12.85,13.58-27.31,12.25
			c-13.46-1.23-15.21-8.51-18.38-15.46c-20.27-44.33-8.75-87.46,10.15-130.55c3.92-8.93,10.42-16.52,19.09-23.65
			c16.94-13.93,29.59-13.19,40.8,2.62c3.24,4.57,5.19,9.51,9.4,17.42c6.57-7.9,6.31-19.58,22.35-14.93
			c12.8,3.71,2.99,11.08,2.44,16.98c-3.24,34.79-16.82,69.12-14.31,108.31c18.09-10.08,23.82-19.23,26.27-30.17
			c6.55-29.2,15.21-58.14,35.26-85.07c4.28-5.75,9.07-11.6,15.48-16.39c6.81-5.09,13.57-11.86,27.17-9.38
			c13.1,2.39,13.65,9.83,16.52,16.61c15.13,35.81,1.24,71.25-3.22,106.78c-1.21,9.66-4.48,19.13,6.44,28.66
			c18.35-10.87,19.86-25.98,25.8-39.57c7-16,11.86-32.38,17.73-48.59c4.03-11.14,6.63-21.78,3.82-33.81
			c-4.78-20.47,6.09-39.59,24.96-60.21c24.32,19.86,13.38,39.28,13.81,57.57c30.71,4.89,45.35,27.02,34.23,52.45
			c-7.81,17.88-17.02,35.52-24.03,53.53c-2.65,6.8-8.25,16.66,7.05,19.95c13.89,2.99,17.01-6.63,22.5-12.37
			c11.24-11.73,17.22-24.12,16.8-38.24c-0.72-24.68,13.88-47.68,22.35-71.35c0.65-1.83,2.2-3.61,3.8-5.22
			c8.95-9.05,15.57-19.69,36.98-19.45c21.56,0.24,17.1,13.43,26.51,21.35c8.57-42.43,16.99-83.69,25.18-124.98
			c2.03-10.23,4.58-25.2,20.17-24.59c17.25,0.67,14.58,16.38,14.06,25.73c-3.46,61.09-18.98,121-46.46,179.63
			c-10.52,22.45-7.34,45.19-4.77,70.9c31.98-14.44,38.34-32.79,40.97-52.84c4.28-32.64,12.37-64.7,43.32-92.39
			c7.5-6.71,15.79-11.82,29.81-9.51c14.85,2.45,16.48,10.77,16.9,18.28c1.63,29.38-15.07,54.89-42.1,78.21
			c-15.77,13.61-27.84,28.09-16.9,45.94c8.18,13.36,22.33,15.77,38.29,5.34c30.76-20.11,43.59-45,45.91-72.67
			c1.29-15.35,3.93-30.68,6.97-45.93c1.22-6.1,2.53-13.14,16.04-14.13c16.6-1.22,10.46,8.55,15.51,13.17
			c13.7-6.5,18.24-24.77,39.29-19.11c19.94,5.36,18.51,21.27,18.75,34.19c0.57,30.29-11.38,59.79-14.12,89.89
			c-0.57,6.36-4.93,12.56,5.04,19.05c37.72-22.57,36.26-56.72,63.22-85.38c6.64,22.83-9.58,40.52-18.27,58.61
			c-7.57,15.74-20.43,30.48-31.45,45.51c-4.96,6.77-12.47,11.26-25.93,10.3c-14.52-1.03-17.58-7.81-19.21-14.79
			c-6.01-25.82,3.71-51.11,7.82-76.54c2.73-16.9,6.19-33.61-1.06-55.25c-22.84,27-42.33,49.38-44.63,76.27
			c-1.31,15.34-3.36,30.77-7.68,45.85c-2.51,8.78-3.82,19.38-22.71,23.96c-14.46-12.2,5-24.81-2.73-37.98
			c-7.54,7.5-16.28,14.03-21.18,21.59c-7.44,11.47-18.8,17.46-38.55,16.87c-20.55-0.61-24.4-10.95-30.87-20.27
			c-3.08-4.43-0.78-10.46-10.7-13.99c-8.91,6.82-13.91,14.84-20.02,22.68c-3.99,5.12-10.15,11.76-22.35,11.04
			c-12.92-0.76-13.86-7.98-16.68-13.99C888.36,391.18,885.24,383.12,885.79,375.04z M513.97,256.15
			c-9.54-0.04-12.94,0.87-14.91,3.49c-26.71,35.45-34.94,72.52-24.24,111.29c1.43,5.19,5.48,7.7,13.92,8.01
			c9.65,0.35,14.27-3.23,18.47-7.9C541.62,332.89,525.05,294.51,513.97,256.15z M832.1,356.76c5.67,6.94-0.6,18.58,14.44,21.26
			c17.25,3.07,19.13-8.99,25.44-15.51c30.13-31.15,26.48-64.47,14.24-98.21c-1.33-3.66-1.33-8.03-9.37-8.52
			c-7.75-0.48-10.01,3.64-12.5,7c-3.41,4.59-5.85,9.48-9.12,14.12c-14.9,21.16-3.33,45.24-18.16,66.46
			C834.28,347.34,833.8,351.99,832.1,356.76z M640.76,255.47c-31.97,26.72-49.27,104.17-27.27,123.71
			C657.27,341.19,655.45,300.05,640.76,255.47z M477.33,570.9c18.87-40.6,23.52-82.3,27.59-124.07
			C471.17,485.92,448.93,526.1,477.33,570.9z M1010.37,256.07c-14.58,16.79-32.08,33.27-18.61,55.86
			C1008.83,294.15,1025.5,277.83,1010.37,256.07z"/>
		<path class="st1" d="M177.36,403.97c36.19-86.04,62.31-171.76,43.65-260.68c-2.15-10.26-4.99-23.64-20.85-25.17
			c-16.69-1.61-24.23,11.53-30.24,20.72c-21.79,33.28-33.63,68.26-40.16,103.94c-5.95,32.48-11.51,64.97-1.88,97.71
			c2.33,7.92,5.99,14.72,14.25,20.5c9.65,6.75,3.88,12.44-4.45,16.14c-8.87,3.94-16.12,0.76-22.25-4.9
			c-13.7-12.67-18.61-27.33-20.41-41.76c-8.36-67.4,7.15-132.93,42.8-196.54c8.58-15.31,25.88-26.99,42.12-38.98
			c12.17-8.99,28.76-6.83,40.18,3.47c33.55,30.26,33.48,65.84,34.49,99.88c1.96,66.2-10.33,131.76-42.55,195.24
			c-17.77,35.02-6.64,59.32,36.95,80.89c-28.36,10.74-30.01,10.08-68.26-27.49c-10.85,7.6-11.71,18.51-24.01,26.16
			c-12.35,7.67-25.32,6.98-38.94,5.98c-15.38-1.12-16.62-9.83-18.89-17.31c-6.38-21.02-2.37-40.24,20.49-57.42
			C137.19,390.98,156.41,389.79,177.36,403.97z M135.34,451.41c8.98-5.74,21.73-10.91,23.96-21.38c1.14-5.36-2.12-9.45-11.24-8.44
			c-18.25,2.02-20.83,12.12-23.77,21.32C123.15,446.47,123.85,450.87,135.34,451.41z"/>
		<path class="st1" d="M316.8,289.43c-10.93,17.22-19.75,31.13-30.51,48.08c-12.42-18.24,2.61-31.48,10.28-43.55
			c8.91-14.04,4.81-27.57,7.07-41.26c2.53-15.33,17.37-26.43,32.46-39.45c11.33,12.22,15.19,23.25,6.52,36.39
			c-10.25,15.53-1.66,31.58,1.81,47.15c3.51,15.79,9.68,31.38,15.84,46.87c10.17,25.55-11.85,45.82-27.26,66.87
			c-2.94,4.01-10.63,13.9-25.73,7.72c-24.91-10.18-27.26-48.8-3.27-61.96c10.6,5.08,4.77,13.25,8.96,19.43
			c2.98,4.4,3.24,11.13,14.39,10.35c9.4-0.66,9-6.41,9.28-10.61C338.51,347.02,327.22,319.92,316.8,289.43z"/>
		<path class="st1" d="M305.39,88.66c13.21,18.11-1.02,34.03-1.88,49.92c-1.03,19.11-6.71,38.16-11.2,57.15
			c-1.67,7.06,0.17,18.11-16.79,17.1c-18.98-1.13-6.97-11.42-6.31-16.93c3.15-26.18,7.75-52.3,12.72-78.37
			C283.97,106.98,290.49,97.38,305.39,88.66z"/>
		<path class="st1" d="M722.96,494.35c0.67,14.12-3.1,24.45,2.62,34.35c2.73,4.74,1.84,7.57-6.41,7.64c-6.25,0.05-8.15-2.59-6.7-6.5
			c8.04-21.68,2.58-43.69,1.54-67.7c26.5,8.41,17.65,27.87,38.18,37.79c0.35-10.82,2.86-20.42-2.61-30.12
			c-1.36-2.4-0.28-5.12,4.82-5.87c4.7-0.69,9.39,1.08,8.45,3.49c-8.64,22.24,1.21,45.3-6.8,70.82
			C739.87,524.18,741.88,508.01,722.96,494.35z"/>
		<path class="st1" d="M1069.53,523.36c6.28-3.47,14.65,10.02,19.97-1.63c3.46-7.57,2.19-10.72-8.55-13.86
			c-13.65-4-16.32-12.72-16.82-20.65c-0.5-7.94-1.15-17.92,10.6-22.63c9.65-3.87,22.42-2.44,25.57,6.97
			c6.59,19.69,5.41,39.27-3.17,58.72c-2.95,6.69-10.6,7.38-18.74,6.35C1065.81,535.03,1067.5,529.02,1069.53,523.36z
			 M1086.95,497.37c5.3-11.61,8.79-18.9-3.73-26.25C1077.75,479.7,1076.98,486.57,1086.95,497.37z"/>
		<path class="st1" d="M892.55,510.13c13.67,25.64,9.86,28.61-33.65,24.99c5-19.87,3.08-39.93,2.62-59.94
			c-0.18-7.63,1.05-12.18,15.42-11.93c13.43,0.24,24.91,0.52,19.48,12.61c-7.03-0.89-14.83-9.76-20.28-1.05
			c-1.92,3.07-14.85,13.08,9.1,14.5c12.48,0.74,2.64,13.22,6.36,19.98c-3.8-1.95-9.44-6.08-11.12-5.51
			c-12.83,4.38-4.25,12.29-5.93,18.63c-0.88,3.31,2.26,6.67,8.67,5.89c11.11-1.35,8.4-7.64,9.5-12.4
			C893.15,514.02,892.63,512.05,892.55,510.13z"/>
		<path class="st1" d="M1007.57,524.47c6.26-1.79,15.67,9.4,19.4-1.8c2.36-7.07,10.56-16.02-5.52-19.29
			c-10.37-2.11-15.5-4.97-17.72-10.91c-3.62-9.67-3.64-19.34,7.1-27.22c4.88-3.58,14.34-3.31,19.77-0.99
			c12.2,5.21,11.68,14.2,12.06,22.43c0.62,13.45,0.61,26.88-5.14,40.06c-2.66,6.09-5.86,10.73-17.85,10.16
			C1006.31,536.28,1006.59,530.79,1007.57,524.47z M1019.51,468.9c-6.88,11.16-6.09,18.26,8.15,27.88
			C1030.29,485.65,1034.7,478.26,1019.51,468.9z"/>
		<path class="st1" d="M609.58,464.89c0.59,13.09,8.91,22.58,24.01,31.22c11.86,6.78,11.37,17.44,8.96,27.16
			c-2.31,9.35-9.53,14.46-26.44,13.77c-18-0.73-14-8.44-14.42-15.04c-0.19-2.92,0.45-5.86,0.81-9.88
			c8.91,5.03,5.79,13.54,18.71,16.45c14.47-9.85,5.24-18.43-5.6-25.62C597.93,491.22,598.92,478.72,609.58,464.89z"/>
		<path class="st1" d="M1131.71,512.5c1.87,5.44,3.53,10.3,5.4,15.74c3.88-0.79,7.71-0.81,8.93-1.95
			c6.75-6.35,7.92-13.47,1.74-20.03c-6.66-7.07-9.44-13.31-3.09-21.47c3.06-3.93,10.77-15.92-11.6-8.62
			c-4.31,1.41-5.02-1.09-5.02-2.74c0.02-3.12-0.35-6.45,4.47-8.68c12.02-5.56,31.89,0.83,28.43,10.87
			c-5,14.54,2.67,27.68,3.02,41.45c0.2,7.71-1.06,15.95-14.6,19.23c-6.14,1.48-14.55,2.05-19.48-2.22
			C1121.69,526.99,1124.62,519.88,1131.71,512.5z"/>
		<path class="st1" d="M805.32,463.23c-2.04,25.72-21.22,50.76,18.55,70.98c-9.81,4.22-19.15,4.96-28.38-2.51
			C776.68,516.45,780.65,480.38,805.32,463.23z"/>
		<path class="st1" d="M974.23,454.96c7.31,26.44-3.22,51.4,6.51,75.73c2.17,5.41-5.02,6.12-11.35,5.91c-7.49-0.25-9-2.37-8.12-7.5
			c2.95-17.34,9.27-34.49-3.7-52.04C952.16,469.74,969.98,464.28,974.23,454.96z"/>
		<path class="st1" d="M668.08,503.46c0-11.59,0.13-20.54-0.06-29.48c-0.09-4.37-2.55-10.08,7.98-10.04
			c11.67,0.05,6.45,5.24,5.99,9.59c-1.93,18.41-4.77,36.99,1.52,55.19c2.39,6.93-1.64,7.97-9.88,7.86
			c-7.29-0.11-11.3-2.21-8.26-7.28C670.94,519.99,666.95,510.3,668.08,503.46z"/>
		<path class="st1" d="M634.25,483.07c-2.48-5.95-4.95-11.9-9.03-21.72C643.93,469.29,635.95,476.57,634.25,483.07z"/>
		<path class="st1" d="M818.45,460.67c17.69,8.21,11.92,14.97,9.08,21.31C825.13,476.37,822.74,470.75,818.45,460.67z"/>
		<path class="st0" d="M513.97,256.15c11.08,38.36,27.65,76.74-6.76,114.89c-4.21,4.67-8.83,8.25-18.47,7.9
			c-8.44-0.31-12.48-2.82-13.92-8.01c-10.7-38.78-2.48-75.84,24.24-111.29C501.02,257.02,504.43,256.11,513.97,256.15z"/>
		<path class="st0" d="M832.1,356.76c1.69-4.76,2.18-9.41,4.97-13.41c14.83-21.22,3.26-45.3,18.16-66.46
			c3.27-4.64,5.71-9.53,9.12-14.12c2.49-3.36,4.75-7.47,12.5-7c8.04,0.49,8.04,4.86,9.37,8.52c12.24,33.74,15.89,67.05-14.24,98.21
			c-6.31,6.52-8.19,18.57-25.44,15.51C831.5,375.34,837.77,363.7,832.1,356.76z"/>
		<path class="st0" d="M640.76,255.47c14.69,44.58,16.5,85.72-27.27,123.71C591.49,359.65,608.8,282.2,640.76,255.47z"/>
		<path class="st0" d="M477.33,570.9c-28.4-44.8-6.16-84.98,27.59-124.07C500.85,488.6,496.2,530.3,477.33,570.9z"/>
		<path class="st0" d="M1010.37,256.07c15.14,21.76-1.54,38.08-18.61,55.86C978.29,289.34,995.79,272.86,1010.37,256.07z"/>
		<path class="st0" d="M135.34,451.41c-11.49-0.54-12.19-4.94-11.05-8.5c2.94-9.19,5.52-19.29,23.77-21.32
			c9.11-1.01,12.38,3.08,11.24,8.44C157.07,440.5,144.32,445.67,135.34,451.41z"/>
		<path class="st0" d="M1086.95,497.37c-9.98-10.8-9.21-17.67-3.73-26.25C1095.74,478.47,1092.26,485.76,1086.95,497.37z"/>
		<path class="st0" d="M892.55,510.13c0.08,1.93,0.59,3.89,0.16,5.77c-1.1,4.76,1.61,11.05-9.5,12.4c-6.41,0.78-9.55-2.58-8.67-5.89
			c1.69-6.33-6.89-14.25,5.93-18.63c1.68-0.58,7.32,3.56,11.12,5.51L892.55,510.13z"/>
		<path class="st0" d="M1019.51,468.9c15.18,9.36,10.78,16.74,8.15,27.88C1013.42,487.17,1012.63,480.07,1019.51,468.9z"/>
	</g>
</g>
</svg>
