<?xml version="1.0" encoding="utf-8"?>
<!-- Generator: Adobe Illustrator 24.1.3, SVG Export Plug-In . SVG Version: 6.00 Build 0)  -->
<svg version="1.1" id="Layer_1" xmlns="http://www.w3.org/2000/svg" xmlns:xlink="http://www.w3.org/1999/xlink" x="0px" y="0px"
	 viewBox="0 0 1652.8 958.4" style="enable-background:new 0 0 1652.8 958.4;" xml:space="preserve">
<style type="text/css">
	.st0{display:none;fill:#FFFFFF;}
	.st1{fill:#F3C4C1;}
	.st2{fill:#FFFFFF;}
	.st3{fill:#F0B3AD;}
	.st4{font-family:'ComicSansMS';}
	.st5{font-size:96.7593px;}
</style>
<g>
	<path class="st0" d="M382.2,972.8c-0.6,0-1.2-0.1-1.9-0.1c-1.6,0.6-3.2,1.3-4.8,2c2.4-0.5,4.8-1,7.1-1.4
		C382.5,973.1,382.3,972.9,382.2,972.8z"/>
	<path class="st0" d="M614.2,907.1c-1.2,0.1-2.5,0.2-3.7,0.3c1.3,0.1,2.5,0.2,3.8,0.2C614.2,907.4,614.2,907.3,614.2,907.1z"/>
	<path class="st0" d="M1067.4,908.6c0.6,0,1.2,0,1.9,0c0.1,0,0.1,0,0.2-0.1c4.6-1.4,9.3-2.7,14-3.9c-6.2,0.5-12.4,1.1-18.5,1.9
		C1066,906.8,1066.9,907.6,1067.4,908.6z"/>
	<path class="st0" d="M1668.7-23.1c0-17.2-2.8-21.4-20.9-21.4C1374.9-43.7,1102-44,829.1-44s-545.8,0.1-818.7-0.3
		c-15.7,0-22.3,0.4-22.2,20c0.8,375.6,0.7,751.2,0.2,1126.8c0,15.8,2.9,20,19.6,20c546.7-0.6,1093.3-0.6,1640,0.1
		c18.4,0,20.8-4.5,20.8-21.5C1668.1,726.4,1668.1,351.6,1668.7-23.1z M1483.5,37.7c19.9-19.5,60.9-11.7,80.7,15.5
		c14.3,19.7,18.3,42,16.7,61.5c0.1,31.3-4.5,56.7-20.9,79.4c-23.5,32.7-62.1,33.3-87.2,0.7C1441.4,153.7,1446.8,73.7,1483.5,37.7z
		 M862.3,467.3c0.4-9.5,3.1-17.6,13.2-18.4c12.2-1,11.4,9.5,12.7,17c-0.7,9.9-0.7,22.4-11.7,22.2C868.8,488,861.8,478.4,862.3,467.3
		z M808.5,353.6c2.6-10.6,3.6-28,20.1-24.5c13.3,2.9,16.8,17.4,17.8,31c4.6,61.8-6.8,121.3-27.1,179.3c-10,28.5-15,65.3,13.8,73
		c20.9,5.6,24.8-36.4,33.4-58.6c3.5-9-4.1-27.6,6.8-26.3c16.1,1.8,2.8,18.2,4.2,28c0.6,4.2-0.5,8.7,0.1,12.9
		c2.8,18-8.4,50.5,15.8,48.5c20.7-1.6,31.6-34.9,28.5-59.2c-4.1-32.7-6.1-65.8-1.2-97.4c4.7-29.7-6.7-31.3-29-29.6
		c-7.2,0.5-20.8,5.5-20.7-7c0.1-10.9,13.2-8,21.3-8c18.7,0,39.1,4.3,42.7-23.6c0.4-2.9,7.5-6.6,11.8-6.9c6.7-0.6,11.3,4.4,12.2,11
		c1.4,10.8,2.2,20.1,17.4,19.4c11.9-0.5,17.1-6.3,19.7-16.3c2.2-8.1,5.9-14.5,15.4-14.5c11.2,0,14.8,7.7,15.2,17
		c0.5,11.6,7.2,13.7,17.2,13.9c11.7,0.2,13.7-6.3,15.3-16c2.9-17.7,6.2-35.5,11.7-52.5c2.6-8.1,7-19.5,18.5-18.6
		c13.2,1.1,13.7,13.3,15.7,23.3c12,61.1-4.1,119-20.9,176.6c-6.8,23.1-16.6,45.5-5.7,69.8c3.4,7.6,4.2,17.4,15.3,18.3
		c11.1,0.9,15-9.1,18.1-15.9c7.4-16.3,12.4-33.8,18.3-50.8c3.7-10.6,6.5-23.6,21.5-20.5c14.7,3.1,19.5,15.9,19.2,29.4
		c-0.2,14-7.4,26-14.5,37.9c-3.1,5.3-15.7,11.4-4.5,18.3c7.5,4.7,19.4,5.5,25.3-4.5c9-15.4,16.5-31.7,28.8-55.9
		c4.2,38.2-9.9,63.7-31.3,78.2c-25.5,17.2-36.3-9.1-46.5-27.9c-14.5,11.1-17.3,45.7-46.3,26.8c-10.6-6.9-14.4-24-21.3-36.4
		c-3.7,7.1-7.1,15-11.7,22.1c-14,21.5-29.1,27.6-43.1,0.4c-8.9-17.2-14.9-17.4-24-0.1c-15.7,29.6-31.9,19.8-44.2-2.5
		c-8.2-14.9-12.6-18.7-19.3-0.1c-4.3,12-11.6,20.7-25.7,22c-14.4,1.3-20.3-7.8-23.7-19c-4.4-14.4-8-4.9-11.6,0
		c-7,9.6-12.3,21.7-27.6,18.5c-15-3.2-20.7-16.2-23.1-28.1C789.7,523.5,787.7,438.3,808.5,353.6z M635.8,577.9
		c3.4-19.2,9-39.3,29.3-48.2c8.9-3.9,18.3-0.4,24.9,8.3c3.2,4.2,8,8.4,3.5,13.1c-7.8,7.9-13.8-3.4-20-3.3
		c-11.8,0.1-20.2,8.8-22.6,20.3c-3.3,15.5-12.7,37.7,3.5,44.8c18.3,8,14.6-17,20.9-27.2c2.8-4.6,0-13.8,8.3-13.8
		c8.4,0,6.9,8,7.6,13.7c1.3,11.4-1.9,28.3,13.2,29.1c12.5,0.7,15.8-15.5,20.4-26.3c2.2-5.2,4.6-10.3,8.1-17.7
		c-0.6-5.6-1-11.2-1-16.8c0-2.9,2-4.5,4.3-4.8c0.1-1.6,0.2-3.3,0.3-4.9c-0.5-3.8-1.1-7.7-1.9-11.5c-0.5-2.6,0.8-4.5,2.6-5.5
		c1.6-4.7,9.8-4.1,9.7,1.7c0,5.1-0.2,10.1-0.5,15.2c2.3,18.3,2.2,36.8-0.3,55c1.3,13.8,1.7,27.7-1.9,41.4c-1.1,4.4-6.2,4.4-8.6,1.8
		c-0.7,9-1.2,17.9-1.2,26.9c0,6.4-10,6.4-10,0c0.1-16.8,1.7-33.5,3.7-50.1c-3.3,4.2-7.3,7.7-12.2,10.3c-2.5,1.4-5.1,2.3-7.8,2.9
		c1.7,0.7,3.4,1.3,5.1,1.9c6.1,2.1,3.4,11.7-2.7,9.6c-1.3-0.5-2.7-1-4-1.5c0.9,3.3-1.7,7.6-6,6.5c-9.9-2.6-18.5-7.5-23.2-16.1
		c-4.7,4.1-10,7.7-15.5,10.5c-1.9,1-3.8,0.7-5.2-0.3c-1.2,0.3-2.3,0.6-3.5,0.8c-6.3,1.3-9-8.3-2.7-9.6c5.4-1.1,10.3-2.9,14.6-5.4
		c-3.5-0.4-7-0.8-10.5-0.8c0,0.8-0.2,1.7-0.6,2.4c-1.3,2.5-4.5,3-6.8,1.8c-3-1.5-5.4-3.6-6.8-6.3
		C633.5,618.1,633.1,592.9,635.8,577.9z M125.9,498.2c29.3,3.7,58.8,8.1,87.2,15.8c19.5,5.2,37.4,15.3,39.5,40.8
		c2.9,34.7-9.2,63.8-40.3,75.8c-33.6,13-70.7,13-104.4-5.1c-7.7-4.1-25.4-6.1-18-19.4c6.3-11.4,17.7,0.9,26.5,4.2
		c33.7,12.6,66.3,18.2,100.1-2.1c20.3-12.1,27.3-30,23.5-49.4c-4.2-21.5-24.1-27.5-44.8-30.7c-26.6-4.2-53.2-5.7-80-12.6
		c-42.5-11.1-65.4-36.2-67.7-75.9c-2.5-43,21.5-75.9,57.4-99.5c25.6-16.9,54.1-19.8,77.7-17.9c69.6,0,105.9,26.9,105.4,74
		c-0.1,7.3,2.7,19-6.7,19.6c-10.6,0.7-7.8-11.2-7.7-18.2c0.2-33.6-20.7-48.8-49.5-55.3c-56.4-12.7-108.3-2.2-145.9,43.5
		C39.3,433.4,65.4,490.5,125.9,498.2z M286.3,532.3c13.6-9.7,23.8-1.8,26.6,12c3.7,17.8,3,35.5-8.9,51.7
		c-3.5,4.8-18.1,12.5-3.4,19.7c9.1,4.4,20.9,3.4,26.1-9c7.9-18.9,15.3-38,23.1-57c4-9.9,4.9-25.9,18.6-23.9
		c12.7,1.8,11.1,17.3,12.3,28c0.9,8.5,0.2,17.1,0.2,32.7c6.4-12.4,10.3-18.8,13.1-25.7c5.1-12.8,11.5-29.9,25.8-26.3
		c13.4,3.4,12.5,21.8,13.5,35.9c1,15.1-9.5,40.2,7.3,43c16.3,2.7,20.1-23.5,26.7-38.7c8.1-18.7,14.8-38.3,36.4-46.6
		c9.6-3.7,4.7-11,4-17.5c-4.9-43.9,0.1-87.3,8.4-130.3c2.2-11.2,3.7-27.2,19.9-25c14.3,2,15.1,17.1,15.7,29
		c2.6,48.3-2.6,95.9-14.3,142.8c-1,4.2-1.5,8.4-2.4,12.7c-5.5,26-15.6,61.7,8.9,72.5c17.8,7.9,21-32.4,38.2-56.8
		c1.8,36.9-5.1,64.3-31.2,77.6c-22.2,11.3-20.3-19-33.1-26.8c-11.6,13.1-17.1,46.6-46.6,17c-1.6-1.6-6.5-1-9.4,0.1
		c-38.6,14.8-43.5,10.6-43.9-36.2c-0.1-9.4,6-25.1-4.2-26.9c-9.3-1.6-9.6,15.6-14.2,24.3c-8.3,15.9-7.1,46.8-26.4,44
		c-16.4-2.4-4.1-31.3-6.7-48.2c-1-6.7-0.2-13.6-0.2-27.2c-14,27.4-19.4,51.5-34.6,71.3c-12.5,16.2-26.2,15.9-40.4,7.7
		C268.8,619.3,265.4,547.2,286.3,532.3z M483.3,683.7c-6.5,0-6.4-10,0-10C489.8,673.7,489.8,683.7,483.3,683.7z M1399.8,928.2
		c-32.3,4.6-64.6,9.7-96.8,14.9c-0.5,0.5-1.2,1-2,1.2c-1.3,0.4-2.6,0.8-3.9,1.2c0,1.8-0.7,3.6-2.4,4.4c5.4,0.3,10.8,0.5,16.2,0.8
		c16.8-3.1,33.8-4.9,50.8-3c3,0.3,5.3,3.4,5,6.1c0.3,0,0.5,0,0.8,0c6.4,0.4,6.5,10,0,10c-6.2,0-12.5,0-18.8,0.1
		c-1.7,0.7-3.4,1.4-5.2,2c3.6,0.4,7.1,0.8,10.7,1.2c5.4,0.6,7.1,8.1,1.3,9.8c-75.2,22-153.5,31-231.5,35.6c-5.7,0.3-6.8-8.6-1.3-9.8
		c4.2-1,8.5-2,12.8-3c-2-0.3-4-0.5-6-0.9c-5.2-0.8-4.3-8.3,0-9.6c7.5-2.4,15-4.5,22.6-6.4h-27.2c-1.8,0-3.4-1.2-4.2-2.7
		c-11.4,0.6-22.7,1-34.1,1.2c-0.8,0.1-1.6,0.2-2.3,0.3c-0.8,0.1-1.5,0-2.1-0.3c-0.6,0-1.2,0-1.9,0c-46.8,7.9-93.7,15.5-140.7,22.2
		c-5.2,0.8-8-5.8-5.1-8.5c-9.6,0.7-19.2,1.2-28.9,1.7c-92.4,4.3-184.9-0.2-277.3-2.7c-2.6-0.1-4.4-2.2-4.8-4.4
		c-7.9,0.1-15.7,0-23.6-0.3c-2.5-0.1-4.2-1.9-4.7-3.9c-7,0.6-14,1.2-21,1.8c-2.7,0.2-4.3-1.8-4.8-4.1c-7.4-0.5-14.9-1.1-22.3-1.4
		c-0.5,2.4-1,4.7-1.5,7.1c-0.3,1.6-0.7,3.5-0.7,4.1c-0.3,6.4-10.1,6.5-10,0c0-2,0.2-3.9,0.4-5.8c-2-0.2-4-1.4-4.5-3.5
		c-0.2-0.8-0.4-1.5-0.6-2.3c-0.5,0-1,0-1.5,0c-5.2,0-6.2-6.5-3-9c-0.2-1.2-0.3-2.5-0.5-3.7c-0.1,0-0.2,0-0.3,0
		c-0.5,1.5-1.1,2.9-1.6,4.3c-2.3,5.8-11,3.8-9.7-2.5c-21.7,3.1-43.5,4.4-65.4,4.6c-0.4,1.7-1.4,3.2-3.4,3.6
		c-25.2,5-50.5,10.1-76.1,12.1c-16.1,2.2-32.2,4.2-48.2,7.2c-6.3,1.2-9-8.3-2.7-9.6c8.5-1.8,17-3.4,25.5-5c0,0,0.1-0.1,0.1-0.1
		c4.8-4.6,10.2-8.2,16-11.3c-7.2-0.5-14.4-0.9-21.5-1.4c-0.6,0.8-1.4,1.4-2.5,1.8c-0.6,0.2-1.2,0.4-1.8,0.6c-1.1,1.3-3,1.9-4.7,1.6
		c-1.1,0.4-2.2,0.8-3.3,1.2c0.4,2.2,0.6,4.5,0.6,6.8c0.1,5.5-8.9,6.9-9.8,1.3c-0.2-1.3-0.4-2.5-0.6-3.8c-1.9,2.3-3.7,4.6-5.2,7.2
		c-3.1,5-10.2,1.6-9.1-3.8c1-4.9,2-9.8,3.2-14.6c-0.3,0-0.6,0-1,0c-3.5-0.2-5.1-3.3-4.8-6c-3.7,3.4-10.7-1.2-7.7-6.2
		c3.2-5.5,7.7-9.9,12.8-13.6c0.5-2.4,1-4.9,1.5-7.3c-0.7,0.1-1.5,0.2-2.2,0.4c-5.8,1-8.4-5.7-3.9-9.1c3.1-2.4,6.5-4.5,10-6.4
		c0.2-0.5,0.3-1,0.5-1.5c-2.7,0-5.3,0.1-8,0.1c-4.3,0-6.7-5.5-3.5-8.5c0.6-0.6,1.2-1.2,1.9-1.7c-1.9-2.7-1.4-7.5,2.5-8.1
		c4.2-0.7,8.4-1.4,12.5-2c14.1-7.2,30.3-10.7,45.3-15.2c5.4-1.6,9.1,6.8,3.9,9.1c-4.5,2-9,3.8-13.5,5.6c12.6-1.6,25.1-3.5,37.5-6.2
		c1.7-0.4,3.3,0.1,4.4,1.1c0.4-0.1,0.8-0.1,1.2-0.2c12-4,24.8-5.6,37.3-7.3c5-0.7,7.8,4.8,5.4,7.9c3-0.3,6.1-0.7,9.1-1
		c8.7-1.9,17.5-3.2,26.2-4.7c2.1-0.3,3.8,0.5,4.9,1.7c45.2-1.9,90.5-1.9,135.8-1.9c3.7,0,5.2,3.2,4.7,6c17-1.5,34-1.7,51-1.7
		c1,0,1.9,0.2,2.6,0.7c0.6-0.3,1.2-0.5,2-0.6c20.3-2,40.5-3.3,60.7,0.1c10.3-0.2,20.5-0.3,30.8-0.2c9.1-1.2,18.2-1.8,27.3-2
		c21.8-0.6,43.6,0.8,65.3,2.1c2.3,0.1,3.9,1.7,4.6,3.6c5.4-1,10.9-1.8,16.4-2.6c28.9-4,58.9-5.7,87.5,1.3c1.4,0.3,2.4,1.1,2.9,2
		c10.7-1.5,21.5-2.9,32.2-4.4c2.8-0.4,4.5,1.9,4.8,4.3c10.5-0.9,21.1-1.7,31.6-2.2c4.5-0.2,5.7,4.3,4.1,7.4c0.4-0.1,0.8-0.2,1.3-0.3
		c0.2-0.8,0.4-1.5,0.6-2.2c0,0.7,0,1.4,0,2.1c27.4-6.3,56.4-7.1,84.2-7.1c2.8,0,4.5,2,4.8,4.2c10.5-3,21.2-5.1,31.9-6
		c0.2,0,0.4-0.1,0.7-0.1c11-0.8,22.2-0.4,33.3,2c1.1,0.2,2,0.9,2.6,1.7c1.2,0,2.4,0,3.6,0c2.7,0,4.5,2.2,4.8,4.6
		c2.8-0.3,5.5-0.5,8.3-0.8c3.5-0.3,5.2,3,4.8,6c1.6-0.1,3.1-0.2,4.7-0.3c0.5-1.1,1.5-2.1,3-2.6c7.8-2.6,15.3-5.2,23.6-5.4
		c0.7,0,1.3,0.1,1.8,0.3c5.3-1.9,10.7-3,16.4-3.4c0.6-0.8,1.4-1.5,2.6-1.9c20.3-5.9,42.3-7.8,63.3-5.8c5.6,0.5,6.9,8,1.3,9.8
		c-3.8,1.2-7.6,2.4-11.4,3.5c0,1.9-1,3.6-3.6,4c-4.6,0.7-9.4,1.2-14.2,1.4c1.7,2.8,0.3,7.7-4.1,8.1c-4.3,0.4-8.5,0.8-12.8,1.3
		c2.2,0.2,3.8,1.8,4.3,3.8c3.6,0.3,4.7,4.5,3.2,7.3c32.7-2.7,65.5-4.7,98.3-6.6C1404.1,918.1,1405.4,927.4,1399.8,928.2z
		 M1407.8,1074.9c-6.4,0-6.4-10,0-10C1414.3,1064.9,1414.3,1074.9,1407.8,1074.9z M1582.9,606.1c-8.8,13.8-13.4,32.4-36.3,31
		c-21.1-1.4-24.2-17.5-31.5-32.2c-6.9-14-25.9-14.4-37.6-25.3c-5.5-5.1-4,14.4-9.3,21.7c-13,18-18.5,66.7-44.9,6.4
		c-6-13.7-26.9-3.8-35.8,6.8c-16.7,20-31.2,37.4-53.8,7.1c-4.9-6.6-10.6-3.9-14.9,1.5c-25.6,31.7-41.4,8.9-46.2-13
		c-18.8-86.3-20.4-173.3,2.1-259.6c2.5-9.6,4.4-23.6,17.4-21.5c14.4,2.3,18.2,16.4,19.2,29.7c4.8,60.9-6.1,119.5-25.4,176.9
		c-2.7,8.1-7.3,16.1-7.9,24.4c-1.4,20.6-1.8,47.6,18.2,53.8c17.2,5.3,23.3-20.5,27.7-36.1c6.5-23.4,20.6-39.7,42.9-45.2
		c27.6-6.7,20.3,19.9,26.6,33c3.4,7.1-4.4,20.9,6.1,22.1c12.7,1.5,13.6-12.8,16.1-22.4c2.9-11.1,5.1-22.4,7.6-33.5
		c1.6,0.3,3.3,0.6,4.9,0.9c2.3,21.1,4.4,42.2,7.1,63.2c0.8,6.3,1.2,16,8.8,15.7c4.1-0.2,9.9-9.5,11.3-15.6
		c4.5-19.1,7.2-38.6,10.9-57.8c0.7-3.8,2.3-10.2,4.4-10.6c7.6-1.4,6.2,6.3,7.9,10.5c3.3,7.9,6.1,16,8.6,24.2
		c2.2,7.2,5.8,12.7,14.1,12.4c7.1-0.2,9.2-5.8,12.1-11.4c7-13.5,5.1-43.3,29.1-31.5c21.9,10.7,13.5,36.5,6.3,57.5
		c-3,8.9-22.9,17.3-7.8,26.2c15.8,9.3,24.2-4.7,31.8-19.5c5.7-10.9,10.1-36.3,18.7-30.4C1603.6,573.6,1591.1,593.2,1582.9,606.1z"/>
	<path class="st0" d="M1194.1,983.7c-12,2.3-23.9,4.8-35.8,7.8c3.7,0.1,7.4,0.1,11.1,0c8.1-2,16.1-4,24.2-5.9
		C1193.6,984.9,1193.8,984.2,1194.1,983.7z"/>
	<path class="st0" d="M1077.5,929.1c-4.7-0.1-9.4-0.2-14.1-0.4c1.2,0.3,2.3,0.5,3.5,0.8C1070.4,929.3,1074,929.2,1077.5,929.1z"/>
	<path class="st0" d="M996.8,984.8c-3.4,0.3-6.8,0.6-10.2,0.9c0,0.2-0.1,0.5-0.2,0.8C989.9,985.9,993.4,985.3,996.8,984.8z"/>
	<path class="st0" d="M1312,976.2c0.1,0.5,0.2,1.1,0.1,1.7c5-1.2,10-2.3,14.9-3.6c-2.2-0.2-4.5-0.4-6.8-0.6
		C1317.5,974.6,1314.8,975.4,1312,976.2z"/>
	<path class="st0" d="M696.3,909.9c-9,0-18.1,0.1-27.1,0.2c-4.3,1.7-8.6,3.7-12.7,5.9C669.9,914.8,683.1,912.4,696.3,909.9z"/>
	<path class="st0" d="M602.4,897c-2.3,0-4.7,0-7,0.1c1.3,0.1,2.6,0.2,3.9,0.2C600.3,897.2,601.4,897.1,602.4,897z"/>
	<path class="st0" d="M501.6,923.4c-0.9,0.2-1.8,0.5-2.7,0.7c2.4-0.2,4.7-0.4,7.1-0.6C504.6,923.5,503.1,923.5,501.6,923.4z"/>
	<path class="st0" d="M514,946c2.1-0.8,4.1-1.7,6.2-2.5c0-1.3,0-2.6-0.1-3.9c-0.6,0.1-1.2,0.2-1.8,0.2c-3.9,0.5-5.4-3.3-4.5-6.3
		c-0.6,0-1.3,0-1.9-0.1c-0.5,0-1-0.2-1.5-0.3c-8,0.8-15.9,1.3-23.9,1.8c-0.4,0.9-1,1.7-2,2.1c-5.6,2.7-11.3,5-17.2,7
		c0,0.1,0,0.2,0.1,0.3c5.6,0.1,11.2,0.2,16.7,0.5c3.9,0.2,5.4,3.4,4.6,6.2C497,949.1,505.5,947.4,514,946z"/>
	<path class="st0" d="M559.5,917c1.1-0.2,2.2-0.3,3.2-0.5c1-0.4,2-0.8,2.9-1.2c-2-0.2-4-0.4-6.1-0.5
		C559.7,915.5,559.7,916.3,559.5,917z"/>
	<path class="st0" d="M640.2,962.7c-1.4,0.1-2.9,0.3-4.3,0.4c1.4,0,2.8,0,4.2-0.1C640.1,962.9,640.1,962.8,640.2,962.7z"/>
	<path class="st0" d="M738,953.6c-0.1,0.1-0.1,0.2-0.2,0.2c-0.1,0.1-0.2,0.2-0.2,0.3c3.5,0,7,0,10.4,0c1.7-0.2,3.4-0.4,5.1-0.6
		c-0.5-0.1-0.9-0.2-1.4-0.3C747.1,953.4,742.6,953.5,738,953.6z"/>
	<path class="st0" d="M636.6,936.7c2,0.1,4.1,0.3,6.1,0.4c-0.2-0.4-0.4-0.8-0.5-1.3C640.4,936.2,638.5,936.4,636.6,936.7z"/>
	<path class="st0" d="M684.5,930.7c-2,0.3-4,0.7-6,1.1c9.5,0.1,19-0.1,28.5-0.5c2.7-0.4,5.5-0.9,8.2-1.3
		C704.9,930.2,694.7,930.4,684.5,930.7z"/>
	<path class="st0" d="M755.9,987.6c-0.8,0-1.6-0.1-2.3-0.1c-0.7,0-1.3-0.2-1.9-0.5c-0.1,0.2-0.2,0.3-0.2,0.5
		C753,987.5,754.4,987.5,755.9,987.6z"/>
	<path class="st0" d="M844,981.7c-0.4-1-0.5-2-0.3-3c-0.2,0-0.4,0-0.6,0c-6,0.7-12.1,1.4-18.2,2c-2.3,0.2-3.9-1.2-4.5-3.1
		c-1.4,0.2-2.8,0.3-4.2,0.5c0.2,0.9,0.2,1.9,0,2.8C825.4,981.1,834.7,981.5,844,981.7z"/>
	<path class="st0" d="M722.6,985.2c-6.9,0.2-13.8,0.5-20.8,0.9c1.4,0,2.8,0.1,4.2,0.1c7.6,0.2,15.2,0.5,22.9,0.7
		C726.9,986.4,724.7,985.8,722.6,985.2z"/>
	<path class="st1" d="M1206.1,554.6c4.2,38.2-9.9,63.7-31.3,78.2c-25.5,17.2-36.3-9.1-46.5-27.9c-14.5,11.1-17.3,45.7-46.3,26.8
		c-10.6-6.9-14.4-24-21.3-36.4c-3.7,7.1-7.1,15-11.7,22.1c-14,21.5-29.1,27.6-43.1,0.4c-8.9-17.2-14.9-17.4-24-0.1
		c-15.7,29.6-31.9,19.8-44.2-2.5c-8.2-14.9-12.6-18.7-19.3-0.1c-4.3,12-11.6,20.7-25.7,22c-14.4,1.3-20.3-7.8-23.7-19
		c-4.4-14.4-8-4.9-11.6,0c-7,9.6-12.3,21.7-27.6,18.5c-15-3.2-20.7-16.2-23.1-28.1c-17-85-18.9-170.1,1.9-254.8
		c2.6-10.6,3.6-28,20.1-24.5c13.3,2.9,16.8,17.4,17.8,31c4.6,61.8-6.8,121.3-27.1,179.3c-10,28.5-15,65.3,13.8,73
		c20.9,5.6,24.8-36.4,33.4-58.6c3.5-9-4.1-27.6,6.8-26.3c16.1,1.8,2.8,18.2,4.2,28c0.6,4.2-0.5,8.7,0.1,12.9
		c2.8,18-8.4,50.5,15.8,48.5c20.7-1.6,31.6-34.9,28.5-59.2c-4.1-32.7-6.1-65.8-1.2-97.4c4.7-29.7-6.7-31.3-29-29.6
		c-7.2,0.5-20.8,5.5-20.7-7c0.1-10.9,13.2-8,21.3-8c18.7,0,39.1,4.3,42.7-23.6c0.4-2.9,7.5-6.6,11.8-6.9c6.7-0.6,11.3,4.4,12.2,11
		c1.4,10.8,2.2,20.1,17.4,19.4c11.9-0.5,17.1-6.3,19.7-16.3c2.2-8.1,5.9-14.5,15.4-14.5c11.2,0,14.8,7.7,15.2,17
		c0.5,11.6,7.2,13.7,17.2,13.9c11.7,0.2,13.7-6.3,15.3-16c2.9-17.7,6.2-35.5,11.7-52.5c2.6-8.1,7-19.5,18.5-18.6
		c13.2,1.1,13.7,13.3,15.7,23.3c12,61.1-4.1,119-20.9,176.6c-6.8,23.1-16.6,45.5-5.7,69.8c3.4,7.6,4.2,17.4,15.3,18.3
		c11.1,0.9,15-9.1,18.1-15.9c7.4-16.3,12.4-33.8,18.3-50.8c3.7-10.6,6.5-23.6,21.5-20.5c14.7,3.1,19.5,15.9,19.2,29.4
		c-0.2,14-7.4,26-14.5,37.9c-3.1,5.3-15.7,11.4-4.5,18.3c7.5,4.7,19.4,5.5,25.3-4.5C1186.4,595.1,1193.8,578.8,1206.1,554.6z
		 M1058.8,460.8c-4.4-11.1,8.1-28.9-15-29.7c-22.3-0.8-14.6,16-16.3,27.3c-1,6.8-1.9,13.5-3,20.3c-5.9,36.2-12.7,72.3-17.2,108.6
		c-1.5,12,5.2,25.1,17.9,28.1c13.7,3.2,13.8-11.7,19.2-19.8C1073.1,552.7,1047.7,504.6,1058.8,460.8z M987,494.6
		c0-14.6-0.4-28.4,0.1-42.1c0.3-8.4,9.4-19.4-7.7-21c-15.3-1.5-17.9,7.8-19.2,20.7c-2.9,28.9-6.5,57.8-11.7,86.3
		c-3.3,18.2-14.6,35.2-5.5,54.8c4.1,8.9,3.9,22.3,17.3,22.5c12.3,0.1,15.3-12.1,19.9-20.9C997.4,562.1,980.3,527.2,987,494.6z
		 M806.5,528.6c23.9-59.5,32.9-110.6,28.5-163.9c-0.5-6.4-0.3-17.2-10-17.6c-2.6-0.1-7.2,10.8-8.3,17.1
		C808.1,414.9,803.3,465.8,806.5,528.6z M939.5,535.7c3.5-30.3,7.1-60.5,10.3-90.8c0.5-4.9,0.3-11.4-6.4-11.8
		c-2.7-0.2-7.9,4.1-8.2,6.8C931.9,471.5,925.7,503.3,939.5,535.7z M995.2,537.2c15.5-27.9,20.4-57.7,21.6-88.2
		c0.2-6.2,2.6-15.7-7.2-16.3c-9.8-0.6-8.8,9.4-9.2,15.4C998.2,477.8,996.8,507.5,995.2,537.2z M1068.7,521.7
		c1.7,0.5,3.5,1.1,5.2,1.6c5.6-24.5,11-49.1,16.8-73.6c2-8.4,6.7-17.3-7.9-18.4c-12.1-0.9-14.2,6.3-14.2,16.1
		C1068.8,472.1,1068.7,496.9,1068.7,521.7z M1087.5,345.6c-13.4,18.6-11.7,39.6-15.9,59c-1.4,6.4,1,10,7.2,10.4
		c6.8,0.4,15.3,0.8,15.3-8.8C1094.3,386.4,1099.9,365.8,1087.5,345.6z M1157.3,560.4c-2.8-3.9,0.8-15.4-6.3-12.8
		c-12.3,4.5-11.1,19.5-13.7,30.6c-0.7,2.8,4,9.7,4.7,9.5C1155,583.6,1154.7,571.7,1157.3,560.4z M1017,409.4c-1.8-2.9-3-4.9-4.2-6.8
		c-1.8,1.4-4.7,2.6-4.9,4.2c-0.3,1.9,1.7,4.1,2.7,6.2C1012.5,411.9,1014.4,410.8,1017,409.4z M950.2,409.1c-1.7-2.4-2.9-4-4.1-5.7
		c-1.6,1.5-4.1,2.9-4.6,4.7c-0.3,1.4,2,3.4,3.1,5.1C946.2,412,947.9,410.7,950.2,409.1z"/>
	<path class="st1" d="M1428.2,532.4c2.3,21.1,4.4,42.2,7.1,63.2c0.8,6.3,1.2,16,8.8,15.7c4.1-0.2,9.9-9.5,11.3-15.6
		c4.5-19.1,7.2-38.6,10.9-57.8c0.7-3.8,2.3-10.2,4.4-10.6c7.6-1.4,6.2,6.3,7.9,10.5c3.3,7.9,6.1,16,8.6,24.2
		c2.2,7.2,5.8,12.7,14.1,12.4c7.1-0.2,9.2-5.8,12.1-11.4c7-13.5,5.1-43.3,29.1-31.5c21.9,10.7,13.5,36.5,6.3,57.5
		c-3,8.9-22.9,17.3-7.8,26.2c15.8,9.3,24.2-4.7,31.8-19.5c5.7-10.9,10.1-36.3,18.7-30.4c12.2,8.4-0.4,28-8.6,40.8
		c-8.8,13.8-13.4,32.4-36.3,31c-21.1-1.4-24.2-17.5-31.5-32.2c-6.9-14-25.9-14.4-37.6-25.3c-5.5-5.1-4,14.4-9.3,21.7
		c-13,18-18.5,66.7-44.9,6.4c-6-13.7-26.9-3.8-35.8,6.8c-16.7,20-31.2,37.4-53.8,7.1c-4.9-6.6-10.6-3.9-14.9,1.5
		c-25.6,31.7-41.4,8.9-46.2-13c-18.8-86.3-20.4-173.3,2.1-259.6c2.5-9.6,4.4-23.6,17.4-21.5c14.4,2.3,18.2,16.4,19.2,29.7
		c4.9,60.9-6.1,119.5-25.4,176.9c-2.7,8.1-7.3,16.1-7.9,24.4c-1.4,20.6-1.8,47.6,18.2,53.8c17.2,5.3,23.3-20.5,27.7-36.1
		c6.5-23.4,20.6-39.7,42.9-45.2c27.6-6.7,20.3,19.9,26.6,33c3.4,7.1-4.4,20.9,6.1,22.1c12.7,1.5,13.6-12.8,16.1-22.4
		c2.9-11.1,5.1-22.4,7.6-33.5C1424.9,531.8,1426.5,532.1,1428.2,532.4z M1373.7,585.5c-14.2-0.2-10.7-13.3-14.5-20.7
		c-3-5.8-6.1-13.4-11.6-5.5c-10,14.3-13.9,30.8-6.3,48.3c3.8,8.7,8.9,15,19.3,12.1C1380.7,614.4,1371,597.6,1373.7,585.5
		c20.2-12.5,0.4-25.1,3.6-45.4C1363.5,560.4,1376.4,573,1373.7,585.5z M1271.9,529.2c23.3-61.8,34.4-114.1,26.9-169.3
		c-0.6-4.6-0.3-13.8-8.5-13.1c-2.7,0.2-6.1,7.7-7,12.3C1272.8,411.6,1268.4,464.5,1271.9,529.2z M1544.2,563.1
		c-1.2-6.9,1.8-18.1-7.2-16.9c-12.2,1.7-11.4,15.3-12.7,25c-0.8,5.8-3.7,17.6,5.6,16.3C1541.1,585.8,1542.1,572.6,1544.2,563.1z"/>
	<path class="st1" d="M582.1,555.4c1.8,36.9-5.1,64.3-31.2,77.6c-22.2,11.3-20.3-19-33.1-26.8c-11.6,13.1-17.1,46.6-46.6,17
		c-1.6-1.6-6.5-1-9.4,0.1c-38.6,14.8-43.5,10.6-43.9-36.2c-0.1-9.4,6-25.1-4.2-26.9c-9.3-1.6-9.6,15.6-14.2,24.3
		c-8.3,15.9-7.1,46.8-26.4,44c-16.4-2.4-4.1-31.3-6.7-48.2c-1-6.7-0.2-13.6-0.2-27.2c-14,27.4-19.4,51.5-34.6,71.3
		c-12.5,16.2-26.2,15.9-40.4,7.7c-22.4-12.8-25.7-84.8-4.9-99.7c13.6-9.7,23.8-1.8,26.6,12c3.7,17.8,3,35.5-8.9,51.7
		c-3.5,4.8-18.1,12.5-3.4,19.7c9.1,4.4,20.9,3.4,26.1-9c7.9-18.9,15.3-38,23.1-57c4-9.9,4.9-25.9,18.6-23.9
		c12.7,1.8,11.1,17.3,12.3,28c0.9,8.5,0.2,17.1,0.2,32.7c6.4-12.4,10.3-18.8,13.1-25.7c5.1-12.8,11.5-29.9,25.8-26.3
		c13.4,3.4,12.5,21.8,13.5,35.9c1,15.1-9.5,40.2,7.3,43c16.3,2.7,20.1-23.5,26.7-38.7c8.1-18.7,14.8-38.3,36.4-46.6
		c9.6-3.7,4.7-11,4-17.5c-4.9-43.9,0.1-87.3,8.4-130.3c2.2-11.2,3.7-27.2,19.9-25c14.3,2,15.1,17.1,15.7,29
		c2.6,48.3-2.6,95.9-14.3,142.8c-1,4.2-1.5,8.4-2.4,12.7c-5.5,26-15.6,61.7,8.9,72.5C561.8,620,564.9,579.7,582.1,555.4z
		 M537.4,361.5c-24.3,60.2-14.3,111.1-14,161.3C535.9,473.9,546.6,424.8,537.4,361.5z M479.8,592.4c1.7,8.4,1.5,25.8,12.9,21.6
		c18.2-6.7,16.7-29.7,21.4-46.3c1.8-6.3-1.1-22.6-9.1-19.9C486.3,554.1,480.5,572.2,479.8,592.4z M304.2,559.9
		c-2.9-4,2-16.3-8.6-13.5c-11.1,2.9-11,16.1-11.6,26c-0.3,5.3-4.3,17.4,6.8,14.6C301.4,584.3,302.6,571.5,304.2,559.9z"/>
	<path class="st1" d="M1580.9,114.6c0.1,31.3-4.5,56.7-20.9,79.4c-23.5,32.7-62.1,33.3-87.2,0.7c-31.5-40.9-26-121,10.7-157
		c19.9-19.5,60.9-11.7,80.7,15.5C1578.5,72.9,1582.4,95.2,1580.9,114.6z M1559.9,116.2c-0.1-15.5-4.3-28.5-19.5-35.6
		c-6.8-3.1-13.1,11.4-21.2-1.2c-19.2-30-32-8.9-37.2,8.9c-9.5,32.7,13.5,59.8,22.4,89.3c0.3,1.1,5.3,2.3,5.9,1.6
		C1527.9,159.1,1560.5,150.5,1559.9,116.2z"/>
	<path class="st1" d="M182.7,322.2c69.6,0,105.9,26.9,105.4,74c-0.1,7.3,2.7,19-6.7,19.6c-10.6,0.7-7.8-11.2-7.7-18.2
		c0.2-33.6-20.7-48.8-49.5-55.3c-56.4-12.7-108.3-2.2-145.9,43.5c-39,47.5-12.9,104.6,47.6,112.3c29.3,3.7,58.8,8.1,87.2,15.8
		c19.5,5.2,37.4,15.3,39.5,40.8c2.9,34.7-9.2,63.8-40.3,75.8c-33.6,13-70.7,13-104.4-5.1c-7.7-4.1-25.4-6.1-18-19.4
		c6.3-11.4,17.7,0.9,26.5,4.2c33.7,12.6,66.3,18.2,100.1-2.1c20.3-12.1,27.3-30,23.5-49.4c-4.2-21.5-24.1-27.5-44.8-30.7
		c-26.6-4.2-53.2-5.7-80-12.6c-42.5-11.1-65.4-36.2-67.7-75.9c-2.5-43,21.5-75.9,57.4-99.5C130.6,323.2,159,320.3,182.7,322.2z"/>
	<path class="st1" d="M732.8,570.7c-3.5,7.3-5.9,12.5-8.1,17.7c-4.6,10.8-7.9,27-20.4,26.3c-15.2-0.8-11.9-17.7-13.2-29.1
		c-0.7-5.7,0.8-13.8-7.6-13.7c-8.3,0-5.4,9.2-8.3,13.8c-4.9,7.9-3.8,24.7-11.5,28.1c-1.2,1.2-3.1,1.7-4.9,1.3
		c-4.3-0.8-9-2.6-11.3-6.5c-0.8-1.4-1.3-2.9-1.4-4.3c-0.3-0.6-0.4-1.3-0.4-2c-2.2-9.9,2.9-23.6,5.2-34.2
		c2.5-11.4,10.8-20.2,22.6-20.3c6.2,0,12.2,11.2,20,3.3c4.6-4.7-0.3-8.8-3.5-13.1c-6.6-8.8-16-12.3-24.9-8.3
		c-20.3,8.9-25.9,29.1-29.3,48.2c-2.7,15-2.3,40.2,4.4,48.1c-0.8-1.6-1.3-3.5-1.4-5.6c0-2.8,2.3-4.9,5-5c2.7-0.1,5,2.4,5,5
		c0,0.6,0.1,1.1,0,0.2c0,0,0.1,0.4,0.1,0.7c0,0.1,0.1,0.2,0.2,0.3c0.2,0.2,0.5,0.5,0.7,0.7c0,0,0,0,0,0c0.7,0.5,1.5,0.9,2.2,1.3
		c1.7,0.9,2.4,2.6,2.4,4.4c3.5,0.1,7,0.4,10.5,0.8c4.6-2.7,8.5-6.3,11.7-11.2c0.1-0.1,0.1-0.3,0.2-0.4c-0.6-4.8,6.5-8.3,9.2-3.2
		c4.7,9,12.9,14.5,22,18.3c2.7-0.6,5.3-1.5,7.8-2.9c4.9-2.7,8.9-6.1,12.2-10.3c1.8-14.3,3.8-28.6,5.5-43
		C733.2,574.3,733,572.5,732.8,570.7z"/>
	<path class="st1" d="M888.1,465.9c-0.7,9.9-0.7,22.4-11.7,22.2c-7.6-0.1-14.7-9.7-14.2-20.8c0.4-9.5,3.1-17.6,13.2-18.4
		C887.6,448,886.9,458.5,888.1,465.9z M875.3,465.3c-0.8,1.4-2.1,2.7-2.1,3.9c0,1.3,1.1,2.7,1.7,4.1c0.8-1.2,2.1-2.5,2.2-3.8
		C877.2,468.2,876,466.8,875.3,465.3z"/>
	<path class="st0" d="M1058.8,460.8c-11.1,43.8,14.3,91.8-14.4,134.8c-5.4,8.1-5.6,23-19.2,19.8c-12.8-3-19.4-16.1-17.9-28.1
		c4.5-36.4,11.3-72.4,17.2-108.6c1.1-6.8,2-13.5,3-20.3c1.7-11.3-6-28,16.3-27.3C1066.9,431.9,1054.4,449.7,1058.8,460.8z"/>
	<path class="st0" d="M987,494.6c-6.7,32.6,10.3,67.5-6.8,100.3c-4.6,8.8-7.6,21-19.9,20.9c-13.4-0.1-13.1-13.5-17.3-22.5
		c-9-19.5,2.2-36.5,5.5-54.8c5.2-28.6,8.8-57.4,11.7-86.3c1.3-13,3.9-22.2,19.2-20.7c17.1,1.6,8,12.7,7.7,21
		C986.6,466.2,987,479.9,987,494.6z"/>
	<path class="st0" d="M806.5,528.6c-3.2-62.9,1.6-113.8,10.2-164.4c1.1-6.3,5.7-17.2,8.3-17.1c9.7,0.4,9.5,11.2,10,17.6
		C839.4,418,830.4,469.2,806.5,528.6z"/>
	<path class="st0" d="M939.5,535.7c-13.8-32.5-7.6-64.2-4.2-95.9c0.3-2.7,5.5-7,8.2-6.8c6.7,0.5,6.9,6.9,6.4,11.8
		C946.6,475.2,943,505.5,939.5,535.7z"/>
	<path class="st0" d="M995.2,537.2c1.7-29.7,3-59.4,5.2-89c0.4-6-0.6-16,9.2-15.4c9.8,0.6,7.5,10,7.2,16.3
		C1015.6,479.5,1010.7,509.3,995.2,537.2z"/>
	<path class="st0" d="M1068.7,521.7c0-24.8,0.1-49.6-0.1-74.3c-0.1-9.8,2.1-17,14.2-16.1c14.6,1.1,9.9,10,7.9,18.4
		c-5.8,24.5-11.2,49.1-16.8,73.6C1072.2,522.7,1070.5,522.2,1068.7,521.7z"/>
	<path class="st0" d="M1087.5,345.6c12.3,20.2,6.7,40.9,6.7,60.7c0,9.5-8.5,9.2-15.3,8.8c-6.3-0.4-8.6-4-7.2-10.4
		C1075.8,385.2,1074.1,364.2,1087.5,345.6z"/>
	<path class="st0" d="M1157.3,560.4c-2.6,11.4-2.3,23.2-15.4,27.2c-0.6,0.2-5.3-6.7-4.7-9.5c2.7-11.1,1.4-26.1,13.7-30.6
		C1158.1,544.9,1154.6,556.4,1157.3,560.4z"/>
	<path class="st0" d="M1017,409.4c-2.6,1.4-4.5,2.5-6.4,3.6c-1-2.1-3-4.4-2.7-6.2c0.3-1.6,3.2-2.8,4.9-4.2
		C1014.1,404.5,1015.3,406.5,1017,409.4z"/>
	<path class="st0" d="M950.2,409.1c-2.3,1.7-4,2.9-5.7,4.2c-1.1-1.7-3.4-3.8-3.1-5.1c0.5-1.9,3-3.2,4.6-4.7
		C947.3,405.1,948.5,406.7,950.2,409.1z"/>
	<path class="st0" d="M1271.9,529.2c-3.5-64.7,0.9-117.6,11.4-170c0.9-4.6,4.3-12.1,7-12.3c8.2-0.7,7.9,8.5,8.5,13.1
		C1306.3,415.1,1295.2,467.5,1271.9,529.2z"/>
	<path class="st0" d="M1373.6,585.5c-2.7,12.1,7.1,28.9-12.9,34.3c-10.5,2.8-15.5-3.4-19.3-12.1c-7.7-17.5-3.7-34,6.3-48.3
		c1.7-2.5,3.2-3.5,4.6-3.4c2.6,0.1,4.1,3.7,7,8.9C1365.6,576.3,1373.6,585.5,1373.6,585.5L1373.6,585.5z"/>
	<path class="st0" d="M1544.2,563.1c-2.1,9.5-3.1,22.7-14.3,24.3c-9.3,1.3-6.3-10.5-5.6-16.3c1.3-9.6,0.5-23.3,12.7-25
		C1546,545,1543,556.2,1544.2,563.1z"/>
	<path class="st0" d="M1373.7,585.5c2.7-12.5-10.2-25.1,3.6-45.4C1374.1,560.4,1393.9,573,1373.7,585.5
		C1373.6,585.5,1373.7,585.5,1373.7,585.5z"/>
	<path class="st0" d="M537.4,361.5c9.2,63.3-1.6,112.4-14,161.3C523.1,472.6,513.1,421.7,537.4,361.5z"/>
	<path class="st0" d="M479.8,592.4c0.8-20.2,6.5-38.3,25.2-44.6c8-2.7,10.9,13.7,9.1,19.9c-4.7,16.6-3.1,39.5-21.4,46.3
		C481.3,618.2,481.5,600.8,479.8,592.4z"/>
	<path class="st0" d="M304.2,559.9c-1.7,11.7-2.8,24.5-13.4,27.2c-11.1,2.8-7.1-9.3-6.8-14.6c0.6-9.9,0.5-23.1,11.6-26
		C306.3,543.6,301.3,555.9,304.2,559.9z"/>
	<path class="st0" d="M1559.9,116.2c0.7,34.4-31.9,42.9-49.6,63c-0.6,0.7-5.6-0.5-5.9-1.6c-8.9-29.5-31.8-56.6-22.4-89.3
		c5.2-17.9,17.9-38.9,37.2-8.9c8.1,12.6,14.4-1.9,21.2,1.2C1555.6,87.7,1559.8,100.7,1559.9,116.2z"/>
	<path class="st0" d="M875.3,465.3c0.7,1.5,1.8,2.9,1.8,4.2c-0.1,1.3-1.4,2.5-2.2,3.8c-0.6-1.4-1.8-2.7-1.7-4.1
		C873.3,468,874.5,466.7,875.3,465.3z"/>
</g>
<g>
	<g>
		<path class="st1" d="M662.7,619.4c-1.3-0.3-2.7,0.4-3.1,1.8c0,0.1-0.1,0.2-0.1,0.4c0,0.1-0.1,0.2-0.1,0.2
			c-0.1,0.1-0.1,0.2-0.2,0.3c0,0-0.1,0.1-0.1,0.1c-0.1,0.1-0.2,0.2-0.4,0.4c0,0,0,0,0,0c-0.3,0.2-0.6,0.3-0.9,0.5
			c-0.1,0-0.1,0.1-0.1,0.1c-0.2,0.1-0.3,0.1-0.5,0.2c-0.2,0-0.3,0.1-0.5,0.1c-0.1,0-0.2,0-0.3,0c-0.3,0-0.7,0.1-1,0
			c-0.2,0-0.4,0-0.6,0c0,0,0,0-0.1,0c0,0,0,0,0.1,0c0.4,0.1,0,0-0.2,0c-0.3-0.1-0.7-0.2-1-0.3c0,0-0.3-0.1-0.4-0.2
			c-0.1,0-0.1-0.1-0.2-0.1c-0.2-0.1-0.3-0.2-0.5-0.3c-0.1,0-0.1-0.1-0.2-0.1c0,0,0,0,0,0c-0.2-0.2-0.7-0.7-0.8-0.8
			c-0.1-0.1-0.1-0.2-0.2-0.2c-0.1-0.2-0.3-0.4-0.4-0.6c-0.1-0.2-0.2-0.4-0.3-0.6c0-0.1-0.1-0.2-0.1-0.3c0,0-0.1-0.2-0.1-0.3
			c0,0,0,0,0,0c0-0.1-0.1-0.2-0.1-0.4c-0.1-0.2-0.1-0.5-0.2-0.7c-0.1-0.4-0.2-0.9-0.3-1.4c0-0.1,0-0.3,0-0.4c0-0.3,0-0.6,0-0.8
			c0-0.6,0-1.1,0-1.7c0-0.3,0-0.5,0.1-0.8c0-0.1,0.1-0.3,0.1-0.4c0.1-0.6,0.2-1.1,0.4-1.7c-1.1-0.9-2.2-1.9-2.9-3.1
			c-0.9,0.2-1.6,0.8-1.9,1.7c-1.3,5-1.1,10.5,2.2,14.7c2.7,3.4,7.7,4.7,11.7,3.1c2.4-1,4.3-2.8,5.1-5.3
			C664.8,621.2,664,619.7,662.7,619.4z"/>
		<path class="st1" d="M649.8,613.4C649.8,613.4,649.8,613.4,649.8,613.4L649.8,613.4z"/>
		<path class="st1" d="M649.8,613.6C649.8,613.6,649.8,613.6,649.8,613.6C649.8,613.6,649.8,613.6,649.8,613.6z"/>
		<path class="st1" d="M652.2,622.4C652.2,622.4,652.2,622.4,652.2,622.4L652.2,622.4z"/>
		<path class="st1" d="M652.4,622.5c0.1,0,0.1,0.1,0.1,0.1C652.5,622.6,652.4,622.6,652.4,622.5z"/>
		<path class="st1" d="M653.2,623C653.2,623,653.2,623,653.2,623C653.2,623,653.2,623,653.2,623z"/>
		<path class="st1" d="M653.3,623.1C653.5,623.1,653.6,623.2,653.3,623.1L653.3,623.1z"/>
	</g>
</g>
<g>
	<g>
		<path class="st2" d="M647.8,608.9c-0.2-0.2-0.3-0.4-0.5-0.7c-0.8-1.4-1.3-2.9-1.4-4.4c-0.2-0.4-0.3-0.8-0.3-1.3
			c-1,0.1-2,0.8-2.2,1.8c-1.1,6.2-0.7,12.5,1.3,18.4c0.4,1.3,1.7,2.1,3.1,1.8c1.2-0.3,2.2-1.8,1.8-3.1
			C648.1,617.5,647.5,613.2,647.8,608.9z"/>
	</g>
</g>
<g>
	<g>
		<path class="st1" d="M661.8,618.9c-1.1-1.4-2.2-2.8-3.4-4.1c-4.2-0.8-8.8-2.6-11.1-6.5c-0.8-1.4-1.3-2.9-1.4-4.4
			c-0.3-0.8-0.4-1.7-0.4-2.5c0-0.3,0-0.5,0-0.8c-0.6,0.1-1.2,0.3-1.6,0.7c-1,1-0.8,2.5,0,3.5c4.8,5.9,9.6,11.7,14.3,17.6
			c0.8,1,2.7,0.9,3.5,0C662.8,621.4,662.7,620,661.8,618.9z"/>
	</g>
</g>
<g>
	<g>
		<path class="st1" d="M644.5,601.5c0,0,0-0.1,0-0.1c-0.2,0-0.3,0-0.5-0.1c-0.7-0.1-1.5,0.4-2,1c-0.5,0.6-0.9,1.5-0.8,2.4
			c0,0.6,0.2,1.1,0.4,1.5c-0.3,0.7-0.4,1.6-0.2,2.4c0.2,0.8,0.6,1.6,1.3,2c0.2-0.3,0.4-0.7,0.5-1c0.2,0.4,0.3,0.9,0.5,1.4
			c0.4,0.1,0.8,0.1,1.1-0.1c0.2-0.1,0.4-0.2,0.6-0.2c-0.2-1.2-0.3-2.5-0.4-3.7C644.5,605.2,644.4,603.4,644.5,601.5z"/>
		<path class="st1" d="M662.9,629.6c0.7-0.9,1.6-1.5,2.6-2c-1.1,0.4,0-0.1,0.2-0.2c0.1-0.1,0.6-0.4,0.6-0.4c0.4-0.3,0.7-0.6,1.1-0.9
			c0.4-0.3,0.7-0.6,1.1-0.9c-3.3-0.2-6.5-0.9-9.3-2.4c-7.6-4-12-13.7-14.4-18c-0.3,0-0.5-0.1-0.8-0.2c0,0,0,0,0,0
			c-6.7,8.1-8.1,17.3-3.1,22.3c2.9,3,8.5,4.9,15.2,5.2c1.9-0.4,3.8-1,5.6-1.7C662.1,630.1,662.5,629.8,662.9,629.6z"/>
	</g>
</g>
<path class="st2" d="M450.6,1054"/>
<path class="st1" d="M393,1041.3"/>
<text transform="matrix(0.8966 0 0 1 313.4873 906.3164)" class="st3 st4 st5">FOR THE SPECIAL ONE</text>
<path class="st1" d="M661.7,628.4c-1.1-2-2.3-4-3.4-6"/>
</svg>
