<?xml version="1.0" encoding="utf-8"?>
<!-- Generator: Adobe Illustrator 24.1.3, SVG Export Plug-In . SVG Version: 6.00 Build 0)  -->
<svg version="1.1" id="Layer_1" xmlns="http://www.w3.org/2000/svg" xmlns:xlink="http://www.w3.org/1999/xlink" x="0px" y="0px"
	 viewBox="0 0 539 335" style="enable-background:new 0 0 539 335;" xml:space="preserve">
<style type="text/css">
	.st0{display:none;fill:#FFFEFE;}
	.st1{fill:#CFA09F;}
</style>
<g>
	<g>
		<g>
			<path class="st0" d="M18,311.8c0-97.6,0.1-195.3-0.2-292.9c0-6.4,1.7-7.7,10.2-7.6c160.6,0.2,321.3,0.2,481.9,0
				c8.5,0,10.2,1.3,10.2,7.6c-0.3,95.5-0.3,190.9,0,286.4c0,5.6-1.5,6.7-8.9,6.7C346.7,311.8,182.3,311.8,18,311.8z M375.9,254.1
				l-0.4-0.4c-1.5-3.3,2.5-9.3-2.6-9.7c-9.8-0.7-4.5-5.5-3.7-7c2.2-4.2,5.4,0.1,8.3,0.5c2.2-5.8-2.5-6-8-6.1
				c-5.9-0.1-6.4,2.1-6.3,5.8c0.2,9.7,1,19.4-1.1,29C379.9,268,381.5,266.5,375.9,254.1z M373.1,188.8c-0.2,3.9,1.1,7.8,2.6,11.7
				c1.2,2.9,1.5,6.4,6.8,6.8c5,0.3,7.5-2.9,9.2-5.3c2.5-3.8,4.6-7.7,8.2-11c4.1,1.7,3.1,4.6,4.4,6.8c2.7,4.5,4.2,9.5,12.7,9.8
				c8.1,0.3,12.8-2.6,15.8-8.2c2-3.7,5.6-6.8,8.7-10.4c3.2,6.4-4.8,12.5,1.1,18.4c7.8-2.2,8.3-7.3,9.3-11.6
				c1.8-7.3,2.6-14.8,3.2-22.2c0.9-13,8.9-23.8,18.3-36.9c3,10.5,1.6,18.5,0.4,26.7c-1.7,12.3-5.7,24.5-3.2,37
				c0.7,3.4,1.9,6.7,7.9,7.2c5.5,0.5,8.6-1.7,10.6-5c4.5-7.3,9.8-14.4,12.9-22c3.6-8.8,10.2-17.3,7.5-28.4
				c-11.1,13.9-10.5,30.4-26,41.3c-4.1-3.1-2.3-6.1-2.1-9.2c1.1-14.6,6-28.8,5.8-43.5c-0.1-6.3,0.5-13.9-7.7-16.5
				c-8.6-2.7-10.5,6.1-16.1,9.2c-2.1-2.2,0.4-7-6.4-6.4c-5.5,0.5-6.1,3.9-6.6,6.8c-1.2,7.4-2.3,14.8-2.9,22.2
				c-1,13.4-6.2,25.4-18.8,35.2c-6.5,5-12.4,3.9-15.7-2.6c-4.5-8.6,0.5-15.6,6.9-22.2c11.1-11.3,17.9-23.6,17.3-37.8
				c-0.2-3.6-0.8-7.7-6.9-8.8c-5.8-1.1-9.2,1.4-12.2,4.6c-12.7,13.4-16,28.9-17.8,44.7c-1.1,9.7-3.7,18.6-16.8,25.6
				c-1.1-12.4-2.4-23.4,2-34.3c11.3-28.4,17.7-57.3,19.1-86.9c0.2-4.5,1.3-12.1-5.8-12.4c-6.4-0.3-7.4,7-8.3,11.9
				c-3.4,20-6.8,39.9-10.3,60.5c-3.9-3.8-2-10.2-10.9-10.3c-8.8-0.1-11.5,5-15.2,9.4c-0.7,0.8-1.3,1.6-1.6,2.5
				c-3.5,11.4-9.5,22.6-9.2,34.5c0.2,6.8-2.3,12.8-6.9,18.5c-2.3,2.8-3.5,7.4-9.2,6c-6.3-1.6-4-6.4-2.9-9.7
				c2.9-8.7,6.7-17.2,9.9-25.9c4.6-12.3-1.4-23-14.1-25.4c-0.2-8.8,4.3-18.2-5.7-27.8c-7.7,10-12.2,19.2-10.2,29.1
				c1.2,5.8,0.1,11-1.6,16.4c-2.4,7.8-4.4,15.8-7.3,23.5c-2.4,6.6-3.1,13.9-10.6,19.1c-4.5-4.6-3.1-9.2-2.6-13.9
				c1.8-17.2,7.5-34.3,1.3-51.7c-1.2-3.3-1.4-6.9-6.8-8c-5.6-1.2-8.4,2.1-11.2,4.5c-2.6,2.3-4.6,5.1-6.4,7.9
				c-8.2,13-11.8,27-14.5,41.2c-1,5.3-3.4,9.7-10.8,14.6c-1-19,4.5-35.6,5.9-52.4c0.2-2.9,4.3-6.4-1-8.2c-6.6-2.2-6.5,3.4-9.2,7.2
				c-1.7-3.8-2.5-6.2-3.9-8.4c-4.6-7.6-9.8-8-16.8-1.3c-3.6,3.4-6.2,7.1-7.8,11.4c-7.8,20.8-12.5,41.7-4.2,63.2
				c1.3,3.4,2,6.9,7.5,7.5c5.9,0.6,8.9-2.7,11.2-5.9c1.4-2,2.2-4.1,5.5-5.6c1.3,8.4-4.9,14-10,19.9c-21.5,24.7-24.9,51.2-14.4,79.2
				c1.4,3.6,3.6,7.5,9.3,7.7c6.7,0.3,6.8-4.5,8.2-7.9c1-2.4,1.6-4.8,2.2-7.2c5.5-20.1,8.1-40.4,10.1-60.9
				c1.3-12.6,5.2-24.4,16.5-34.5c3,2.6,3.2,5.4,3.8,8.2c0.7,3.1,1.8,6.3,6.6,7c5.6,0.8,7.8-2.4,10.2-5.4c2.7-3.4,5.7-6.8,9.3-11.1
				c1.5,4.6,2.3,7.6,3.4,10.6c1.3,3.5,3.2,6.4,9.2,6c5.4-0.3,7-3.2,7.4-6.3c0.8-5.1,4.5-9.3,6.5-14c4.5-10.5,12-20.4,12.3-31.8
				c0.1-3.7-0.1-7.3,6.3-7.2c8.4,0.1,6,5.1,5.2,8.3c-2.1,8.5-4.5,17-7.9,25.3c-3.1,7.6-1.7,14.8,0.8,22c2.8,7.9,8.5,8.7,16.3,3.1
				c4.7-3.4,4.9-9,10.5-11.9c4.9,2.7,1,9.5,10,9.6C367.2,204.2,363.8,193,373.1,188.8z M82.2,202.8c-8.6-6.9-16.5-6.3-23.8,0.2
				c-9.4,8.3-11,17.6-8.4,27.8c0.9,3.6,1.4,7.8,7.8,8.4c5.6,0.5,10.9,0.8,16-2.9c5-3.7,5.4-9,9.9-12.7c15.7,18.2,16.4,18.5,28,13.3
				c-17.9-10.4-22.5-22.2-15.2-39.1c13.2-30.7,18.3-62.4,17.5-94.4c-0.4-16.5-0.4-33.7-14.2-48.3c-4.7-5-11.5-6-16.5-1.7
				C76.6,59.1,69.5,64.7,66,72.1c-14.6,30.8-21,62.5-17.6,95.1c0.7,7,2.8,14.1,8.4,20.2c2.5,2.7,5.5,4.3,9.1,2.4
				c3.4-1.8,5.8-4.5,1.8-7.8c-3.4-2.8-4.9-6.1-5.9-9.9c-4-15.8-1.7-31.6,0.8-47.3c2.7-17.3,7.5-34.2,16.5-50.3
				c2.5-4.4,5.6-10.8,12.4-10c6.5,0.7,7.7,7.2,8.6,12.2C107.8,119.7,97.1,161.2,82.2,202.8z M139.5,147.4
				c4.3,14.8,8.9,27.9,8.1,41.6c-0.1,2,0,4.8-3.8,5.1c-4.6,0.4-4.7-2.9-5.9-5c-1.7-3,0.7-6.9-3.7-9.4c-9.8,6.4-8.9,25,1.3,30
				c6.2,3,9.4-1.8,10.6-3.7c6.3-10.2,15.4-20,11.2-32.3c-2.5-7.5-5.1-15-6.5-22.7c-1.4-7.5-5-15.3-0.7-22.8c3.6-6.4,2-11.7-2.7-17.6
				c-6.2,6.3-12.3,11.7-13.3,19.1c-0.9,6.6,0.8,13.2-2.9,20c-3.1,5.8-9.3,12.2-4.2,21.1C131.4,162.4,135,155.7,139.5,147.4z
				 M134.8,50.3c-6.1,4.2-8.8,8.9-9.6,14c-2,12.6-3.9,25.2-5.2,37.9c-0.3,2.7-5.2,7.6,2.6,8.2c7,0.5,6.2-4.9,6.9-8.3
				c1.8-9.2,4.2-18.4,4.6-27.6C134.4,66.7,140.2,59,134.8,50.3z M306.2,246.5c7.8,6.6,6.9,14.4,13.6,21.2
				c3.3-12.3-0.8-23.5,2.8-34.3c0.4-1.2-1.5-2-3.5-1.7c-2.1,0.4-2.5,1.7-2,2.8c2.2,4.7,1.2,9.3,1.1,14.6
				c-8.4-4.8-4.8-14.2-15.7-18.3c0.4,11.6,2.7,22.3-0.6,32.8c-0.6,1.9,0.2,3.2,2.8,3.1c3.4,0,3.8-1.4,2.6-3.7
				C305,258.3,306.5,253.3,306.2,246.5z M448.5,260.5c-0.8,2.7-1.5,5.7,3.6,6.4c3.3,0.5,6.5,0.2,7.7-3.1c3.5-9.4,4-18.9,1.3-28.4
				c-1.3-4.6-6.5-5.2-10.5-3.4c-4.8,2.3-4.6,7.1-4.4,10.9c0.2,3.8,1.3,8.1,6.9,10c4.4,1.5,4.9,3,3.5,6.7
				C454.5,265.4,451.1,258.9,448.5,260.5z M423.1,261.1c-0.4,3.1-0.5,5.7,5,6c4.9,0.3,6.2-2,7.3-4.9c2.4-6.4,2.4-12.9,2.1-19.4
				c-0.2-4,0.1-8.3-5-10.9c-2.2-1.1-6.1-1.3-8.1,0.5c-4.4,3.8-4.4,8.5-2.9,13.2c0.9,2.9,3,4.3,7.3,5.3c6.6,1.6,3.2,5.9,2.3,9.3
				C429.5,265.6,425.7,260.2,423.1,261.1z M259.7,232.3c-4.4,6.7-4.8,12.7,2.5,18.4c4.5,3.5,8.2,7.6,2.3,12.4c-5.3-1.4-4-5.5-7.7-8
				c-0.1,1.9-0.4,3.4-0.3,4.8c0.2,3.2-1.5,6.9,5.9,7.3c6.9,0.3,9.9-2.1,10.9-6.7c1-4.7,1.2-9.9-3.7-13.1
				C263.3,243.2,259.9,238.6,259.7,232.3z M474.1,255.3c-2.9,3.6-4.1,7-0.7,10.4c2,2.1,5.5,1.8,8,1.1c5.6-1.6,6.1-5.6,6-9.3
				c-0.1-6.7-3.3-13-1.2-20.1c1.4-4.9-6.7-7.9-11.7-5.3c-2,1.1-1.8,2.7-1.8,4.2c0,0.8,0.3,2,2.1,1.3c9.2-3.5,6,2.3,4.8,4.2
				c-2.6,3.9-1.5,7,1.3,10.4c2.5,3.2,2.1,6.6-0.7,9.7c-0.5,0.6-2.1,0.6-3.7,0.9C475.5,260.3,474.8,257.9,474.1,255.3z M340.1,231.5
				c-10.1,8.3-11.8,25.7-4,33.1c3.8,3.6,7.6,3.3,11.7,1.2C331.3,256,339.2,243.9,340.1,231.5z M409.4,227.5
				c-1.7,4.5-9.1,7.2-6.8,10.7c5.3,8.5,2.7,16.8,1.5,25.2c-0.4,2.5,0.3,3.5,3.3,3.6c2.6,0.1,5.5-0.2,4.7-2.9
				C408.1,252.3,412.4,240.2,409.4,227.5z M283.7,250.9c-0.5,3.3,1.2,8-1.1,12.5c-1.2,2.4,0.4,3.5,3.4,3.5c3.4,0.1,5-0.4,4.1-3.8
				c-2.6-8.8-1.4-17.8-0.6-26.7c0.2-2.1,2.3-4.6-2.5-4.6c-4.3,0-3.3,2.7-3.3,4.9C283.8,241,283.7,245.3,283.7,250.9z M269.8,241.1
				c0.7-3.1,4-6.7-3.7-10.5C267.8,235.3,268.8,238.2,269.8,241.1z M345.4,230.2c1.8,4.9,2.7,7.6,3.7,10.3
				C350.3,237.5,352.7,234.2,345.4,230.2z"/>
			<path class="st1" d="M373.1,188.8c-9.3,4.2-5.9,15.5-20,15.3c-9-0.1-5.2-6.8-10-9.6c-5.6,2.9-5.9,8.5-10.5,11.9
				c-7.7,5.6-13.5,4.8-16.3-3.1c-2.5-7.2-3.9-14.4-0.8-22c3.4-8.3,5.8-16.8,7.9-25.3c0.8-3.2,3.2-8.2-5.2-8.3
				c-6.4-0.1-6.3,3.6-6.3,7.2c-0.3,11.4-7.8,21.3-12.3,31.8c-2,4.7-5.7,8.9-6.5,14c-0.5,3.1-2.1,6-7.4,6.3c-6,0.3-7.9-2.6-9.2-6
				c-1.1-3-1.9-6-3.4-10.6c-3.7,4.4-6.6,7.7-9.3,11.1c-2.4,3-4.6,6.2-10.2,5.4c-4.8-0.7-5.9-3.9-6.6-7c-0.6-2.7-0.8-5.6-3.8-8.2
				c-11.2,10.1-15.2,21.9-16.5,34.5c-2,20.4-4.6,40.8-10.1,60.9c-0.7,2.4-1.2,4.9-2.2,7.2c-1.4,3.4-1.4,8.2-8.2,7.9
				c-5.6-0.2-7.9-4.1-9.3-7.7c-10.5-27.9-7.2-54.5,14.4-79.2c5.2-5.9,11.3-11.5,10-19.9c-3.3,1.5-4,3.6-5.5,5.6
				c-2.3,3.2-5.3,6.6-11.2,5.9c-5.5-0.6-6.2-4.1-7.5-7.5c-8.3-21.4-3.6-42.3,4.2-63.2c1.6-4.3,4.3-8,7.8-11.4
				c7-6.7,12.1-6.4,16.8,1.3c1.3,2.2,2.1,4.6,3.9,8.4c2.7-3.8,2.6-9.5,9.2-7.2c5.3,1.8,1.2,5.4,1,8.2c-1.3,16.8-6.9,33.4-5.9,52.4
				c7.4-4.9,9.8-9.3,10.8-14.6c2.7-14.1,6.2-28.1,14.5-41.2c1.8-2.8,3.7-5.6,6.4-7.9c2.8-2.5,5.6-5.7,11.2-4.5
				c5.4,1.2,5.6,4.8,6.8,8c6.2,17.3,0.5,34.5-1.3,51.7c-0.5,4.7-1.8,9.3,2.6,13.9c7.5-5.3,8.2-12.6,10.6-19.1
				c2.9-7.7,4.9-15.7,7.3-23.5c1.7-5.4,2.7-10.5,1.6-16.4c-2-9.9,2.5-19.2,10.2-29.1c10,9.6,5.5,19,5.7,27.8
				c12.6,2.4,18.6,13.1,14.1,25.4c-3.2,8.6-7,17.2-9.9,25.9c-1.1,3.3-3.4,8.1,2.9,9.7c5.7,1.4,7-3.2,9.2-6
				c4.6-5.7,7.1-11.7,6.9-18.5c-0.3-11.9,5.7-23.1,9.2-34.5c0.3-0.9,0.9-1.7,1.6-2.5c3.7-4.4,6.4-9.5,15.2-9.4
				c8.9,0.1,7,6.5,10.9,10.3c3.5-20.5,7-40.5,10.3-60.5c0.8-4.9,1.9-12.2,8.3-11.9c7.1,0.3,6,7.9,5.8,12.4
				c-1.4,29.6-7.8,58.5-19.1,86.9c-4.3,10.9-3,21.9-2,34.3c13.1-7,15.7-15.9,16.8-25.6c1.8-15.8,5.1-31.3,17.8-44.7
				c3.1-3.2,6.5-5.7,12.2-4.6c6.1,1.2,6.8,5.2,6.9,8.8c0.7,14.2-6.2,26.6-17.3,37.8c-6.5,6.6-11.4,13.6-6.9,22.2
				c3.4,6.5,9.2,7.6,15.7,2.6c12.6-9.7,17.9-21.8,18.8-35.2c0.5-7.4,1.6-14.8,2.9-22.2c0.5-3,1-6.4,6.6-6.8c6.8-0.6,4.3,4.1,6.4,6.4
				c5.6-3.1,7.5-12,16.1-9.2c8.2,2.6,7.6,10.3,7.7,16.5c0.2,14.7-4.7,28.9-5.8,43.5c-0.2,3.1-2,6.1,2.1,9.2
				c15.5-10.9,14.9-27.4,26-41.3c2.7,11-3.9,19.6-7.5,28.4c-3.1,7.6-8.4,14.7-12.9,22c-2,3.3-5.1,5.4-10.6,5c-6-0.5-7.2-3.8-7.9-7.2
				c-2.5-12.5,1.5-24.7,3.2-37c1.1-8.2,2.5-16.3-0.4-26.7c-9.4,13.1-17.4,23.9-18.3,36.9c-0.5,7.4-1.4,14.9-3.2,22.2
				c-1,4.2-1.6,9.4-9.3,11.6c-5.9-5.9,2.1-12-1.1-18.4c-3.1,3.6-6.7,6.8-8.7,10.4c-3.1,5.5-7.7,8.4-15.8,8.2
				c-8.4-0.3-10-5.3-12.7-9.8c-1.3-2.1-0.3-5.1-4.4-6.8c-3.7,3.3-5.7,7.2-8.2,11c-1.6,2.5-4.2,5.7-9.2,5.3c-5.3-0.4-5.7-3.9-6.8-6.8
				C374.1,196.6,372.9,192.7,373.1,188.8z M220.4,131.3c-3.9,0-5.3,0.4-6.1,1.7c-11,17.1-14.3,35.1-10,53.8c0.6,2.5,2.2,3.7,5.7,3.9
				c4,0.2,5.9-1.6,7.6-3.8C231.8,168.4,225,149.8,220.4,131.3z M351,179.9c2.3,3.4-0.2,9,5.9,10.3c7.1,1.5,7.9-4.3,10.4-7.5
				c12.4-15.1,10.9-31.2,5.8-47.5c-0.5-1.8-0.5-3.9-3.8-4.1c-3.2-0.2-4.1,1.8-5.1,3.4c-1.4,2.2-2.4,4.6-3.7,6.8
				c-6.1,10.2-1.4,21.9-7.5,32.2C351.9,175.4,351.7,177.6,351,179.9z M272.5,130.9c-13.1,12.9-20.2,50.4-11.2,59.8
				C279.3,172.4,278.5,152.5,272.5,130.9z M205.4,283.5c7.7-19.6,9.7-39.8,11.3-60C202.9,242.4,193.7,261.9,205.4,283.5z
				 M424.2,131.2c-6,8.1-13.2,16.1-7.6,27C423.6,149.7,430.4,141.8,424.2,131.2z"/>
			<path class="st1" d="M82.2,202.8c14.9-41.6,25.6-83.1,17.9-126.1c-0.9-5-2-11.4-8.6-12.2c-6.9-0.8-9.9,5.6-12.4,10
				c-8.9,16.1-13.8,33-16.5,50.3c-2.4,15.7-4.7,31.4-0.8,47.3c1,3.8,2.5,7.1,5.9,9.9c4,3.3,1.6,6-1.8,7.8c-3.6,1.9-6.6,0.4-9.1-2.4
				c-5.6-6.1-7.6-13.2-8.4-20.2C45,134.6,51.4,102.9,66,72.2c3.5-7.4,10.6-13.1,17.3-18.9c5-4.3,11.8-3.3,16.5,1.7
				c13.8,14.6,13.7,31.9,14.2,48.3c0.8,32-4.2,63.7-17.5,94.4c-7.3,16.9-2.7,28.7,15.2,39.1c-11.6,5.2-12.3,4.9-28-13.3
				c-4.5,3.7-4.8,9-9.9,12.7c-5.1,3.7-10.4,3.4-16,2.9c-6.3-0.5-6.8-4.8-7.8-8.4c-2.6-10.2-1-19.5,8.4-27.8
				C65.7,196.5,73.6,195.9,82.2,202.8z M65,225.7c3.7-2.8,8.9-5.3,9.8-10.3c0.5-2.6-0.9-4.6-4.6-4.1c-7.5,1-8.6,5.9-9.8,10.3
				C60,223.3,60.3,225.5,65,225.7z"/>
			<path class="st1" d="M139.5,147.4c-4.5,8.3-8.1,15.1-12.5,23.3c-5.1-8.8,1.1-15.2,4.2-21.1c3.7-6.8,2-13.3,2.9-20
				c1-7.4,7.1-12.8,13.3-19.1c4.7,5.9,6.2,11.2,2.7,17.6c-4.2,7.5-0.7,15.3,0.7,22.8c1.4,7.6,4,15.2,6.5,22.7
				c4.2,12.4-4.9,22.2-11.2,32.3c-1.2,1.9-4.4,6.7-10.6,3.7c-10.2-4.9-11.2-23.6-1.3-30c4.4,2.5,2,6.4,3.7,9.4
				c1.2,2.1,1.3,5.4,5.9,5c3.9-0.3,3.7-3.1,3.8-5.1C148.4,175.2,143.8,162.1,139.5,147.4z"/>
			<path class="st1" d="M134.8,50.3c5.4,8.8-0.4,16.5-0.8,24.1c-0.4,9.2-2.8,18.5-4.6,27.6c-0.7,3.4,0.1,8.8-6.9,8.3
				c-7.8-0.5-2.9-5.5-2.6-8.2c1.3-12.7,3.2-25.3,5.2-37.9C126,59.1,128.7,54.5,134.8,50.3z"/>
			<path class="st1" d="M306.2,246.5c0.3,6.8-1.3,11.8,1.1,16.6c1.1,2.3,0.8,3.7-2.6,3.7c-2.6,0-3.3-1.3-2.8-3.1
				c3.3-10.5,1.1-21.1,0.6-32.8c10.9,4.1,7.2,13.5,15.7,18.3c0.1-5.2,1.2-9.9-1.1-14.6c-0.6-1.2-0.1-2.5,2-2.8
				c1.9-0.3,3.9,0.5,3.5,1.7c-3.5,10.8,0.5,21.9-2.8,34.3C313.2,260.9,314,253.1,306.2,246.5z"/>
			<path class="st1" d="M448.5,260.5c2.6-1.7,6,4.8,8.2-0.8c1.4-3.7,0.9-5.2-3.5-6.7c-5.6-1.9-6.7-6.2-6.9-10
				c-0.2-3.8-0.5-8.7,4.4-10.9c4-1.9,9.2-1.2,10.5,3.4c2.7,9.5,2.2,19-1.3,28.4c-1.2,3.2-4.4,3.6-7.7,3.1
				C447,266.2,447.7,263.3,448.5,260.5z M455.7,248c2.2-5.6,3.6-9.1-1.5-12.7C451.9,239.4,451.6,242.7,455.7,248z"/>
			<path class="st1" d="M375.9,254.1c5.6,12.4,4,13.8-13.8,12.1c2.1-9.6,1.3-19.3,1.1-29c-0.1-3.7,0.4-5.9,6.3-5.8
				c5.5,0.1,10.2,0.3,8,6.1c-2.9-0.4-6.1-4.7-8.3-0.5c-0.8,1.5-6.1,6.3,3.7,7c5.1,0.4,1.1,6.4,2.6,9.7c-1.6-0.9-3.9-2.9-4.6-2.7
				c-5.3,2.1-1.7,5.9-2.4,9c-0.4,1.6,0.9,3.2,3.6,2.8c4.6-0.7,3.4-3.7,3.9-6C376.1,256,375.9,255.1,375.9,254.1z"/>
			<path class="st1" d="M423.1,261.1c2.6-0.9,6.4,4.5,8-0.9c1-3.4,4.3-7.7-2.3-9.3c-4.3-1-6.4-2.4-7.3-5.3
				c-1.5-4.7-1.5-9.4,2.9-13.2c2-1.7,5.9-1.6,8.1-0.5c5,2.5,4.8,6.9,5,10.9c0.3,6.5,0.3,13-2.1,19.4c-1.1,2.9-2.4,5.2-7.3,4.9
				C422.6,266.8,422.7,264.1,423.1,261.1z M428,234.2c-2.8,5.4-2.5,8.8,3.3,13.5C432.4,242.3,434.2,238.7,428,234.2z"/>
			<path class="st1" d="M259.7,232.3c0.2,6.3,3.7,10.9,9.9,15.1c4.9,3.3,4.7,8.4,3.7,13.1c-0.9,4.5-3.9,7-10.9,6.7
				c-7.4-0.4-5.7-4.1-5.9-7.3c-0.1-1.4,0.2-2.8,0.3-4.8c3.7,2.4,2.4,6.6,7.7,8c5.9-4.8,2.2-8.9-2.3-12.4
				C254.9,245,255.3,238.9,259.7,232.3z"/>
			<path class="st1" d="M474.1,255.3c0.8,2.6,1.4,5,2.2,7.6c1.6-0.4,3.2-0.4,3.7-0.9c2.8-3.1,3.3-6.5,0.7-9.7
				c-2.7-3.4-3.9-6.4-1.3-10.4c1.3-1.9,4.4-7.7-4.8-4.2c-1.8,0.7-2.1-0.5-2.1-1.3c0-1.5-0.1-3.1,1.8-4.2c4.9-2.7,13.1,0.4,11.7,5.3
				c-2.1,7,1.1,13.4,1.2,20.1c0.1,3.7-0.4,7.7-6,9.3c-2.5,0.7-6,1-8-1.1C469.9,262.3,471.1,258.9,474.1,255.3z"/>
			<path class="st1" d="M340.1,231.5c-0.8,12.4-8.7,24.6,7.6,34.3c-4,2-7.9,2.4-11.7-1.2C328.3,257.2,329.9,239.8,340.1,231.5z"/>
			<path class="st1" d="M409.4,227.5c3,12.8-1.3,24.9,2.7,36.6c0.9,2.6-2.1,3-4.7,2.9c-3.1-0.1-3.7-1.1-3.3-3.6
				c1.2-8.4,3.8-16.7-1.5-25.2C400.3,234.6,407.7,232,409.4,227.5z"/>
			<path class="st1" d="M283.7,250.9c0-5.6,0.1-9.9,0-14.3c0-2.1-1-4.9,3.3-4.9c4.8,0,2.6,2.5,2.5,4.6c-0.8,8.9-2,17.9,0.6,26.7
				c1,3.4-0.7,3.9-4.1,3.8c-3-0.1-4.6-1.1-3.4-3.5C284.9,258.9,283.2,254.2,283.7,250.9z"/>
			<path class="st1" d="M269.8,241.1c-1-2.9-2-5.8-3.7-10.5C273.8,234.4,270.5,237.9,269.8,241.1z"/>
			<path class="st1" d="M345.4,230.2c7.3,4,4.9,7.2,3.7,10.3C348.2,237.8,347.2,235.1,345.4,230.2z"/>
			<path class="st0" d="M220.4,131.3c4.5,18.6,11.4,37.1-2.8,55.6c-1.7,2.3-3.6,4-7.6,3.8c-3.5-0.1-5.1-1.4-5.7-3.9
				c-4.4-18.8-1-36.7,10-53.8C215.1,131.7,216.5,131.3,220.4,131.3z"/>
			<path class="st0" d="M351,179.9c0.7-2.3,0.9-4.6,2-6.5c6.1-10.3,1.3-21.9,7.5-32.2c1.3-2.2,2.3-4.6,3.7-6.8c1-1.6,2-3.6,5.1-3.4
				c3.3,0.2,3.3,2.4,3.8,4.1c5,16.3,6.5,32.4-5.8,47.5c-2.6,3.2-3.4,9-10.4,7.5C350.8,188.9,353.4,183.3,351,179.9z"/>
			<path class="st0" d="M272.5,130.9c6,21.6,6.8,41.5-11.2,59.8C252.3,181.3,259.4,143.9,272.5,130.9z"/>
			<path class="st0" d="M205.4,283.5c-11.7-21.7-2.5-41.1,11.3-60C215,243.7,213.1,263.9,205.4,283.5z"/>
			<path class="st0" d="M424.2,131.2c6.2,10.5-0.6,18.4-7.6,27C411.1,147.3,418.3,139.4,424.2,131.2z"/>
			<path class="st0" d="M65,225.7c-4.7-0.3-5-2.4-4.5-4.1c1.2-4.4,2.3-9.3,9.8-10.3c3.7-0.5,5.1,1.5,4.6,4.1
				C73.9,220.5,68.7,223,65,225.7z"/>
			<path class="st0" d="M455.7,248c-4.1-5.2-3.8-8.5-1.5-12.7C459.3,238.8,457.9,242.4,455.7,248z"/>
			<path class="st0" d="M375.9,254.1c0,0.9,0.2,1.9,0.1,2.8c-0.5,2.3,0.7,5.3-3.9,6c-2.6,0.4-3.9-1.2-3.6-2.8c0.7-3.1-2.8-6.9,2.4-9
				c0.7-0.3,3,1.7,4.6,2.7L375.9,254.1z"/>
			<path class="st0" d="M428,234.2c6.2,4.5,4.4,8.1,3.3,13.5C425.5,243,425.2,239.6,428,234.2z"/>
		</g>
	</g>
</g>
</svg>
